<svg width="14" height="18" viewBox="0 0 14 18" fill="none" xmlns="http://www.w3.org/2000/svg">
<path d="M13.6388 4.57123H10.8192V3.70839C10.8192 1.71946 9.25349 0.103455 7.32887 0.103455C5.40425 0.103455 3.83857 1.71946 3.83857 3.70595V4.56879H1.01658C0.818217 4.56879 0.655273 4.73697 0.655273 4.94172V17.5236C0.655273 17.7284 0.815855 17.8966 1.01658 17.8966H13.6388C13.8372 17.8966 14.0001 17.7308 14.0001 17.5236V4.94415C14.0001 4.73941 13.8395 4.57123 13.6388 4.57123ZM4.55647 3.70839C4.55647 2.13138 5.79862 0.849303 7.32651 0.849303C8.8544 0.849303 10.0965 2.13138 10.0965 3.70839V4.57123H4.55647V3.70839Z" fill="#50462D"/>
</svg>
