<svg width="15" height="17" viewBox="0 0 15 17" fill="none" xmlns="http://www.w3.org/2000/svg">
<g clip-path="url(#clip0_2437_16208)">
<path d="M14.8278 16.006C14.8278 16.2303 14.6316 16.4138 14.3917 16.4138C14.1519 16.4138 13.9556 16.2303 13.9556 16.006C13.9556 12.6298 11.025 9.88966 7.41404 9.88966C3.80308 9.88966 0.872455 12.6298 0.872455 16.006C0.872455 16.2303 0.676208 16.4138 0.43635 16.4138C0.196492 16.4138 0.000244141 16.2303 0.000244141 16.006C0.000244141 12.1772 3.31901 9.07414 7.41404 9.07414C11.5091 9.07414 14.8278 12.1772 14.8278 16.006ZM7.41404 8.25863C5.00674 8.25863 3.05298 6.43187 3.05298 4.18104C3.05298 1.93021 5.00674 0.103455 7.41404 0.103455C9.82134 0.103455 11.7751 1.93021 11.7751 4.18104C11.7751 6.43187 9.82134 8.25863 7.41404 8.25863ZM7.41404 7.44311C9.34162 7.44311 10.9029 5.98333 10.9029 4.18104C10.9029 2.37875 9.34162 0.918972 7.41404 0.918972C5.48645 0.918972 3.92519 2.37875 3.92519 4.18104C3.92519 5.98333 5.48645 7.44311 7.41404 7.44311Z" fill="#FBF7E5"/>
</g>
<defs>
<clipPath id="clip0_2437_16208">
<rect width="14.8276" height="16.3103" fill="white" transform="translate(0.000244141 0.103455)"/>
</clipPath>
</defs>
</svg>
