<?xml version="1.0" standalone="no"?>
<!DOCTYPE svg PUBLIC "-//W3C//DTD SVG 1.1//EN" "http://www.w3.org/Graphics/SVG/1.1/DTD/svg11.dtd">
<svg xmlns="http://www.w3.org/2000/svg"><metadata>This SVG WebFont was generated by YouWorkForThem.
Copyright  2007 ParaType Inc., ParaType Ltd. All rights reserved.</metadata><defs><font horiz-adv-x="1024" id="ywftsvg"><font-face ascent="1618" bbox="-778 -686 2130 1909" cap-height="1393" descent="-430" font-family="" font-stretch="condensed" font-weight="400" panose-1="2 4 6 6 5 5 6 2 2 4" underline-position="0" underline-thickness="0" unicode-range="U+0020-FB02" units-per-em="2048" x-height="934"/><missing-glyph horiz-adv-x="477"/><glyph d="M831 84q103 0 103 56q0 27 -6 42l-92 256h-443l-53 -162q-25 -74 -25 -114q0 -78 121 -78h49v-84h-485v84h20q135 0 189 156l414 1181h96l418 -1175q33 -92 73.5 -127t132.5 -35v-84h-569v84h57zM422 526h383l-184 547h-9zM975 1767q8 0 20 -12v-6q-4 -18 -27.5 -36 t-123.5 -68q-244 -137 -314 -138q-41 0 -41 29q0 20 31 47q72 61 158 184h297z" glyph-name="uniF460" horiz-adv-x="1343" unicode="А`"/><glyph d="M1098 905h-97q-25 225 -92 314.5t-215 89.5h-145q-84 0 -84 -64v-500h108q80 0 108 48.5t28 171.5v49h96v-627h-96v41q0 168 -43 201t-88 33h-113v-517q0 -61 84 -61h178q72 0 173 58t101 343v37h97v-522h-1026v84h98q82 0 82 61v1100q0 63 -82 64h-98v84h1026v-488z M954 1767q8 0 21 -12v-6q-4 -18 -29 -36.5t-123 -67.5q-244 -137 -313 -138q-41 0 -41 29q0 20 31 47q71 61 157 184h297z" glyph-name="uniF461" horiz-adv-x="1191" unicode="Е`"/><glyph d="M961 1251q0 57 -72 58h-92v84h559v-84h-99q-84 0 -83 -64v-1087q0 -74 83 -74h99v-84h-557v84h80q82 0 82 74v868l-496 -846v-43q0 -53 47 -53h117v-84h-557v84h98q82 0 82 74v1087q0 63 -82 64h-98v84h557v-84h-80q-84 0 -84 -64v-878l496 845v39zM1032 1767q8 0 21 -12 v-6q-4 -18 -29 -36.5t-123 -67.5q-244 -137 -313 -138q-41 0 -41 29q0 20 31 47q71 61 157 184h297z" glyph-name="uniF462" horiz-adv-x="1427" unicode="И`"/><glyph d="M613 1421q257 0 403.5 -206.5t146.5 -518t-146.5 -518.5t-403.5 -207t-404.5 207t-147.5 518.5t147.5 518t404.5 206.5zM613 55q134 0 224.5 159t90.5 480t-91.5 482t-223.5 161t-224 -160.5t-92 -482.5t91 -480.5t225 -158.5zM877 1767q8 0 20 -12v-6 q-4 -18 -19.5 -29.5t-68.5 -40.5t-64 -34q-244 -137 -313 -138q-41 0 -41 29q0 20 31 47q72 61 158 184h297z" glyph-name="uniF463" horiz-adv-x="1224" unicode="О`"/><glyph d="M918 1228q0 48 -29 64.5t-90 16.5h-31v84h442v-84h-41q-88 0 -137 -150l-321 -942q-45 -135 -121 -190.5t-154 -55.5q-131 0 -197.5 81t-66.5 174t40 139.5t95 46.5t88 -34t33 -80q0 -82 -49 -112.5t-49 -44.5q0 -27 25.5 -51t76.5 -24q121 0 182 229l-409 893 q-55 121 -176 121h-29v84h575v-84h-65q-80 0 -80 -62q0 -20 21 -67l266 -605h8l170 537q23 68 23 116zM922 1767q8 0 20 -12v-6q-4 -18 -30 -37t-121 -67q-244 -137 -314 -138q-41 0 -41 29q0 20 31 47q72 61 158 184h297z" glyph-name="uniF464" horiz-adv-x="1189" unicode="У`"/><glyph d="M465 784h123q156 0 266.5 -34.5t189 -118t78.5 -228.5q0 -43 -5 -81.5t-33.5 -102t-78 -107.5t-148.5 -78t-234 -34h-551v84h98q82 0 82 61v1100q0 63 -82 64h-98v84h577v-84h-100q-84 0 -84 -64v-461zM465 698v-555q0 -35 21.5 -47t62.5 -12h33q307 0 307 315 q0 299 -314 299h-110zM1133 1393h573v-84h-98q-82 0 -82 -64v-1100q0 -61 82 -61h98v-84h-573v84h96q84 0 84 61v1100q0 63 -84 64h-96v84zM1282 1767q8 0 21 -12v-6q-4 -18 -29 -36.5t-123 -67.5q-244 -137 -313 -138q-41 0 -41 29q0 20 30 47q72 61 158 184h297z" glyph-name="uniF465" horiz-adv-x="1777" unicode="Ы`"/><glyph d="M326 772h475q0 164 -32 281.5t-101 194.5t-152 77q-123 0 -212 -125t-107 -344h-97v537h90l60 -107q113 135 287 135q229 0 364 -190.5t135 -518.5t-156.5 -534.5t-406.5 -206.5q-162 0 -284.5 99.5t-122.5 246.5q0 92 45 138.5t103 46.5t94 -39t36 -84t-16.5 -76 t-51 -55t-34.5 -37q0 -51 69.5 -97t159.5 -46t150.5 50t95.5 113.5t59.5 181t24.5 271.5h-475v88zM842 1767q8 0 20 -12v-6q-4 -18 -30 -37t-121 -67q-244 -137 -314 -138q-41 0 -41 29q0 20 31 47q72 61 158 184h297z" glyph-name="uniF466" horiz-adv-x="1097" unicode="Э`"/><glyph d="M72 0v84h98q82 0 82 61v1100q0 63 -82 64h-98v84h573v-84h-96q-84 0 -84 -64v-467h223q20 281 163.5 461t387.5 180t389.5 -206.5t145.5 -518t-145.5 -518.5t-397.5 -207t-398.5 206t-146.5 515h-221v-545q0 -61 84 -61h96v-84h-573zM1231 53q131 0 220 159t89 480 t-89 482t-220 161t-221 -160.5t-90 -482.5t90 -480.5t221 -158.5zM1243 1767q8 0 21 -12v-6q-4 -18 -29 -36.5t-123 -67.5q-244 -137 -313 -138q-41 0 -41 29q0 20 30 47q72 61 158 184h297z" glyph-name="uniF467" horiz-adv-x="1835" unicode="Ю`"/><glyph d="M684 1393h576v-84h-99q-37 0 -56.5 -14.5t-22.5 -29t-3 -40.5v-1057q0 -27 3 -41t22.5 -28.5t56.5 -14.5h99v-84h-558v84h80q39 0 58.5 14.5t22.5 28.5t3 41v506h-94q-145 0 -181 -73t-44 -106.5t-17 -95.5q-33 -238 -80 -333t-165 -95q-74 0 -124 31t-82 103.5 t-32 170.5v60h96v-37q0 -168 68 -168q43 0 56.5 49t24.5 122t17 101q49 248 232 279v16q-182 12 -277.5 114.5t-95.5 227.5q0 160 125 256.5t391 96.5zM727 762h139v467q0 25 -3 39t-20.5 27.5t-51.5 13.5h-140q-46 0 -94.5 -20.5t-101 -68t-52.5 -182.5q0 -76 28 -131 t88.5 -100t207.5 -45zM1071 1767q8 0 21 -12v-6q-4 -18 -29 -36.5t-123 -67.5q-244 -137 -313 -138q-41 0 -41 29q0 20 30 47q72 61 158 184h297z" glyph-name="uniF468" horiz-adv-x="1331" unicode="Я`"/><glyph d="M831 1737q10 0 19 -13v-6q-2 -4 -3 -8t-3 -7t-6 -7t-8.5 -7t-12.5 -8.5t-9 -6.5l-20 -12q-18 -12 -74 -50t-151.5 -86.5t-118.5 -48.5q-35 0 -34 28q0 20 26 47q65 66 137 185h258zM381 1598q0 -48 -33 -82.5t-79 -34.5t-80.5 34.5t-34.5 82.5t34.5 83t80.5 35t79 -35 t33 -83zM1067 1598q0 -48 -33 -82.5t-80 -34.5t-80.5 34.5t-33.5 82.5t33.5 83t80.5 35t80 -35t33 -83zM1098 905h-97q-25 225 -92 314.5t-215 89.5h-145q-84 0 -84 -64v-500h108q80 0 108 48.5t28 171.5v49h96v-627h-96v41q0 168 -43 201t-88 33h-113v-517q0 -61 84 -61 h178q72 0 173 58t101 343v37h97v-522h-1026v84h98q82 0 82 61v1100q0 63 -82 64h-98v84h1026v-488z" glyph-name="uniF469" horiz-adv-x="1191" unicode="Ё`"/><glyph d="M707 -29q-143 0 -154 156h-6q-94 -156 -252 -156q-129 0 -181.5 64.5t-52.5 146.5q0 157 116 249.5t366 156.5v100q0 199 -156 199q-51 0 -98 -31t-47 -68q0 -18 23.5 -28t47 -29.5t23.5 -61.5t-30 -68t-75 -26t-79.5 32t-34.5 93q0 96 75.5 179.5t223.5 83.5 q301 0 301 -324v-473q0 -102 53 -103q20 0 29.5 9.5t20 25t16.5 23.5l51 -45q-49 -59 -86 -82t-94 -23zM543 322v190q-283 -68 -283 -297q0 -49 26.5 -91t86.5 -42t115 71t55 169zM690 1417q16 0 21 -20v-8q-6 -29 -161 -162t-214 -133q-31 0 -31 30q-1 18 21 49 q96 138 133 244h231z" glyph-name="uniF46A" horiz-adv-x="886" unicode="а`"/><glyph d="M434 -29q-154 0 -264.5 137.5t-110.5 354.5t107.5 358.5t262.5 141.5t247 -127t92 -297v-88h-502q0 -385 193 -385q147 -1 217 196l78 -33q-92 -258 -320 -258zM266 530h273q31 0 30 41v47q0 135 -43.5 199t-103.5 64t-108 -90.5t-48 -260.5zM684 1417q16 0 21 -20v-8 q-6 -29 -161 -162t-214 -133q-31 0 -31 30q-1 18 21 49q96 138 133 244h231z" glyph-name="uniF46B" horiz-adv-x="827" unicode="е`"/><glyph d="M664 854h-76v80h420v-80h-66q-20 0 -39.5 -3.5t-19.5 -59.5v-648q0 -56 19.5 -59.5t39.5 -3.5h66v-80h-420v80h61q23 0 32 2t18.5 16.5t9.5 44.5v512l-320 -501q-20 -29 -20 -45q0 -29 57 -29h66v-80h-422v80h63q23 0 42.5 4t19.5 59v648q0 55 -19.5 59t-42.5 4h-63v80 h422v-80h-62q-20 0 -30.5 -2t-20.5 -16.5t-10 -44.5v-512l319 501q20 37 21 45q0 29 -45 29zM788 1417q16 0 21 -20v-8q-6 -29 -161 -162t-214 -133q-31 0 -31 30q-1 18 21 49q96 138 133 244h231z" glyph-name="uniF46C" horiz-adv-x="1077" unicode="и`"/><glyph d="M858 467q0 -80 -22.5 -163t-66.5 -159.5t-125 -125t-185.5 -48.5t-185 48.5t-125 125t-67 159.5t-22.5 163t22.5 163t67 159.5t125 125t185 48.5t185.5 -48.5t125 -125t66.5 -159.5t22.5 -163zM266 467q0 -414 192.5 -414t192.5 414t-192.5 414t-192.5 -414zM707 1417 q16 0 20 -20v-8q-6 -29 -161 -162t-214 -133q-31 0 -30 30q0 18 21 49q97 144 132 244h232z" glyph-name="uniF46D" horiz-adv-x="917" unicode="о`"/><glyph d="M-6 854v80h409v-80h-38q-57 0 -58 -47q0 -14 17 -59l174 -506h10l147 454q18 55 19 101q0 57 -90 57h-31v80h340v-80h-16q-61 0 -97 -96l-317 -914q-76 -217 -230 -217q-80 0 -119.5 47.5t-39.5 99.5t27.5 83.5t69.5 31.5t67.5 -23.5t25.5 -51.5t-9 -49t-9 -27 q0 -20 24 -20t54 49t43 92l39 125l-287 786q-18 51 -37 67.5t-57 16.5h-31zM719 1417q16 0 20 -20v-8q-7 -29 -161 -162t-213 -133q-31 0 -31 30q0 18 22 49q94 135 131 244h232z" glyph-name="uniF46E" horiz-adv-x="888" unicode="у`"/><glyph d="M856 934h418v-80h-66q-20 0 -39.5 -3.5t-19.5 -59.5v-648q0 -56 19.5 -59.5t39.5 -3.5h66v-80h-418v80h59q23 0 32 2t18.5 16.5t9.5 44.5v648q0 55 -18.5 59t-41.5 4h-59v80zM487 934v-80h-59q-20 0 -39.5 -3.5t-19.5 -59.5v-261h141q322 0 321 -270q0 -119 -56 -168 t-119.5 -70.5t-149.5 -21.5h-436v80h63q23 0 42.5 4t19.5 59v648q0 55 -19.5 59t-42.5 4h-63v80h417zM369 451v-306q0 -68 63 -67h35q172 0 172 186q0 142 -67.5 164.5t-127.5 22.5h-75zM956 1417q16 0 21 -20v-8q-6 -29 -161 -162t-214 -133q-31 0 -31 30q-1 18 21 49 q96 138 133 244h231z" glyph-name="uniF46F" horiz-adv-x="1343" unicode="ы`"/><glyph d="M98 598v336h70l31 -76q67 104 203 104t241 -127t105 -355t-116 -368.5t-284 -140.5q-129 0 -209 72t-80 180q0 63 35 95t79 32t71.5 -27.5t27.5 -68.5t-27.5 -71.5t-27.5 -53.5t31 -51.5t96 -28.5q195 0 195 402h-289v79h289q0 158 -48.5 250t-122.5 92t-125 -69.5 t-67 -204.5h-78zM672 1417q16 0 20 -20v-8q-6 -29 -160 -162t-215 -133q-31 0 -30 30q-1 18 21 49q94 135 132 244h232z" glyph-name="uniF470" horiz-adv-x="806" unicode="э`"/><glyph d="M1305 467q0 -80 -21.5 -163t-65.5 -159.5t-124 -125t-182 -48.5t-179.5 46t-144 155t-70.5 279h-149v-308q0 -55 20.5 -59t40.5 -4h51v-80h-411v80h63q23 0 42.5 4t19.5 59v648q0 55 -19.5 59t-42.5 4h-63v80h411v-80h-51q-20 0 -30.5 -2t-20.5 -16.5t-10 -44.5v-261h151 q16 158 83 255.5t141.5 137.5t171.5 40t177.5 -48.5t124.5 -125t65.5 -159.5t21.5 -163zM723 467q0 -414 188.5 -414t188.5 414t-188.5 414t-188.5 -414zM932 1417q16 0 20 -20v-8q-6 -29 -160 -162t-214 -133q-31 0 -31 30q-1 18 21 49q94 135 132 244h232z" glyph-name="uniF471" horiz-adv-x="1363" unicode="ю`"/><glyph d="M139 266q0 -90 7.5 -114.5t13 -41t21.5 -16.5q15 0 22.5 6t12.5 17.5t18.5 53.5t13.5 83q37 190 182 201v14q-109 4 -186.5 61.5t-77.5 157.5t82 173t252 73h452v-80h-65q-23 0 -32 -2t-18.5 -16.5t-9.5 -44.5v-648q0 -55 18.5 -59t41.5 -4h65v-80h-417v80h59 q20 0 39.5 3.5t19.5 59.5v293h-67q-74 0 -103 -33t-45 -93t-30.5 -140.5t-45 -139.5t-133.5 -59q-164 0 -170 295h80zM653 516v287q0 33 -13 43t-42 10h-61q-59 0 -114.5 -42t-55.5 -118t43 -128t143 -52h100zM856 1417q16 0 21 -20v-8q-6 -29 -161 -162t-214 -133 q-31 0 -31 30q-1 18 21 49q96 138 133 244h231z" glyph-name="uniF472" horiz-adv-x="1021" unicode="я`"/><glyph d="M434 -29q-154 0 -264.5 137.5t-110.5 354.5t107.5 358.5t262.5 141.5t247 -127t92 -297v-88h-504q0 -385 195 -385q147 -1 217 196l78 -33q-92 -258 -320 -258zM264 530h275q31 0 30 41v47q0 135 -43.5 199t-103.5 64t-109 -90.5t-49 -260.5zM246 1243q0 -47 -30 -78.5 t-75 -31.5t-76.5 32.5t-31.5 77.5t31.5 78t76.5 33t75 -32t30 -79zM799 1243q0 -45 -31 -77.5t-75 -32.5t-75.5 32.5t-31.5 77.5t31.5 78t75.5 33t75 -33t31 -78zM578 1372q12 0 16 -16v-6q-6 -27 -127 -125q-129 -109 -178 -109q-25 0 -25 23q0 11 20 45t33 47 q52 80 72 141h189z" glyph-name="uniF473" horiz-adv-x="827" unicode="ё`"/><glyph d="M387 854v-711q0 -39 15.5 -51t43.5 -12h64v-80h-449v80h93q31 0 45 12t14 51v711h-152v80h152v90q0 197 118 303.5t253 106.5t202.5 -71t67.5 -139t-30 -111.5t-76 -43.5t-79.5 27.5t-33.5 71.5t26.5 77t26.5 53t-25.5 38t-78.5 18q-197 0 -197 -277v-143h182l310 29 v-820q0 -56 19.5 -59.5t39.5 -3.5h84v-80h-432v80h53q23 0 42.5 4t19.5 59v668q0 43 -76 43h-242z" glyph-name="uniFB01" horiz-adv-x="1073" unicode="fi"/><glyph d="M387 854v-711q0 -39 15.5 -51t43.5 -12h64v-80h-449v80h93q31 0 45 12t14 51v711h-152v80h152v90q0 98 33 176t114.5 146t219.5 81l299 29v-1313q0 -56 19.5 -59.5t39.5 -3.5h84v-80h-432v80h53q23 0 42.5 4t19.5 59v1160q0 29 -16.5 37t-59.5 8h-45q-197 0 -197 -271 v-143h191v-80h-191z" glyph-name="uniFB02" horiz-adv-x="1073" unicode="fl"/><glyph glyph-name=".notdef" horiz-adv-x="477"/><glyph glyph-name="glyph1" horiz-adv-x="0"/><glyph glyph-name="glyph2" horiz-adv-x="681"/><glyph glyph-name="space" horiz-adv-x="477" unicode=" "/><glyph d="M123 1254q0 80 45 123.5t104 43.5t104.5 -43.5t45.5 -123.5t-23.5 -196t-25.5 -126q-37 -264 -41 -295l-29 -283h-61l-29 283q-4 31 -41 295q-2 10 -25.5 126t-23.5 196zM129 126q0 64 43 109.5t100 45.5t100.5 -46.5t43.5 -110.5t-43 -108.5t-101 -44.5t-100.5 45.5 t-42.5 109.5z" glyph-name="exclam" horiz-adv-x="544" unicode="!"/><glyph d="M362 1520l-73 -373h-96l-70 373h239zM696 1520l-71 -373h-97l-69 373h237z" glyph-name="quotedbl" horiz-adv-x="819" unicode="&quot;"/><glyph d="M690 0h-141l51 354h-274l-54 -354h-143l55 354h-268l18 131h269l63 424h-268l20 131h267l49 353h143l-51 -353h276l50 353h143l-51 -353h264l-18 -131h-267l-63 -424h268l-20 -131h-267zM618 485l66 424h-276l-62 -424h272z" glyph-name="numbersign" unicode="#"/><glyph d="M897 891h-90q-47 369 -238 426v-506q80 -27 117 -41t102.5 -50t97.5 -75t58.5 -106t26.5 -165t-36 -179.5t-82 -123.5t-124.5 -71t-159.5 -29v-241h-92v250q-139 23 -246 131l-55 -140h-94v592h94q55 -420 301 -485v518q-375 131 -375 442q0 178 106.5 278.5t268.5 104.5 v133h92v-143q135 -27 199 -127l45 109h84v-502zM569 66q156 0 204 78t48 172q0 93 -68.5 150.5t-183.5 98.5v-499zM250 1098q0 -94 60.5 -152.5t166.5 -101.5v485q-227 -8 -227 -231z" glyph-name="dollar" unicode="$"/><glyph d="M903 341q0 146 81 257t198 111t196.5 -111t79.5 -257t-81 -258t-197 -112t-196.5 112t-80.5 258zM102 1054q0 148 81 257.5t197 109.5t196.5 -109.5t80.5 -257t-80.5 -258t-196.5 -110.5t-197 110t-81 258zM1069 1485l98 -53l-723 -1545l-96 58zM266 1091 q0 -118 12.5 -197.5t44 -112.5t49.5 -33q19 0 39.5 7t50.5 73t30 219t-31 233t-81 80t-82 -75.5t-32 -193.5zM1067 326q0 -125 30.5 -208t80.5 -83t82 80.5t32 230.5t-32.5 224.5t-79.5 74.5q-63 0 -88 -97t-25 -222z" glyph-name="percent" horiz-adv-x="1560" unicode="%"/><glyph d="M1060 -29q-56 0 -129 42t-130 104q-80 -82 -162 -114t-190 -32q-176 0 -287 113t-111 274t81 273t206 180q-51 121 -51 236q0 166 91 270t218 104t187.5 -67.5t60.5 -161.5q0 -238 -322 -387q59 -119 154.5 -257t181.5 -229q109 137 109 277q0 37 -15.5 57.5t-32 24.5 t-38.5 4h-45v92h405v-92q-59 -6 -100 -15t-74 -83q-10 -25 -43 -132t-106 -200q111 -119 180 -119q29 0 54.5 24.5t38.5 48.5t40 77l61 -31q-33 -84 -56.5 -132t-71.5 -98.5t-104 -50.5zM258 416q0 -125 82 -212t192 -87t199 73q-192 193 -352 531q-121 -109 -121 -305z M729 1166q0 90 -41 124.5t-96 34.5t-112.5 -55.5t-57.5 -151.5t61 -225q98 33 172 108t74 165z" glyph-name="ampersand" horiz-adv-x="1323" unicode="&amp;"/><glyph d="M362 1520l-73 -373h-96l-70 373h239z" glyph-name="quotesingle" horiz-adv-x="485" unicode="'"/><glyph d="M61 504q0 651 455 936v-92q-123 -98 -175 -290t-52 -565t35.5 -503.5t86 -194t105.5 -110.5v-93q-221 142 -320 332t-117 334.5t-18 245.5z" glyph-name="parenleft" horiz-adv-x="598" unicode="("/><glyph d="M309 516q0 354 -52 543.5t-175 288.5v92q455 -281 455 -924q0 -268 -89.5 -507t-365.5 -417v93q122 106 170 235.5t52.5 285.5t4.5 310z" glyph-name="parenright" horiz-adv-x="598" unicode=")"/><glyph d="M484 877q-24 0 -48 -40.5t-27 -66.5t-8 -81.5t-24 -110t-92 -54.5q-43 0 -75 32t-32 72t20.5 70.5t40 43t56.5 29.5t55 27t52 49t34 65t-39 39.5t-77.5 13.5t-79.5 -13.5t-88 -13.5t-74 37t-27 81t33.5 75.5t63.5 31.5t50.5 -7t55.5 -42t45 -55q61 -82 125 -82 q45 0 45 47q0 84 -33 143q-57 95 -57 137t28.5 79.5t78 37.5t78 -37.5t28.5 -65.5t-8 -54.5t-46 -87.5t-38 -152q0 -47 47 -47q25 0 61.5 21.5t63.5 60.5q76 104 139 104q43 0 76 -31.5t33 -75.5t-28 -81t-91 -37q-27 0 -71 13.5t-74 13.5t-75.5 -9t-45.5 -47 q0 -25 34.5 -63.5t52.5 -48.5t53 -24t76.5 -47t41.5 -85q0 -51 -31 -84t-70 -33t-64.5 16.5t-35.5 45t-15.5 54.5t-7.5 62.5t-7 65.5t-29.5 69t-48.5 40z" glyph-name="asterisk" horiz-adv-x="970" unicode="*"/><glyph d="M123 702h467v467h92v-467h465v-92h-465v-465h-92v465h-467v92z" glyph-name="plus" horiz-adv-x="1269" unicode="+"/><glyph d="M324 -36q0 38 -10.5 53.5t-25 18.5t-42.5 3q-102 0 -103 113q0 53 42 92t114 39t119 -58.5t47 -154.5t-69.5 -197.5t-194.5 -173.5l-37 57q45 31 102.5 100.5t57.5 107.5z" glyph-name="comma" horiz-adv-x="608" unicode=","/><glyph d="M92 467v139h539v-139h-539z" glyph-name="hyphen" horiz-adv-x="722" unicode="-"/><glyph d="M143 124q0 64 40.5 108t100.5 44t103 -45t43 -107t-43 -107.5t-103 -45.5t-100.5 44.5t-40.5 108.5z" glyph-name="period" horiz-adv-x="573" unicode="."/><glyph d="M770 1366l-623 -1761l-108 39l623 1763z" glyph-name="slash" horiz-adv-x="854" unicode="/"/><glyph d="M512 -29q-188 0 -305 194.5t-117 530.5t117 530.5t305 194.5t305 -194.5t117 -530.5t-117 -530.5t-305 -194.5zM512 59q45 0 78 29t63 118.5t37.5 216.5t7.5 235v143q0 143 -7 200.5t-16.5 124.5t-51 137t-111.5 70q-92 0 -131.5 -111t-47 -237t-7.5 -254q0 -127 1 -180 t6 -140t17 -139.5t31.5 -106.5t52.5 -80t78 -26z" glyph-name="zero" unicode="0"/><glyph d="M623 1421v-1276q0 -61 84 -61h131v-84h-641v84h129q84 0 84 61v973q0 61 -58 62h-166v84q115 6 199 40.5t152 116.5h86z" glyph-name="one" unicode="1"/><glyph d="M442 996q0 -48 -38 -91t-94 -43t-97 51.5t-41 145.5q0 139 102 250.5t260 111.5t261.5 -87t103.5 -270t-87 -294.5t-190.5 -204.5t-159.5 -147t-93 -105t-56.5 -91t-23.5 -46h309q113 0 148.5 53t35.5 170v37h95v-436h-752v94q73 218 202.5 355t238 261.5t108.5 348.5 q0 268 -178 268q-88 0 -135.5 -64.5t-47.5 -123.5q0 -21 4 -21l33 -2q39 -4 65.5 -38t26.5 -82z" glyph-name="two" unicode="2"/><glyph d="M332 686v86h28q311 0 312 301q0 168 -65 211t-132 43q-66 0 -118 -37t-52 -67q0 -12 26.5 -23.5t30.5 -15.5q49 -35 50 -115q0 -33 -32 -72t-88 -39t-94 38t-38 112q0 133 97 223t261 90t264.5 -108.5t100.5 -236.5t-79 -216t-186 -115v-12q119 -18 204 -109.5t85 -261.5 t-124 -280.5t-293 -110.5t-272 102.5t-103 233.5q0 94 41 146.5t102 52.5t97 -31t36 -82t-21.5 -81.5t-67.5 -50t-46 -48.5q0 -49 61.5 -97t150.5 -48t146.5 75.5t57.5 227.5q0 235 -100 275t-193 40h-47z" glyph-name="three" unicode="3"/><glyph d="M928 455v-97h-168v-217q0 -57 45 -57h123v-84h-549v84h121q45 0 45 57v217h-449v97l586 966h78v-966h168zM545 455v536l-330 -536h330z" glyph-name="four" unicode="4"/><glyph d="M379 1143q-31 0 -64 6l-24 -313q89 92 233 92t257.5 -122t113.5 -342t-119 -356.5t-303 -136.5q-141 0 -243.5 96.5t-102.5 241.5q0 76 38 121t95 45t95 -32.5t38 -90.5t-30.5 -87t-60.5 -45.5t-30 -37.5q0 -51 57.5 -85t116.5 -34q213 0 213 390q0 164 -46 271t-146 107 q-59 0 -102 -30.5t-78.5 -98t-63.5 -67.5q-53 0 -53 51q0 35 15.5 85t19.5 97l43 553h82q6 -33 13 -48t44 -30.5t109 -15.5q155 0 276 94h64q-74 -160 -181.5 -219t-275.5 -59z" glyph-name="five" unicode="5"/><glyph d="M334 801h10q35 61 99.5 93t123.5 32q164 0 258.5 -122t94.5 -348t-121 -355.5t-288 -129.5t-287 147.5t-120 464.5t85 504t181.5 260.5t224.5 73.5t197.5 -62.5t69.5 -160.5q0 -53 -30 -97t-86 -44t-92 28.5t-36 80t27 75t27 47.5q0 43 -80 43q-115 0 -186.5 -135 t-71.5 -395zM342 465q0 -406 172 -406q41 0 74 30t64.5 98.5t31.5 297.5t-57 289t-92 60q-64 0 -128.5 -82.5t-64.5 -286.5z" glyph-name="six" unicode="6"/><glyph d="M745 1393q39 0 74 14t47 14q29 -2 31 -32q-2 -18 -66 -138q-125 -233 -239 -589q-35 -112 -35 -198t17.5 -185t17.5 -142q0 -166 -119 -166q-68 0 -107.5 66.5t-39.5 198.5t112 387l260 579h-336q-70 0 -87.5 -42.5t-32.5 -137t-21 -129.5h-94l55 528q78 -29 144 -28h419 z" glyph-name="seven" unicode="7"/><glyph d="M817.5 101.5q-112.5 -130.5 -323.5 -130.5q-160 0 -280 94.5t-120 256.5q0 250 260 368v10q-119 76 -169 155t-50 210t99.5 243.5t269.5 112.5t265 -94t95 -223q0 -189 -207 -326v-8q78 -37 133.5 -84t97.5 -109.5t42 -203.5t-112.5 -271.5zM258 322q0 -90 66.5 -176.5 t183.5 -86.5t178.5 76t61.5 184t-57.5 157.5t-82 68t-85 51.5t-72.5 41q-193 -98 -193 -315zM297 1128q0 -89 73.5 -173.5t192.5 -135.5q141 94 142 289q0 86 -51.5 154.5t-146.5 68.5t-152.5 -57t-57.5 -146z" glyph-name="eight" unicode="8"/><glyph d="M690 592h-10q-35 -61 -99.5 -93t-123.5 -32q-164 0 -258.5 121.5t-94.5 347.5t121 355.5t288 129.5t287 -147.5t120 -464.5t-85 -503.5t-181.5 -260.5t-224.5 -74t-200.5 62.5t-72.5 161.5q0 53 31 97t89 44t90.5 -31t32.5 -82t-23.5 -77.5t-23.5 -41.5q0 -43 80 -43 q115 0 186.5 135.5t71.5 395.5zM682 928q0 406 -172 405q-42 0 -74.5 -29.5t-64 -97.5t-31.5 -298t56.5 -289.5t91.5 -59.5q65 0 129.5 82.5t64.5 286.5z" glyph-name="nine" unicode="9"/><glyph d="M147 810q0 64 40.5 108.5t100.5 44.5t103 -45.5t43 -107.5t-43 -107.5t-103 -45.5t-100.5 44.5t-40.5 108.5zM143 124q0 64 40.5 108t100.5 44t103 -45t43 -107t-43 -107.5t-103 -45.5t-100.5 44.5t-40.5 108.5z" glyph-name="colon" horiz-adv-x="577" unicode=":"/><glyph d="M324 -36q0 38 -10.5 53.5t-25 18.5t-42.5 3q-102 0 -103 113q0 53 42 92t114 39t119 -58.5t47 -154.5t-69.5 -197.5t-194.5 -173.5l-37 57q45 31 102.5 100.5t57.5 107.5zM147 810q0 64 40.5 108.5t100.5 44.5t103 -45.5t43 -107.5t-43 -107.5t-103 -45.5t-100.5 44.5 t-40.5 108.5z" glyph-name="semicolon" horiz-adv-x="608" unicode=";"/><glyph d="M123 645l1030 526l25 -81l-844 -445l844 -440l-25 -84z" glyph-name="less" horiz-adv-x="1300" unicode="&lt;"/><glyph d="M123 844h1028v-92h-1028v92zM123 551h1028v-92h-1028v92z" glyph-name="equal" horiz-adv-x="1273" unicode="="/><glyph d="M1180 645l-1033 -524l-24 84l844 440l-844 445l24 81z" glyph-name="greater" horiz-adv-x="1302" unicode=">"/><glyph d="M418 356h-82v27q0 152 24.5 237t71.5 158q87 131 105 195.5t18 146.5t-42 150.5t-128 68.5q-59 0 -113.5 -31.5t-54.5 -65.5t15.5 -49t34 -17t33.5 -27t15 -75t-35.5 -81.5t-82.5 -31.5t-91.5 37.5t-44.5 139.5t95.5 192.5t257.5 90.5t267 -101t105 -247q0 -105 -45 -164 t-51 -67t-47 -53.5t-43 -47.5q-98 -111 -140 -185.5t-42 -170.5v-29zM526 126q0 -64 -41 -109.5t-101 -45.5t-100 45.5t-40 109.5t41 109.5t100 45.5t100 -45.5t41 -109.5z" glyph-name="question" horiz-adv-x="929" unicode="?"/><glyph d="M1147 329q0 -83 97 -83t188.5 125t91.5 354q0 291 -182 459t-462 168t-467.5 -219.5t-187.5 -520.5q0 -188 79 -354t233.5 -273.5t338.5 -107.5t279.5 37t185.5 111l50 -66q-244 -174 -496 -174q-178 0 -327.5 71.5t-245 189.5t-147.5 265.5t-52 298.5t48 295t139 262.5 t239.5 192.5t331.5 74q340 0 542.5 -192.5t202.5 -516.5q0 -240 -118.5 -395.5t-280.5 -155.5t-211 115q-109 -96 -237 -96t-204.5 91t-76.5 214q0 231 131 384.5t325 153.5q113 0 189 -98l22 66h162l-141 -498q-39 -133 -39 -177zM676 492q0 -111 28 -163.5t122 -52.5 t157 91l127 464q-39 131 -170 132q-94 0 -179 -146.5t-85 -324.5z" glyph-name="at" horiz-adv-x="1748" unicode="@"/><glyph d="M831 84q103 0 103 56q0 27 -6 42l-92 256h-443l-53 -162q-25 -74 -25 -114q0 -78 121 -78h49v-84h-485v84h20q135 0 189 156l414 1181h96l418 -1175q33 -92 73.5 -127t132.5 -35v-84h-569v84h57zM422 526h383l-184 547h-9z" glyph-name="A" horiz-adv-x="1343" unicode="A"/><glyph d="M72 1393h569q229 0 337.5 -107.5t108.5 -226.5t-65.5 -207t-179.5 -123v-12q143 -16 230 -114.5t87 -232.5t-64.5 -216t-155.5 -118t-218 -36h-649v84h98q82 0 82 61v1100q0 63 -82 64h-98v84zM465 758h151q252 0 252 266q0 135 -73.5 210t-173.5 75h-72q-84 0 -84 -64 v-487zM465 670v-525q0 -61 84 -61h80q89 0 159 35t103 97.5t33 154.5q0 145 -81 222t-214 77h-164z" glyph-name="B" horiz-adv-x="1212" unicode="B"/><glyph d="M610 -29q-141 0 -249.5 64.5t-204 227.5t-95.5 462q0 182 60.5 338t185.5 257t291 101q72 0 135.5 -22.5t88 -40t59.5 -47.5l43 82h90l26 -500h-96q-39 219 -115.5 325.5t-216.5 106.5t-227.5 -142.5t-87.5 -451.5q0 -84 12.5 -194.5t36 -181t59 -139.5t97 -108.5 t139.5 -39.5q263 -1 322 405h100q-70 -502 -453 -502z" glyph-name="C" horiz-adv-x="1124" unicode="C"/><glyph d="M72 0v84h98q82 0 82 61v1100q0 63 -82 64h-98v84h532q72 0 136.5 -8.5t164 -48.5t169 -108.5t121.5 -206.5t52 -301t-29.5 -276.5t-73.5 -184.5t-133 -142t-199 -94t-200 -23h-540zM465 1249v-1104q0 -61 84 -61h43q420 0 420 612t-420 613h-55q-45 0 -58.5 -14.5 t-13.5 -45.5z" glyph-name="D" horiz-adv-x="1308" unicode="D"/><glyph d="M1098 905h-97q-25 225 -92 314.5t-215 89.5h-145q-84 0 -84 -64v-500h108q80 0 108 48.5t28 171.5v49h96v-627h-96v41q0 168 -43 201t-88 33h-113v-517q0 -61 84 -61h178q72 0 173 58t101 343v37h97v-522h-1026v84h98q82 0 82 61v1100q0 63 -82 64h-98v84h1026v-488z" glyph-name="E" horiz-adv-x="1191" unicode="E"/><glyph d="M1063 1393v-494h-96q-25 240 -96.5 325t-194.5 85h-127q-84 0 -84 -64v-485h84q82 0 103.5 53t27.5 215h94v-618h-94q-12 192 -41 229t-90 37h-84v-531q0 -61 84 -61h88v-84h-565v84h98q82 0 82 61v1100q0 63 -82 64h-98v84h991z" glyph-name="F" horiz-adv-x="1099" unicode="F"/><glyph d="M618 1325q-322 0 -321 -635q0 -335 108.5 -478.5t221.5 -143.5t176 82.5t63 203.5v107q0 45 -9 65.5t-38 20.5h-141v84h573v-84h-125q-47 0 -47 -58v-489h-92l-57 141q-116 -170 -344 -170t-376.5 204t-148.5 522t149.5 521t395.5 203q186 0 291 -121l57 93h84l27 -504 h-100q-18 160 -109.5 298t-237.5 138z" glyph-name="G" horiz-adv-x="1271" unicode="G"/><glyph d="M969 778v467q0 63 -84 64h-88v84h565v-84h-96q-84 0 -84 -64v-1100q0 -61 84 -61h96v-84h-565v84h88q84 0 84 61v545h-504v-545q0 -61 84 -61h88v-84h-565v84h98q82 0 82 61v1100q0 63 -82 64h-98v84h565v-84h-88q-84 0 -84 -64v-467h504z" glyph-name="H" horiz-adv-x="1433" unicode="H"/><glyph d="M72 0v84h98q82 0 82 61v1100q0 63 -82 64h-98v84h573v-84h-96q-84 0 -84 -64v-1100q0 -61 84 -61h96v-84h-573z" glyph-name="I" horiz-adv-x="716" unicode="I"/><glyph d="M375 1393h577v-84h-96q-84 0 -84 -64v-745q0 -150 -20.5 -244t-89.5 -170q-109 -115 -271 -115t-260 103.5t-98 217.5t49 181.5t137 67.5q57 0 96 -38.5t39 -100.5t-33.5 -98t-76.5 -36l-60 4q-25 0 -24 -32q0 -70 64 -127.5t132 -57.5t106 20.5t67.5 65t29.5 199.5v905 q0 63 -84 64h-100v84z" glyph-name="J" horiz-adv-x="993" unicode="J"/><glyph d="M72 1393h557v-84h-80q-84 0 -84 -64v-590h10l404 541q31 41 30 66q0 47 -67 47h-86v84h497v-84h-26q-135 0 -226 -119l-243 -318l377 -661q72 -127 186 -127h27v-84h-582v84h106q47 0 48 41q0 25 -17 49l-289 514l-149 -205v-338q0 -61 84 -61h80v-84h-557v84h98 q82 0 82 61v1100q0 63 -82 64h-98v84z" glyph-name="K" horiz-adv-x="1347" unicode="K"/><glyph d="M72 1393h573v-84h-96q-84 0 -84 -64v-1104q0 -57 76 -57h133q61 0 107 15.5t119 80t81 332.5h96v-512h-1005v84h98q82 0 82 61v1100q0 63 -82 64h-98v84z" glyph-name="L" horiz-adv-x="1159" unicode="L"/><glyph d="M1528 1393v-84h-94q-84 0 -84 -64v-1100q0 -61 84 -61h94v-84h-559v84h84q84 0 84 61v1123h-11l-313 -1268h-84l-354 1268h-8v-1006q0 -106 26.5 -142t114.5 -36h22v-84h-458v84h24q84 0 121 31.5t37 146.5v983q0 63 -82 64h-100v84h487l248 -932h14l228 932h479z" glyph-name="M" horiz-adv-x="1599" unicode="M"/><glyph d="M1049 381v864q0 63 -86 64h-82v84h462v-84h-100q-84 0 -84 -64v-1274h-106l-678 1069h-10v-895q0 -61 84 -61h81v-84h-458v84h98q82 0 82 61v1100q0 63 -82 64h-98v84h321l643 -1012h13z" glyph-name="N" horiz-adv-x="1415" unicode="N"/><glyph d="M613 1421q251 0 400.5 -207.5t149.5 -517t-149.5 -517.5t-400.5 -208t-401.5 208t-150.5 517.5t150.5 517t401.5 207.5zM613 59q134 0 224.5 157t90.5 478t-90 480t-223.5 159t-225.5 -158.5t-92 -480.5t91 -478.5t225 -156.5z" glyph-name="O" horiz-adv-x="1224" unicode="O"/><glyph d="M465 602v-457q0 -61 84 -61h80v-84h-557v84h98q82 0 82 61v1100q0 63 -82 64h-98v84h485q221 0 393 -75.5t172 -322.5q0 -100 -40 -173.5t-90 -116.5t-144 -73t-217 -30h-166zM465 690h123q63 0 120.5 21.5t92.5 52.5t60.5 91t25.5 140q0 129 -73 221.5t-247 92.5h-51 q-51 0 -51 -68v-551z" glyph-name="P" horiz-adv-x="1163" unicode="P"/><glyph d="M929 -344q-89 0 -133 68.5t-61 261.5q-39 -14 -127 -15q-217 0 -382 190.5t-165 527.5t160.5 534.5t396.5 197.5t393.5 -196.5t157.5 -513.5q0 -203 -66.5 -372t-191.5 -259q4 -31 9.5 -110t17.5 -135t61 -56q72 0 82 158h88q-5 -146 -78 -213.5t-162 -67.5zM399 1196 q-102 -141 -102 -487q0 -258 68 -439h8q0 100 62.5 173t162.5 73q217 0 266 -240h6q64 186 64 396t-32 340.5t-105 227.5t-185 97q-111 0 -213 -141zM584 406q-57 0 -92 -42t-35 -120t39 -133.5t108.5 -55.5t122.5 37q-6 178 -46 246t-97 68z" glyph-name="Q" horiz-adv-x="1230" unicode="Q"/><glyph d="M72 1393h575q268 0 392 -94.5t124 -251.5q0 -125 -95 -227.5t-277 -114.5v-17q182 -31 231 -278q6 -31 16 -98t24.5 -124t57.5 -57q68 0 68 168v37h96v-60q0 -100 -31.5 -171.5t-82 -102.5t-123.5 -31q-119 0 -166 97.5t-80 337.5q-8 61 -16.5 95t-44.5 106.5t-181 72.5 h-94v-512q0 -27 3 -41t22.5 -28.5t58.5 -14.5h80v-84h-557v84h98q37 0 56.5 14.5t22.5 28.5t3 41v1057q0 27 -3 41t-22.5 28.5t-56.5 14.5h-98v84zM465 768h139q147 0 207.5 45t88.5 101t28 128t-22.5 124.5t-73.5 97.5t-152 45h-139q-35 0 -52.5 -13.5t-20.5 -28t-3 -38.5 v-461z" glyph-name="R" horiz-adv-x="1331" unicode="R"/><glyph d="M915 891h-92q-55 438 -323 438q-246 0 -246 -231q0 -120 88 -175.5t192 -90.5q103 -35 131.5 -45.5t80 -33t109.5 -62t97 -113.5t39 -187t-35.5 -195.5t-84 -124.5t-128 -71t-161.5 -29q-205 0 -346 140l-58 -140h-96v592h96q24 -184 114.5 -340.5t285.5 -156.5 q160 0 210 78.5t50 149.5q0 72 -22.5 115.5t-72 75t-84 48t-106.5 40t-88 29.5q-207 78 -285 184.5t-78 251.5q0 182 113 282.5t283 100.5q74 0 155.5 -31.5t130.5 -105.5l45 109h86v-502z" glyph-name="S" horiz-adv-x="1058" unicode="S"/><glyph d="M61 1393h1006v-525h-98q-6 236 -78 342.5t-164 106.5q-33 0 -45 -14.5t-12 -53.5v-1081q0 -67 26.5 -75.5t57.5 -8.5h88v-84h-557v84h88q39 0 58.5 14.5t22.5 28.5t3 41v1081q0 41 -13.5 54.5t-42.5 13.5q-92 0 -166.5 -107.5t-76.5 -341.5h-97v525z" glyph-name="T" horiz-adv-x="1128" unicode="T"/><glyph d="M37 1393h557v-84h-90q-39 0 -56.5 -19.5t-17.5 -66.5v-797q0 -213 72.5 -285.5t191.5 -72.5q293 0 293 389v657q0 127 -32.5 161t-120.5 34h-37v84h491v-84h-45q-78 0 -110.5 -35t-32.5 -160v-659q0 -178 -42 -253t-109 -153t-265 -78q-467 0 -467 490v760 q0 49 -16.5 68.5t-53.5 19.5h-110v84z" glyph-name="U" horiz-adv-x="1320" unicode="U"/><glyph d="M879 1229q0 80 -95 80h-32v84h440v-84h-27q-88 0 -130 -55.5t-70 -157.5l-328 -1125h-96l-363 1180q-29 96 -64.5 127t-90.5 31h-43v84h526v-84h-66q-61 0 -61 -47q0 -18 16 -74l248 -821l205 702q31 109 31 160z" glyph-name="V" horiz-adv-x="1171" unicode="V"/><glyph d="M657 1309h-34v84h522v-84h-80q-57 0 -57 -52q0 -12 12 -51l225 -798h10l172 663q23 86 23 129q0 77 -28 93t-70 16h-49v84h466v-84h-34q-100 0 -131 -66.5t-35 -81t-13 -45.5l-309 -1145h-94l-276 942h-11l-260 -942h-100l-346 1217q-23 78 -46.5 99.5t-90.5 21.5h-43v84 h507v-84h-49q-33 0 -44 -10.5t-11 -32.5t18 -95l207 -768h10l193 721l-14 58q-16 72 -46 99.5t-94 27.5z" glyph-name="W" horiz-adv-x="1748" unicode="W"/><glyph d="M41 1393h541v-84h-60q-63 0 -63 -45q0 -20 16 -50l199 -362l186 311q23 41 23 80q0 66 -72 66h-74v84h473v-84q-63 -4 -108 -25.5t-63.5 -42t-39.5 -55.5l-260 -422l320 -549q76 -131 188 -131h35v-84h-582v84h37q35 0 51.5 2t34 16t17.5 38t-29 77l-203 373l-211 -348 q-29 -47 -28 -92q0 -66 65 -66h76v-84h-516v84h39q133 0 235 166l271 440l-293 510q-35 57 -80 81t-125 28v84z" glyph-name="X" horiz-adv-x="1275" unicode="X"/><glyph d="M905 1231q0 78 -78 78h-20v84h410v-84h-19q-72 0 -110.5 -29t-77.5 -111l-269 -561v-467q0 -25 13.5 -41t33.5 -16h132v-84h-566v84h129q20 0 33.5 16.5t13.5 40.5v465l-350 598q-35 59 -66.5 82t-84.5 23h-37v84h524v-84h-49q-63 0 -64 -54q0 -20 19 -53l264 -467 l203 426q16 37 16 70z" glyph-name="Y" horiz-adv-x="1210" unicode="Y"/><glyph d="M129 874v519h875v-54l-685 -1243v-12h283q74 0 126 33t94 99.5t42 238.5v51h109v-506h-907v59l684 1237v13h-197q-162 0 -238 -93.5t-88 -341.5h-98z" glyph-name="Z" horiz-adv-x="1085" unicode="Z"/><glyph d="M592 -373h-449v1766h449v-86h-244v-1594h244v-86z" glyph-name="bracketleft" horiz-adv-x="663" unicode="["/><glyph d="M707 -395l-623 1761l109 41l622 -1763z" glyph-name="backslash" horiz-adv-x="854" unicode="\"/><glyph d="M72 -373v86h243v1594h-243v86h448v-1766h-448z" glyph-name="bracketright" horiz-adv-x="663" unicode="]"/><glyph d="M612 1243l-182 -201h-174l356 385l353 -385h-170z" glyph-name="asciicircum" horiz-adv-x="1220" unicode="^"/><glyph d="M0 -410v103h1096v-103h-1096z" glyph-name="underscore" horiz-adv-x="1095" unicode="_"/><glyph d="M279 1417h233q23 -76 74 -157q0 -9 9 -19t18 -24.5t29 -46.5t20 -46q0 -31 -31 -30q-55 0 -217 135q-152 131 -158 160v8q5 20 23 20z" glyph-name="grave" horiz-adv-x="917" unicode="`"/><glyph d="M707 -29q-143 0 -154 156h-6q-94 -156 -252 -156q-129 0 -181.5 64.5t-52.5 146.5q0 157 116 249.5t366 156.5v100q0 199 -156 199q-51 0 -98 -31t-47 -68q0 -18 23.5 -28t47 -29.5t23.5 -61.5t-30 -68t-75 -26t-79.5 32t-34.5 93q0 96 75.5 179.5t223.5 83.5 q301 0 301 -324v-473q0 -102 53 -103q20 0 29.5 9.5t20 25t16.5 23.5l51 -45q-49 -59 -86 -82t-94 -23zM543 322v190q-283 -68 -283 -297q0 -49 26.5 -91t86.5 -42t115 71t55 169z" glyph-name="a" horiz-adv-x="886" unicode="a"/><glyph d="M524 963q88 0 157 -45.5t127 -157.5t58 -311t-94 -338.5t-259 -139.5t-239 150l-51 -121h-98v1303q0 29 -9.5 37t-37.5 8h-78v79l299 29v-541l-12 -106h8q74 154 229 154zM295 468q0 -182 50 -298.5t133 -116.5t132 97.5t49 320.5q0 399 -167 399q-90 0 -143.5 -110 t-53.5 -292z" glyph-name="b" horiz-adv-x="925" unicode="b"/><glyph d="M434 -29q-164 0 -269.5 145.5t-105.5 352.5t105.5 350.5t275.5 143.5q137 0 213 -78t76 -166q0 -51 -26.5 -89t-84.5 -38t-80 31.5t-22 68.5t22.5 66.5t22.5 49.5t-31.5 48.5t-74.5 28.5q-189 0 -189 -410t191 -409q162 0 215 233l82 -25q-86 -303 -320 -303z" glyph-name="c" horiz-adv-x="794" unicode="c"/><glyph d="M805 143q0 -56 19.5 -59.5t39.5 -3.5h76v-80h-301v125h-8q-82 -154 -238 -154t-245 147.5t-89 359.5t99.5 348.5t255.5 136.5q66 0 116 -24t101 -93h8l-8 63v394q0 29 -9.5 37t-37.5 8h-78v79l299 29v-1313zM635 473q0 211 -60.5 309.5t-136.5 98.5t-124 -104.5 t-48 -266.5q0 -294 54.5 -370.5t124.5 -76.5q71 0 130.5 99.5t59.5 310.5z" glyph-name="d" horiz-adv-x="1001" unicode="d"/><glyph d="M434 -29q-154 0 -264.5 137.5t-110.5 354.5t107.5 358.5t262.5 141.5t247 -127t92 -297v-88h-504q0 -385 195 -385q147 -1 217 196l78 -33q-92 -258 -320 -258zM264 530h275q31 0 30 41v47q0 135 -43.5 199t-103.5 64t-109 -90.5t-49 -260.5z" glyph-name="e" horiz-adv-x="827" unicode="e"/><glyph d="M575 934v-80h-188v-711q0 -39 15.5 -51t43.5 -12h105v-80h-490v80h93q31 0 45 12t14 51v711h-152v80h152v80q0 205 85 312.5t200 107.5q82 0 138 -47.5t56 -123.5t-28.5 -111.5t-71.5 -35.5q-94 0 -94 96q0 27 16 56.5t16 52.5q0 37 -51 37q-100 0 -100 -217l8 -207h188z " glyph-name="f" horiz-adv-x="651" unicode="f"/><glyph d="M469 295q-70 0 -158 33q-33 -10 -55.5 -39t-22.5 -60q0 -72 101 -71h158q236 0 300 -88t64 -191q0 -102 -102.5 -177t-307.5 -75t-290.5 58.5t-85.5 128.5q0 139 168 180v8q-156 31 -156 166q0 76 43 122t125 85q-113 86 -113 256q0 135 84 233.5t220 98.5t212 -62 q100 127 185 127q131 0 131 -133q0 -113 -90 -113q-35 0 -54.5 22.5t-19.5 49.5l10 59q0 14 -18 15q-35 0 -86 -74q75 -84 75 -225t-87 -237.5t-230 -96.5zM328 625q0 -129 41 -189.5t102 -60.5q125 0 125 268q0 131 -41 185.5t-97 54.5t-93 -64.5t-37 -193.5zM213 -145 q0 -145 252 -146q145 0 203.5 48t58.5 106q0 115 -254 114q-102 0 -181 -30.5t-79 -91.5z" glyph-name="g" horiz-adv-x="968" unicode="g"/><glyph d="M61 1350v77l299 29v-567l-8 -105h8q72 178 252 179q143 0 193.5 -89.5t50.5 -238.5v-492q0 -56 19.5 -59.5t42.5 -3.5h63v-80h-406v80h46q20 0 30.5 2t20.5 16.5t10 44.5v488q0 231 -115 231q-66 0 -136.5 -86.5t-70.5 -238.5v-394q0 -31 10.5 -45t20.5 -16t31 -2h43v-80 h-404v80h64q23 0 42 4t19 59v1139q0 45 -14 56.5t-63 11.5h-48z" glyph-name="h" horiz-adv-x="1034" unicode="h"/><glyph d="M59 854v80l310 29v-820q0 -56 19.5 -59.5t39.5 -3.5h84v-80h-461v80h82q23 0 42.5 4t19.5 59v668q0 43 -76 43h-60zM369 1270q0 -51 -34 -87t-83 -36t-85 36t-36 87t36 87t85 36t83 -36t34 -87z" glyph-name="i" horiz-adv-x="563" unicode="i"/><glyph d="M43 854v82l328 27v-893q0 -211 -78 -327t-174 -116t-146.5 47.5t-50.5 105.5t33 90t72 32t66.5 -24.5t27.5 -56.5t-8.5 -52.5t-8.5 -30.5q0 -27 35 -27q59 0 60 166v932q0 20 -12.5 31.5t-24.5 12.5t-39 1h-80zM375 1270q0 -51 -34 -87t-83 -36t-85 36t-36 87t36 87 t85 36t83 -36t34 -87z" glyph-name="j" horiz-adv-x="528" unicode="j"/><glyph d="M565 80q43 0 43 44q0 20 -35 81l-139 231l-74 -96v-195q0 -43 13.5 -54t46.5 -11h29v-80h-388v80h64q23 0 42 4t19 59v1160q0 29 -16 37t-61 8h-48v79l299 29v-981h11l186 256q43 51 43 76q0 47 -76 47h-28v80h395v-80q-72 -6 -128 -45t-118 -117l-94 -121l217 -354 q47 -74 83 -103.5t93 -33.5v-80h-393v80h14z" glyph-name="k" horiz-adv-x="950" unicode="k"/><glyph d="M70 1348v79l299 29v-1313q0 -56 19.5 -59.5t39.5 -3.5h84v-80h-461v80h82q23 0 42.5 4t19.5 59v1160q0 29 -16.5 37t-59.5 8h-49z" glyph-name="l" horiz-adv-x="563" unicode="l"/><glyph d="M70 854v80l292 29v-170h11q81 170 249 170t203 -175h11q35 78 99 126.5t138 48.5q244 0 244 -299v-521q0 -56 19.5 -59.5t41.5 -3.5h64v-80h-385v80h30q20 0 39 3.5t19 59.5v488q0 109 -24.5 169t-92.5 60q-92 0 -139 -111.5t-47 -222.5v-383q0 -55 18.5 -59t40.5 -4h37 v-80h-365v80h35q20 0 30.5 2t21 16.5t10.5 44.5v488q0 178 -35 203.5t-78 25.5t-83 -39t-73.5 -124.5t-33.5 -172.5v-381q0 -55 20.5 -59t40.5 -4h29v-80h-387v80h63q23 0 42.5 4t19.5 59v664q0 39 -25 43t-51 4h-49z" glyph-name="m" horiz-adv-x="1495" unicode="m"/><glyph d="M70 854v80l295 29v-168h8q33 74 97.5 121t158.5 47t149.5 -50.5t70.5 -116t15 -161.5v-492q0 -55 19.5 -59t42.5 -4h63v-80h-405v80h45q20 0 30.5 2t20.5 16.5t10 44.5v488q0 231 -115 231q-63 0 -113 -61.5t-71.5 -134t-21.5 -129.5v-394q0 -55 20.5 -59t40.5 -4h43v-80 h-403v80h63q23 0 42.5 4t19.5 59v643q0 45 -14.5 56.5t-63.5 11.5h-47z" glyph-name="n" horiz-adv-x="1042" unicode="n"/><glyph d="M858 467q0 -80 -22.5 -163t-66.5 -159.5t-125 -125t-185.5 -48.5t-185 48.5t-125 125t-67 159.5t-22.5 163t22.5 163t67 159.5t125 125t185 48.5t185.5 -48.5t125 -125t66.5 -159.5t22.5 -163zM266 467q0 -414 192.5 -414t192.5 414t-192.5 414t-192.5 -414z" glyph-name="o" horiz-adv-x="917" unicode="o"/><glyph d="M569 963q168 0 259.5 -147.5t91.5 -356.5t-95.5 -348.5t-249.5 -139.5q-72 0 -134 36t-91 97h-12l12 -86v-241q0 -31 9.5 -45.5t18.5 -16.5t32 -2h88v-80h-447v80h66q23 0 41 4t18 60v1014q0 55 -18.5 59t-40.5 4h-62v80l295 29v-134q31 66 94.5 100t124.5 34zM348 442 q0 -178 56.5 -278.5t138.5 -100.5q170 0 170 408t-176 408q-45 0 -84 -31t-72 -129.5t-33 -276.5z" glyph-name="p" horiz-adv-x="978" unicode="p"/><glyph d="M801 934v-1157q0 -57 18.5 -60.5t38.5 -3.5h68v-80h-447v80h90q20 0 39 3.5t19 60.5v241l14 107h-8q-74 -154 -232 -154q-88 0 -156.5 45t-127 157.5t-58.5 311.5t94.5 338.5t259.5 139.5t238 -150l51 121h99zM631 466q0 182 -50.5 298.5t-133.5 116.5t-132 -97.5 t-49 -320.5q0 -399 168 -400q90 0 143.5 110.5t53.5 292.5z" glyph-name="q" horiz-adv-x="946" unicode="q"/><glyph d="M545 836q-51 0 -112.5 -135.5t-61.5 -239.5v-316q0 -45 11 -55t46 -10h84v-80h-440v80h63q23 0 42.5 4t19.5 59v666q0 45 -52 45h-75v82l297 27v-211h10q33 84 97.5 147.5t148.5 63.5t119.5 -42.5t35.5 -102.5t-32 -102t-84 -42t-78.5 28.5t-26.5 73.5l6 35q0 25 -18 25z " glyph-name="r" horiz-adv-x="802" unicode="r"/><glyph d="M676 934v-320h-84q-37 127 -89 195t-147 68q-61 0 -103 -37.5t-42 -97.5t35 -94t75.5 -48t107.5 -32t127 -40t113.5 -86.5t53.5 -171.5q0 -108 -42 -173.5t-104.5 -95.5t-148.5 -30q-143 0 -231 97l-35 -68h-90v338h96q66 -281 270 -281q162 0 162 150q0 70 -58 107.5 t-142 57.5t-124 36t-118 65t-78 211q0 117 74.5 198t198.5 81t214 -95l31 66h78z" glyph-name="s" horiz-adv-x="784" unicode="s"/><glyph d="M10 854v80q236 0 236 389v37h102v-426h232v-80h-232v-606q0 -78 17.5 -118t70.5 -40q96 0 96 264v49h91v-49q0 -383 -228 -383q-221 0 -221 299v584h-164z" glyph-name="t" horiz-adv-x="684" unicode="t"/><glyph d="M53 854v80l299 29v-660q0 -231 115 -231q66 0 136.5 86.5t70.5 238.5v412q0 29 -16.5 37t-59.5 8h-49v80l299 29v-816q0 -45 14.5 -56t63.5 -11h47v-80h-291v150h-8q-72 -178 -252 -179q-143 0 -193.5 89.5t-50.5 238.5v510q0 29 -16.5 37t-59.5 8h-49z" glyph-name="u" horiz-adv-x="1038" unicode="u"/><glyph d="M569 854h-18v80h352v-80q-61 -4 -97 -42t-65 -124l-245 -717h-105l-278 777q-20 61 -44 83.5t-77 22.5h-25v80h414v-80h-31q-59 0 -59 -41q0 -23 10 -49l174 -522h10l148 444q23 68 22 105q0 63 -86 63z" glyph-name="v" horiz-adv-x="899" unicode="v"/><glyph d="M432 854v80h344v-80h-31q-41 0 -40 -37q0 -12 8 -41l135 -477h12l115 432q8 31 8 62q0 61 -57 61h-41v80h319v-80h-8q-51 0 -72.5 -28.5t-46.5 -118.5l-203 -736h-104l-170 564h-10l-176 -564h-103l-213 748q-14 49 -22 70.5t-28.5 43t-53.5 21.5h-27v80h367v-80h-25 q-41 0 -41 -35l11 -49l131 -473h10l127 414l-21 73q-6 20 -11 32.5t-26.5 25t-56.5 12.5z" glyph-name="w" horiz-adv-x="1200" unicode="w"/><glyph d="M20 854v80h398v-80h-19q-55 0 -55 -39q0 -16 21 -51l114 -189l96 148q41 57 41 88q0 43 -55 43h-22v80h309v-80q-78 -2 -133 -86l-176 -258l204 -313q25 -37 57.5 -77t92.5 -40h18v-80h-430v80h27q68 0 67 43q0 27 -16 43l-133 211l-131 -187q-25 -33 -25 -65 q0 -45 72 -45h25v-80h-347v80q47 0 82 26.5t88 98.5l177 248l-215 327q-23 37 -46.5 55.5t-68.5 18.5h-17z" glyph-name="x" horiz-adv-x="923" unicode="x"/><glyph d="M-6 854v80h409v-80h-38q-57 0 -58 -47q0 -14 17 -59l174 -506h10l147 454q18 55 19 101q0 57 -90 57h-31v80h340v-80h-16q-61 0 -97 -96l-317 -914q-76 -217 -230 -217q-80 0 -119.5 47.5t-39.5 99.5t27.5 83.5t69.5 31.5t67.5 -23.5t25.5 -51.5t-9 -49t-9 -27 q0 -20 24 -20t54 49t43 92l39 125l-287 786q-18 51 -37 67.5t-57 16.5h-31z" glyph-name="y" horiz-adv-x="888" unicode="y"/><glyph d="M106 586v348h660v-16l-463 -838h129q125 0 175 61.5t52 204.5h91v-346h-678v18l458 836h-88q-141 0 -185 -53t-60 -215h-91z" glyph-name="z" horiz-adv-x="862" unicode="z"/><glyph d="M219 190q0 311 -158 326v80q158 14 158 324v184q1 373 316 412l10 -58q-133 -31 -133 -198l10 -269q0 -152 -57.5 -255t-176.5 -181q233 -141 234 -434l-10 -268q0 -84 36.5 -135.5t96.5 -61.5l-10 -59q-170 20 -244 120.5t-74 221.5v6l1 41z" glyph-name="braceleft" horiz-adv-x="606" unicode="{"/><glyph d="M102 -459v2157h109v-2157h-109z" glyph-name="bar" horiz-adv-x="313" unicode="|"/><glyph d="M387 1104v-184q0 -309 158 -324v-80q-158 -14 -158 -326v-28l1 -86l1 -137q0 -121 -73.5 -221.5t-243.5 -120.5l-11 59q59 10 96.5 61.5t37.5 135.5l-11 268q0 293 234 434q-119 78 -176.5 181.5t-57.5 254.5l11 269q-1 167 -134 198l11 58q315 -39 315 -412z" glyph-name="braceright" horiz-adv-x="606" unicode="}"/><glyph d="M349 731q79 0 199 -47t152 -47q53 0 69.5 17.5t51.5 76.5h80q-94 -229 -235 -229q-66 0 -179 41q-139 55 -181 55q-75 0 -124 -92h-80q29 92 98.5 158.5t148.5 66.5z" glyph-name="asciitilde" horiz-adv-x="1003" unicode="~"/><glyph glyph-name="uni00A0" horiz-adv-x="477" unicode=" "/><glyph d="M422 138q0 -80 -45 -123.5t-105 -43.5t-104.5 43t-44.5 124t23.5 197t25.5 126q37 264 41 295l29 282h61l29 -282q4 -31 41 -295q2 -10 25.5 -126.5t23.5 -196.5zM416 1268q0 -64 -43 -110t-101 -46t-100.5 46t-42.5 110t43 108.5t101 44.5t100.5 -44.5t42.5 -108.5z" glyph-name="exclamdown" horiz-adv-x="544" unicode="¡"/><glyph d="M143 499q0 214 116 343t269 129q10 0 39 -4l27 211l80 -13l-27 -217q43 -16 92 -55l29 55h61l15 -340h-78q-28 172 -61 208t-68 56l-98 -813q104 8 161.5 85t73.5 180h88q-4 -109 -94 -228t-240 -121l-28 -231l-80 8l26 230q-139 27 -221 165t-82 352zM532 893 q-86 0 -134 -122t-48 -299t29 -262t80 -126l100 809h-27z" glyph-name="cent" unicode="¢"/><glyph d="M483 1104q0 -9 35 -324h363v-88h-355q8 -117 9 -162q0 -147 -72 -297h-2q27 -12 78 -35.5t106.5 -48t114.5 -24.5q90 0 140 68.5t83 193.5l78 -20q-47 -177 -95 -256.5t-103.5 -109.5t-129.5 -30q-106 0 -319 144q-45 -66 -115 -105t-145 -39q-25 0 -52.5 5.5t-64.5 41 t-37 108.5t60.5 120t142.5 47t137 -19q14 52 14 182t-22 236h-281v88h266q-25 182 -24 262q0 174 103.5 276.5t217.5 102.5t176 -61.5t62 -135.5t-31 -114.5t-83 -40.5t-82.5 32t-30.5 80t23.5 75.5t23.5 39.5t-16.5 25.5t-45.5 13.5q-63 0 -95 -67.5t-32 -163.5zM117 113 q0 -25 16.5 -43.5t42.5 -18.5q66 0 137 127q-55 29 -102 29q-94 0 -94 -94z" glyph-name="sterling" unicode="£"/><glyph d="M31 700.5q0 155.5 90 278.5l-189 186l111 111l184 -186q117 94 280 94t288 -94l186 186l111 -111l-187 -186q88 -121 88 -278.5t-88 -278.5l187 -186l-111 -111l-186 186q-125 -94 -288 -94t-280 94l-184 -186l-111 111l189 186q-90 123 -90 278.5zM158 700.5 q0 -147.5 104.5 -254t252 -106.5t250.5 106.5t103 254t-103 254t-250.5 106.5t-252 -106.5t-104.5 -254z" glyph-name="currency" unicode="¤"/><glyph d="M715 1309h-21v84h410v-84h-19q-74 0 -112.5 -29t-75.5 -111l-248 -561v-110h250v-70h-250v-115h250v-69h-250v-103q0 -25 13.5 -41t33.5 -16h131v-84h-565v84h129q20 0 33.5 16.5t13.5 40.5v103h-245v69h245v115h-245v70h245v108l-329 598q-33 59 -65 82t-87 23h-37v84 h524v-84h-49q-63 0 -63 -54q0 -20 18 -53l244 -467l182 426q16 37 17 70q0 78 -78 78z" glyph-name="yen" unicode="¥"/><glyph d="M102 883v719h109v-719h-109zM102 -432v719h109v-719h-109z" glyph-name="brokenbar" horiz-adv-x="313" unicode="¦"/><glyph d="M197 1126q0 114 99.5 204.5t233.5 90.5t232 -63.5t98 -177.5q0 -72 -32 -111t-84 -39t-85.5 23.5t-33.5 68.5t24.5 82.5t24.5 59.5t-28 43.5t-92 21.5t-126.5 -45.5t-62.5 -117.5t32.5 -125.5t72.5 -86t111 -85.5t91 -71t48 -41.5t41 -36.5t41.5 -43.5t64.5 -91 t36 -134.5q0 -131 -170 -306q45 -57 64.5 -102t19.5 -109q0 -123 -112.5 -215t-256.5 -92t-245 79t-101 171q0 61 38 103.5t96 42.5t93.5 -39t35.5 -80t-28 -66.5t-28 -54.5q-1 -63 113 -63t173.5 53t59.5 121t-46 124t-149.5 138t-122.5 100t-60 55t-44 40l-77 77 q-74 74 -74 166t46 168t130 164q-61 86 -61 200zM227 706q0 -78 64.5 -155.5t202 -187t184.5 -154.5q76 72 76 137.5t-48.5 137t-99.5 118.5t-144 122t-155 132q-80 -72 -80 -150z" glyph-name="section" horiz-adv-x="985" unicode="§"/><glyph d="M483 1250q0 -48 -32.5 -82.5t-78.5 -34.5t-81 34.5t-35 82.5t35 83t81 35t78.5 -35t32.5 -83zM801 1250q0 -48 -33 -82.5t-80 -34.5t-81 34.5t-34 82.5t34 83t81 35t80 -35t33 -83z" glyph-name="dieresis" horiz-adv-x="1056" unicode="¨"/><glyph d="M508 696q0 151 82 255t225 104q90 0 160 -45q6 10 18 34h70l16 -266h-82q-10 84 -50 149.5t-124 65.5q-160 0 -159 -291q0 -172 53 -245.5t122 -73.5t115 60.5t54 146.5l79 -2q-29 -271 -262 -271q-154 0 -235.5 114t-81.5 265zM102 695q0 302 212 514t512 212t513 -213 t213 -513t-212 -512t-514 -212t-513 211t-211 513zM186 696.5q0 -268.5 186.5 -455t455 -186.5t454.5 186.5t186 455t-186 454.5t-454.5 186t-455 -186t-186.5 -454.5z" glyph-name="copyright" horiz-adv-x="1654" unicode="©"/><glyph d="M238 1330q0 -22 2 -60t-26 -55t-56.5 -17t-52 18.5t-23.5 57.5q0 72 68.5 125t185.5 53q225 0 225 -184v-398q0 -39 8 -39q21 1 66 56l37 -43q-33 -37 -50.5 -55.5t-53.5 -39t-68 -20.5t-59 22.5t-35 61.5q-96 -84 -178 -84t-125.5 51t-43.5 131t69 138.5t275 140.5v84 q0 123 -94 123q-31 0 -51 -22.5t-20 -44.5zM37 657h610v-82h-610v82zM403 897v225q-63 -27 -97 -45t-63.5 -56t-29.5 -87t19.5 -80t58.5 -31t117 74h-5z" glyph-name="ordfeminine" horiz-adv-x="655" unicode="ª"/><glyph d="M684 66l-68 -48l-401 439l401 438l68 -47l-227 -391zM864 186l-69 -45l-242 318l242 317l69 -45l-139 -274z" glyph-name="guillemotleft" horiz-adv-x="1079" unicode="«"/><glyph d="M102 610h1004v-307h-113v205h-891v102z" glyph-name="logicalnot" horiz-adv-x="1239" unicode="¬"/><glyph d="M102 547v149h506v-149h-506z" glyph-name="uni00AD" horiz-adv-x="710" unicode="­"/><glyph d="M483 1042h348q90 0 153 -20.5t96.5 -62t33.5 -95.5q0 -131 -186 -176q66 -27 90 -90t28.5 -112.5t24.5 -51.5q25 0 25 66v24h80v-30q0 -164 -144 -164q-123 0 -141 205q-10 86 -36 112.5t-75 26.5h-57v-242q0 -20 20 -20h80v-66h-340v66h76q25 0 25 20v526q0 23 -9 23 h-92v61zM723 737h70q31 0 60.5 5.5t63 37t33.5 78.5t-30.5 85t-98.5 38h-78q-20 0 -20 -14v-230zM102 695q0 302 212 514t512 212t513 -213t213 -513t-212 -512t-514 -212t-513 211t-211 513zM186 696.5q0 -268.5 186.5 -455t455 -186.5t454.5 186.5t186 455t-186 454.5 t-454.5 186t-455 -186t-186.5 -454.5z" glyph-name="registered" horiz-adv-x="1654" unicode="®"/><glyph d="M256 1190v102h578v-102h-578z" glyph-name="macron" horiz-adv-x="1089" unicode="¯"/><glyph d="M49 1325q0 84 61.5 137.5t133 53.5t133 -53.5t61.5 -137.5t-56 -140.5t-138 -56.5t-138.5 56.5t-56.5 140.5zM125 1323q0 -57 37 -88t82 -31t81.5 31t36.5 88t-36.5 88t-81.5 31t-82 -31t-37 -88z" glyph-name="degree" horiz-adv-x="487" unicode="°"/><glyph d="M123 698h465v410h92v-410h467v-92h-467v-287h-92v287h-465v92zM123 205h1026v-92h-1026v92z" glyph-name="plusminus" horiz-adv-x="1271" unicode="±"/><glyph d="M485 924h76v-250h-479v53q48 138 183.5 261t148 174.5t12.5 105.5t-29.5 89.5t-76.5 35.5t-80 -33t-33 -60q0 -6 12 -6q61 -14 62 -71q0 -33 -20.5 -57.5t-60.5 -24.5t-65.5 27.5t-25.5 76.5q0 80 65.5 146.5t164.5 66.5t167.5 -52t68.5 -161q0 -66 -28.5 -119 t-60.5 -80.5t-92 -71.5t-117.5 -101.5t-67.5 -90.5h180q72 0 84 37t12 78v27z" glyph-name="uni00B2" horiz-adv-x="657" unicode="²"/><glyph d="M209 1055v55h35q48 0 112 27t64 129q0 53 -24.5 85.5t-43 38t-45.5 5.5t-53.5 -17.5t-32.5 -34.5q51 -23 51 -81q0 -20 -20 -42t-56 -22t-63 21.5t-27 56.5q0 78 63.5 130t164.5 52t164 -61t63 -129q0 -133 -143 -183q67 -13 112 -62.5t45 -138.5t-77.5 -149.5 t-181.5 -60.5t-169 55t-65 117t27.5 96.5t66.5 34.5t65.5 -23.5t26.5 -66.5t-53 -58q-4 0 -12 -6t-8 -12q0 -23 34.5 -48.5t77.5 -25.5t78 39.5t35 105.5q0 122 -54.5 147.5t-113.5 25.5h-43z" glyph-name="uni00B3" horiz-adv-x="657" unicode="³"/><glyph d="M641 1417q16 0 21 -20v-8q-6 -29 -161 -162t-214 -133q-31 0 -31 30q0 18 22 49q96 138 132 244h231z" glyph-name="acute" horiz-adv-x="917" unicode="´"/><glyph d="M465 -29q-68 0 -105.5 21.5t-70.5 77.5l-10 -2q8 -51 35.5 -176t27.5 -164t-35 -70t-81 -31t-76.5 30t-30.5 70q-1 39 29 207t30 373v500q0 31 -14 39t-47 8h-64v80l297 29v-637q0 -135 32 -194.5t104 -59.5t129 99t57 226v410q0 31 -15.5 39t-54.5 8h-53v80l299 29v-818 q0 -39 12 -52t47 -13h66v-80h-295l4 123h-12q-70 -152 -205 -152z" glyph-name="uni00B5" horiz-adv-x="1038" unicode="µ"/><glyph d="M414 -401v1118q-156 4 -244 113.5t-88 245.5t90 247t242 111h133v-1835h-133zM676 -401v1835h133v-1835h-133z" glyph-name="paragraph" horiz-adv-x="931" unicode="¶"/><glyph d="M113 719q0 57 42 100t100 43t101 -42t43 -101.5t-43 -101.5t-101 -42t-100 43.5t-42 100.5z" glyph-name="periodcentered" horiz-adv-x="512" unicode="·"/><glyph d="M330 -96q52 0 98.5 -38t46.5 -115t-58.5 -127t-154.5 -50t-160 18l21 58q51 -10 93 -10t78 22.5t43 42t7 39.5q0 88 -98 88q-14 0 -80 -10l51 178h80l-29 -98q10 2 62 2z" glyph-name="cedilla" horiz-adv-x="577" unicode="¸"/><glyph d="M367 1454v-688q0 -27 30 -27h103v-65h-414v65h98q35 0 35 27v512q0 27 -16 27h-121v63q141 6 211 86h74z" glyph-name="uni00B9" horiz-adv-x="581" unicode="¹"/><glyph d="M368 733q-126 0 -225.5 92.5t-99.5 254.5t94.5 267t236.5 105t233 -101t91 -263t-102 -258.5t-228 -96.5zM221 1102q0 -113 46 -206t124 -93q133 0 133 289q0 138 -58 215t-120 77q-125 1 -125 -282zM74 657h610v-82h-610v82z" glyph-name="ordmasculine" horiz-adv-x="741" unicode="º"/><glyph d="M393 848l66 47l405 -438l-405 -439l-66 48l228 391zM215 727l68 45l241 -317l-241 -318l-68 45l137 275z" glyph-name="guillemotright" horiz-adv-x="1079" unicode="»"/><glyph d="M1122 258v-65h-104v-103q0 -25 8 -24h96v-66h-354v66h90q12 0 12 24v103h-272v59l352 526h68v-520h104zM262 0h-115l912 1434h117zM369 1454v-688q0 -27 30 -27h101v-65h-414v65h100q35 0 35 27v512q0 27 -18 27h-121v63q141 6 217 86h70zM870 258v272l-184 -272h184z " glyph-name="onequarter" horiz-adv-x="1257" unicode="¼"/><glyph d="M1141 250h78v-250h-482v53q34 106 109.5 181.5t125.5 122t80.5 87.5t30.5 124q0 82 -30.5 116.5t-77.5 34.5t-80 -33t-33 -59q0 -6 12 -6q61 -14 62 -72q0 -33 -20.5 -57.5t-60.5 -24.5t-64.5 27.5t-24.5 76.5q0 82 64 147.5t164 65.5t168.5 -52t68.5 -161 q0 -66 -28.5 -119t-60.5 -80.5t-88 -68.5t-115 -99t-77 -95h185q72 0 83 36.5t11 77.5v27zM262 0h-115l912 1434h160zM369 1454v-688q0 -27 30 -27h101v-65h-414v65h100q35 0 35 27v512q0 27 -18 27h-121v63q141 6 217 86h70z" glyph-name="onehalf" horiz-adv-x="1312" unicode="½"/><glyph d="M1151 258v-65h-107v-103q0 -25 9 -24h98v-66h-354v66h92q8 0 8 24v103h-270v59l354 526h63v-520h107zM211 1055v55h33q111 0 144.5 52t33.5 104t-24.5 85t-44 38.5t-45.5 5.5t-53.5 -17.5t-33.5 -34.5q53 -23 53 -81q0 -20 -19 -42t-57 -22t-65 21.5t-27 56.5 q0 78 66 130t166 52t162.5 -60.5t62.5 -127.5t-39 -114.5t-102 -70.5q65 -15 109 -63.5t44 -137.5t-76.5 -149.5t-180.5 -60.5t-170 56t-66 117.5t27.5 95.5t67.5 34t66.5 -23.5t26.5 -67.5t-53 -57q-6 0 -13 -6t-7 -12q0 -23 35.5 -48.5t78.5 -25.5t77 39.5t34 105.5 q0 123 -56 148t-112 25h-43zM293 0h-117l914 1434h114zM897 258v272l-184 -272h184z" glyph-name="threequarters" horiz-adv-x="1286" unicode="¾"/><glyph d="M512 1036h82v-26q0 -152 -25.5 -241t-74 -160.5t-54.5 -84t-23.5 -46.5t-29.5 -81t-12 -127t42 -148.5t128 -68.5q59 0 113.5 32t54.5 66t-15.5 49t-34 17t-34 26.5t-15.5 74.5t36 82t83 32t91 -38t44 -140t-95 -192.5t-257 -90.5t-267.5 101.5t-105.5 246.5 q0 104 61.5 186t125.5 146q98 111 140 185.5t42 171.5v28zM403 1268q0 64 41.5 108.5t101.5 44.5t100 -45t40 -109t-41 -109.5t-100 -45.5t-100.5 46t-41.5 110z" glyph-name="questiondown" horiz-adv-x="929" unicode="¿"/><glyph d="M831 84q103 0 103 56q0 27 -6 42l-92 256h-443l-53 -162q-25 -74 -25 -114q0 -78 121 -78h49v-84h-485v84h20q135 0 189 156l414 1181h96l418 -1175q33 -92 73.5 -127t132.5 -35v-84h-569v84h57zM422 526h383l-184 547h-9zM406 1769h294q88 -123 160 -184q31 -27 31 -47 q0 -29 -43 -29q-66 0 -316 138q-104 57 -125.5 72.5t-21.5 31.5q1 18 21 18z" glyph-name="Agrave" horiz-adv-x="1343" unicode="À"/><glyph d="M831 84q103 0 103 56q0 27 -6 42l-92 256h-443l-53 -162q-25 -74 -25 -114q0 -78 121 -78h49v-84h-485v84h20q135 0 189 156l414 1181h96l418 -1175q33 -92 73.5 -127t132.5 -35v-84h-569v84h57zM422 526h383l-184 547h-9zM942 1767q8 0 21 -12v-6q-4 -18 -29 -36.5 t-123 -67.5q-244 -137 -313 -138q-41 0 -41 29q0 20 30 47q72 61 158 184h297z" glyph-name="Aacute" horiz-adv-x="1343" unicode="Á"/><glyph d="M831 84q103 0 103 56q0 27 -6 42l-92 256h-443l-53 -162q-25 -74 -25 -114q0 -78 121 -78h49v-84h-485v84h20q135 0 189 156l414 1181h96l418 -1175q33 -92 73.5 -127t132.5 -35v-84h-569v84h57zM422 526h383l-184 547h-9zM956 1501q-109 0 -286 121q-170 -121 -283 -121 q-43 0 -43 23q0 12 25 26h-2q5 4 27 19t46 39q57 47 129 141h203q167 -197 199 -197l4 -2h-2q25 -14 24 -26q0 -23 -41 -23z" glyph-name="Acircumflex" horiz-adv-x="1343" unicode="Â"/><glyph d="M831 84q103 0 103 56q0 27 -6 42l-92 256h-443l-53 -162q-25 -74 -25 -114q0 -78 121 -78h49v-84h-485v84h20q135 0 189 156l414 1181h96l418 -1175q33 -92 73.5 -127t132.5 -35v-84h-569v84h57zM422 526h383l-184 547h-9zM552 1737q70 0 179 -49q109 -50 134 -50 t42 17.5t43 81.5h94q-76 -236 -219 -236q-93 0 -239 77q-38 20 -86 19q-43 0 -84 -94h-94q27 104 93.5 169t136.5 65z" glyph-name="Atilde" horiz-adv-x="1343" unicode="Ã"/><glyph d="M831 84q103 0 103 56q0 27 -6 42l-92 256h-443l-53 -162q-25 -74 -25 -114q0 -78 121 -78h49v-84h-485v84h20q135 0 189 156l414 1181h96l418 -1175q33 -92 73.5 -127t132.5 -35v-84h-569v84h57zM422 526h383l-184 547h-9zM614 1621q0 -58 -37 -99t-93 -41t-96 41t-40 99 t40 99t95 41t93 -41t38 -99zM995 1621q0 -58 -37.5 -99t-93 -41t-95.5 41t-40 98t40 99t95.5 42t93 -41t37.5 -99z" glyph-name="Adieresis" horiz-adv-x="1343" unicode="Ä"/><glyph d="M831 84q103 0 103 56q0 27 -6 42l-92 256h-443l-53 -162q-25 -74 -25 -114q0 -78 121 -78h49v-84h-485v84h20q135 0 189 156l414 1181h96l418 -1175q33 -92 73.5 -127t132.5 -35v-84h-569v84h57zM422 526h383l-184 547h-9zM872 1691q0 -91 -62 -157t-150 -66t-147.5 64.5 t-59.5 157t59 156t148 63.5t150.5 -63.5t61.5 -154.5zM764 1688q0 53 -30 86.5t-74 33.5t-72.5 -33.5t-28.5 -85.5t32.5 -86t70.5 -34t70 33t32 86z" glyph-name="Aring" horiz-adv-x="1343" unicode="Å"/><glyph d="M1745 905h-96q-25 225 -92.5 314.5t-215.5 89.5h-145q-84 0 -84 -64v-500h109q80 0 107.5 48.5t27.5 171.5v49h96v-629h-96v41q0 168 -43 200.5t-88 32.5h-113v-514q0 -61 84 -61h178q72 0 144.5 41.5t101.5 149.5t29 210v37h96v-522h-1026v84h98q82 0 82 61v269h-508 l-106 -199q-21 -41 -21 -63t24.5 -45t67.5 -23h127v-84h-565v84h41q53 0 101.5 28.5t67.5 52t32 46.5l502 905q34 56 34 108t-23.5 68.5t-74.5 16.5h-137v84h1284v-488zM899 502v782h-18l-439 -782h457z" glyph-name="AE" horiz-adv-x="1839" unicode="Æ"/><glyph d="M534 -377q52 0 88.5 22.5t44 43t7.5 43.5q0 92 -105 92q-23 0 -47 -5t-37 -5l47 163q-160 20 -315.5 185.5t-155.5 562.5q0 182 60.5 338t185.5 257t291 101q72 0 135.5 -22.5t88 -40t59.5 -47.5l43 82h90l26 -500h-96q-39 219 -115.5 325.5t-216.5 106.5t-227.5 -142.5 t-87.5 -451.5q0 -84 12.5 -194.5t36 -181t59 -139.5t97 -108.5t139.5 -39.5q263 -1 322 405h100q-70 -498 -449 -502l-18 -73q14 2 43 2q76 0 125 -40t49 -121t-62.5 -133t-160.5 -52t-168 18l16 59h8q36 -8 88 -8z" glyph-name="Ccedilla" horiz-adv-x="1124" unicode="Ç"/><glyph d="M1098 905h-97q-25 225 -92 314.5t-215 89.5h-145q-84 0 -84 -64v-500h108q80 0 108 48.5t28 171.5v49h96v-627h-96v41q0 168 -43 201t-88 33h-113v-517q0 -61 84 -61h178q72 0 173 58t101 343v37h97v-522h-1026v84h98q82 0 82 61v1100q0 63 -82 64h-98v84h1026v-488z M276 1769h295q88 -123 160 -184q31 -27 31 -47q0 -29 -43 -29q-66 0 -316 138q-104 57 -125.5 72.5t-21.5 32.5t20 17z" glyph-name="Egrave" horiz-adv-x="1191" unicode="È"/><glyph d="M1098 905h-97q-25 225 -92 314.5t-215 89.5h-145q-84 0 -84 -64v-500h108q80 0 108 48.5t28 171.5v49h96v-627h-96v41q0 168 -43 201t-88 33h-113v-517q0 -61 84 -61h178q72 0 173 58t101 343v37h97v-522h-1026v84h98q82 0 82 61v1100q0 63 -82 64h-98v84h1026v-488z M893 1767q8 0 20 -12v-6q-4 -18 -27.5 -36t-123.5 -68q-244 -137 -313 -138q-41 0 -41 29q0 20 30 47q72 61 158 184h297z" glyph-name="Eacute" horiz-adv-x="1191" unicode="É"/><glyph d="M1098 905h-97q-25 225 -92 314.5t-215 89.5h-145q-84 0 -84 -64v-500h108q80 0 108 48.5t28 171.5v49h96v-627h-96v41q0 168 -43 201t-88 33h-113v-517q0 -61 84 -61h178q72 0 173 58t101 343v37h97v-522h-1026v84h98q82 0 82 61v1100q0 63 -82 64h-98v84h1026v-488z M721 1749q167 -197 201 -197l2 -2h-2q25 -14 24 -26q0 -23 -41 -23q-109 0 -287 121q-170 -121 -282 -121q-43 0 -43 23q0 12 24 26h-2q4 4 27 19t47 39q57 47 129 141h203z" glyph-name="Ecircumflex" horiz-adv-x="1191" unicode="Ê"/><glyph d="M1098 905h-97q-25 225 -92 314.5t-215 89.5h-145q-84 0 -84 -64v-500h108q80 0 108 48.5t28 171.5v49h96v-627h-96v41q0 168 -43 201t-88 33h-113v-517q0 -61 84 -61h178q72 0 173 58t101 343v37h97v-522h-1026v84h98q82 0 82 61v1100q0 63 -82 64h-98v84h1026v-488z M563 1621q0 -58 -38 -99t-93 -41t-95 41t-40 99t40 99t95 41t93 -41t38 -99zM944 1621q0 -58 -38 -99t-93 -41t-95 41t-40 98t40 99t95 42t93 -41t38 -99z" glyph-name="Edieresis" horiz-adv-x="1191" unicode="Ë"/><glyph d="M72 0v84h98q82 0 82 61v1100q0 63 -82 64h-98v84h573v-84h-96q-84 0 -84 -64v-1100q0 -61 84 -61h96v-84h-573zM86 1769h295q88 -123 160 -184q31 -27 30 -47q0 -29 -43 -29q-66 0 -315 138q-104 57 -125.5 72.5t-21.5 32.5t20 17z" glyph-name="Igrave" horiz-adv-x="716" unicode="Ì"/><glyph d="M72 0v84h98q82 0 82 61v1100q0 63 -82 64h-98v84h573v-84h-96q-84 0 -84 -64v-1100q0 -61 84 -61h96v-84h-573zM625 1767q8 0 20 -12v-6q-4 -18 -30 -37t-121 -67q-244 -137 -314 -138q-41 0 -41 29q0 20 31 47q72 61 158 184h297z" glyph-name="Iacute" horiz-adv-x="716" unicode="Í"/><glyph d="M72 0v84h98q82 0 82 61v1100q0 63 -82 64h-98v84h573v-84h-96q-84 0 -84 -64v-1100q0 -61 84 -61h96v-84h-573zM463 1749q167 -197 201 -197l2 -2h-2q25 -14 24 -26q0 -23 -41 -23q-109 0 -287 121q-170 -121 -282 -121q-43 0 -43 23q0 12 24 26h-2q4 4 27 19t47 39 q57 47 129 141h203z" glyph-name="Icircumflex" horiz-adv-x="716" unicode="Î"/><glyph d="M72 0v84h98q82 0 82 61v1100q0 63 -82 64h-98v84h573v-84h-96q-84 0 -84 -64v-1100q0 -61 84 -61h96v-84h-573zM301 1621q0 -58 -38 -99t-93 -41t-95 41t-40 99t40 99t95 41t93 -41t38 -99zM682 1621q0 -58 -38 -99t-93 -41t-95 41t-40 98t40 99t95 42t93 -41t38 -99z " glyph-name="Idieresis" horiz-adv-x="716" unicode="Ï"/><glyph d="M72 690v88h180v467q0 63 -82 64h-98v84h532q72 0 136.5 -8.5t164 -48.5t169 -108.5t121.5 -206.5t52 -301t-29.5 -276.5t-73.5 -184.5t-133 -142t-199 -94t-200 -23h-540v84h98q82 0 82 61v545h-180zM465 1249v-471h231v-88h-231v-545q0 -61 84 -61h43q420 0 420 612 t-420 613h-55q-45 0 -58.5 -14.5t-13.5 -45.5z" glyph-name="Eth" horiz-adv-x="1308" unicode="Ð"/><glyph d="M1049 381v864q0 63 -86 64h-82v84h462v-84h-100q-84 0 -84 -64v-1274h-106l-678 1069h-10v-895q0 -61 84 -61h81v-84h-458v84h98q82 0 82 61v1100q0 63 -82 64h-98v84h321l643 -1012h13zM594 1737q70 0 178 -49q109 -50 134 -50t42 17.5t43 81.5h94q-76 -236 -219 -236 q-93 0 -239 77q-38 20 -86 19q-43 0 -84 -94h-95q27 104 94.5 169t137.5 65z" glyph-name="Ntilde" horiz-adv-x="1415" unicode="Ñ"/><glyph d="M613 1421q251 0 400.5 -207.5t149.5 -517t-149.5 -517.5t-400.5 -208t-401.5 208t-150.5 517.5t150.5 517t401.5 207.5zM613 59q134 0 224.5 157t90.5 478t-90 480t-223.5 159t-225.5 -158.5t-92 -480.5t91 -478.5t225 -156.5zM319 1769h295q88 -123 160 -184 q31 -27 31 -47q0 -29 -43 -29q-66 0 -316 138q-104 57 -125.5 72.5t-21.5 32.5t20 17z" glyph-name="Ograve" horiz-adv-x="1224" unicode="Ò"/><glyph d="M613 1421q251 0 400.5 -207.5t149.5 -517t-149.5 -517.5t-400.5 -208t-401.5 208t-150.5 517.5t150.5 517t401.5 207.5zM613 59q134 0 224.5 157t90.5 478t-90 480t-223.5 159t-225.5 -158.5t-92 -480.5t91 -478.5t225 -156.5zM889 1767q8 0 20 -12v-6q-4 -18 -30 -37 t-121 -67q-244 -137 -314 -138q-41 0 -41 29q0 20 31 47q72 61 158 184h297z" glyph-name="Oacute" horiz-adv-x="1224" unicode="Ó"/><glyph d="M613 1421q251 0 400.5 -207.5t149.5 -517t-149.5 -517.5t-400.5 -208t-401.5 208t-150.5 517.5t150.5 517t401.5 207.5zM613 59q134 0 224.5 157t90.5 478t-90 480t-223.5 159t-225.5 -158.5t-92 -480.5t91 -478.5t225 -156.5zM903 1501q-109 0 -287 121 q-170 -121 -282 -121q-43 0 -43 23q0 12 24 26h-2q4 4 27 19t47 39q57 47 129 141h203q167 -197 199 -197l4 -2h-2q25 -14 24 -26q0 -23 -41 -23z" glyph-name="Ocircumflex" horiz-adv-x="1224" unicode="Ô"/><glyph d="M613 1421q251 0 400.5 -207.5t149.5 -517t-149.5 -517.5t-400.5 -208t-401.5 208t-150.5 517.5t150.5 517t401.5 207.5zM613 59q134 0 224.5 157t90.5 478t-90 480t-223.5 159t-225.5 -158.5t-92 -480.5t91 -478.5t225 -156.5zM488 1737q70 0 178 -49q108 -50 134 -50 t41.5 17t43.5 82h94q-76 -236 -219 -236q-61 1 -131 29t-78 33q-68 35 -117 34q-43 0 -84 -94h-94q27 104 94.5 169t137.5 65z" glyph-name="Otilde" horiz-adv-x="1224" unicode="Õ"/><glyph d="M613 1421q251 0 400.5 -207.5t149.5 -517t-149.5 -517.5t-400.5 -208t-401.5 208t-150.5 517.5t150.5 517t401.5 207.5zM613 59q134 0 224.5 157t90.5 478t-90 480t-223.5 159t-225.5 -158.5t-92 -480.5t91 -478.5t225 -156.5zM559 1621q0 -58 -38 -99t-93 -41t-95 41 t-40 99t40 99t95 41t93 -41t38 -99zM940 1621q0 -58 -38 -99t-93 -41t-95 41t-40 98t40 99t95 42t93 -41t38 -99z" glyph-name="Odieresis" horiz-adv-x="1224" unicode="Ö"/><glyph d="M541 565l-355 -387l-63 68l354 385l-354 387l63 67l355 -387l356 387l59 -67l-354 -387l354 -385l-59 -68z" glyph-name="multiply" horiz-adv-x="1079" unicode="×"/><glyph d="M614 1421q166 0 287 -92l74 137l80 -45l-84 -153q193 -205 192 -572q0 -311 -146.5 -518t-402.5 -207q-168 0 -292 92l-84 -153l-76 45l90 170q-190 203 -191 571q0 311 147.5 518t405.5 207zM614.5 55q133.5 0 223.5 159t90 482q0 231 -54 391l-479 -886 q86 -146 219.5 -146zM297 696q0 -240 51 -393l479 889q-84 145 -215 145t-223 -161t-92 -480z" glyph-name="Oslash" horiz-adv-x="1320" unicode="Ø"/><glyph d="M37 1393h557v-84h-90q-39 0 -56.5 -19.5t-17.5 -66.5v-797q0 -213 72.5 -285.5t191.5 -72.5q293 0 293 389v657q0 127 -32.5 161t-120.5 34h-37v84h491v-84h-45q-78 0 -110.5 -35t-32.5 -160v-659q0 -178 -42 -253t-109 -153t-265 -78q-467 0 -467 490v760 q0 49 -16.5 68.5t-53.5 19.5h-110v84zM344 1769h295q88 -123 160 -184q31 -27 30 -47q0 -29 -43 -29q-66 0 -315 138q-104 57 -125.5 72.5t-21.5 32.5t20 17z" glyph-name="Ugrave" horiz-adv-x="1320" unicode="Ù"/><glyph d="M37 1393h557v-84h-90q-39 0 -56.5 -19.5t-17.5 -66.5v-797q0 -213 72.5 -285.5t191.5 -72.5q293 0 293 389v657q0 127 -32.5 161t-120.5 34h-37v84h491v-84h-45q-78 0 -110.5 -35t-32.5 -160v-659q0 -178 -42 -253t-109 -153t-265 -78q-467 0 -467 490v760 q0 49 -16.5 68.5t-53.5 19.5h-110v84zM969 1767q8 0 20 -12v-6q-4 -18 -30 -37t-121 -67q-244 -137 -314 -138q-41 0 -41 29q0 20 31 47q72 61 158 184h297z" glyph-name="Uacute" horiz-adv-x="1320" unicode="Ú"/><glyph d="M37 1393h557v-84h-90q-39 0 -56.5 -19.5t-17.5 -66.5v-797q0 -213 72.5 -285.5t191.5 -72.5q293 0 293 389v657q0 127 -32.5 161t-120.5 34h-37v84h491v-84h-45q-78 0 -110.5 -35t-32.5 -160v-659q0 -178 -42 -253t-109 -153t-265 -78q-467 0 -467 490v760 q0 49 -16.5 68.5t-53.5 19.5h-110v84zM952 1501q-109 0 -286 121q-170 -121 -283 -121q-43 0 -43 23q0 12 25 26h-3q4 4 27 19t47 39q57 47 129 141h203q167 -197 199 -197l4 -2h-2q25 -14 24 -26q0 -23 -41 -23z" glyph-name="Ucircumflex" horiz-adv-x="1320" unicode="Û"/><glyph d="M37 1393h557v-84h-90q-39 0 -56.5 -19.5t-17.5 -66.5v-797q0 -213 72.5 -285.5t191.5 -72.5q293 0 293 389v657q0 127 -32.5 161t-120.5 34h-37v84h491v-84h-45q-78 0 -110.5 -35t-32.5 -160v-659q0 -178 -42 -253t-109 -153t-265 -78q-467 0 -467 490v760 q0 49 -16.5 68.5t-53.5 19.5h-110v84zM623 1621q0 -58 -38 -99t-93 -41t-95.5 41t-40.5 99t40 99t96 41t93.5 -41t37.5 -99zM1004 1621q0 -58 -38 -99t-93.5 -41t-95.5 41t-40 98t40 99t95.5 42t93.5 -41t38 -99z" glyph-name="Udieresis" horiz-adv-x="1320" unicode="Ü"/><glyph d="M905 1231q0 78 -78 78h-20v84h410v-84h-19q-72 0 -110.5 -29t-77.5 -111l-269 -561v-467q0 -25 13.5 -41t33.5 -16h132v-84h-566v84h129q20 0 33.5 16.5t13.5 40.5v465l-350 598q-35 59 -66.5 82t-84.5 23h-37v84h524v-84h-49q-63 0 -64 -54q0 -20 19 -53l264 -467 l203 426q16 37 16 70zM942 1767q8 0 21 -12v-6q-4 -18 -29 -36.5t-123 -67.5q-244 -137 -313 -138q-41 0 -41 29q0 20 30 47q72 61 158 184h297z" glyph-name="Yacute" horiz-adv-x="1210" unicode="Ý"/><glyph d="M72 0v84h137q43 0 43 57v1110q0 29 -13.5 43.5t-54.5 14.5h-112v84h575v-84h-110q-74 0 -74 -58v-82h160q236 0 338 -128t102 -310t-63.5 -280.5t-154.5 -139.5t-222 -41h-160v-129q0 -57 47 -57h137v-84h-575zM463 1087v-735h51q53 0 87 3t131 44.5t97 319.5 q0 240 -70.5 293t-121.5 64t-131 11h-43z" glyph-name="Thorn" horiz-adv-x="1116" unicode="Þ"/><glyph d="M721 1180q0 156 -125 155q-119 0 -175 -117.5t-56 -308.5v-909h-299v80h59q39 0 52 10t13 55v715q0 227 117 394t324 167q129 0 198.5 -59t69.5 -171t-73.5 -195t-182.5 -113v-11q114 -21 217 -106.5t103 -290.5q0 -272 -109 -388t-210 -116t-145 51.5t-44 117t28.5 93 t64.5 27.5t61.5 -23.5t25.5 -56.5t-21.5 -63.5t-21.5 -42.5q0 -31 42 -31t68.5 23.5t49 103.5t22.5 209q0 444 -250 444q-27 0 -41 -2v80q102 4 170 86t68 193z" glyph-name="germandbls" horiz-adv-x="1050" unicode="ß"/><glyph d="M707 -29q-143 0 -154 156h-6q-94 -156 -252 -156q-129 0 -181.5 64.5t-52.5 146.5q0 157 116 249.5t366 156.5v100q0 199 -156 199q-51 0 -98 -31t-47 -68q0 -18 23.5 -28t47 -29.5t23.5 -61.5t-30 -68t-75 -26t-79.5 32t-34.5 93q0 96 75.5 179.5t223.5 83.5 q301 0 301 -324v-473q0 -102 53 -103q20 0 29.5 9.5t20 25t16.5 23.5l51 -45q-49 -59 -86 -82t-94 -23zM543 322v190q-283 -68 -283 -297q0 -49 26.5 -91t86.5 -42t115 71t55 169zM195 1417h233q23 -76 74 -157q0 -9 9 -19t18 -24.5t29 -46.5t20 -46q0 -31 -31 -30 q-55 0 -217 135q-152 131 -158 160v8q5 20 23 20z" glyph-name="agrave" horiz-adv-x="886" unicode="à"/><glyph d="M707 -29q-143 0 -154 156h-6q-94 -156 -252 -156q-129 0 -181.5 64.5t-52.5 146.5q0 157 116 249.5t366 156.5v100q0 199 -156 199q-51 0 -98 -31t-47 -68q0 -18 23.5 -28t47 -29.5t23.5 -61.5t-30 -68t-75 -26t-79.5 32t-34.5 93q0 96 75.5 179.5t223.5 83.5 q301 0 301 -324v-473q0 -102 53 -103q20 0 29.5 9.5t20 25t16.5 23.5l51 -45q-49 -59 -86 -82t-94 -23zM543 322v190q-283 -68 -283 -297q0 -49 26.5 -91t86.5 -42t115 71t55 169zM641 1417q16 0 21 -20v-8q-6 -29 -161 -162t-214 -133q-31 0 -31 30q0 18 22 49 q96 138 132 244h231z" glyph-name="aacute" horiz-adv-x="886" unicode="á"/><glyph d="M707 -29q-143 0 -154 156h-6q-94 -156 -252 -156q-129 0 -181.5 64.5t-52.5 146.5q0 157 116 249.5t366 156.5v100q0 199 -156 199q-51 0 -98 -31t-47 -68q0 -18 23.5 -28t47 -29.5t23.5 -61.5t-30 -68t-75 -26t-79.5 32t-34.5 93q0 96 75.5 179.5t223.5 83.5 q301 0 301 -324v-473q0 -102 53 -103q20 0 29.5 9.5t20 25t16.5 23.5l51 -45q-49 -59 -86 -82t-94 -23zM543 322v190q-283 -68 -283 -297q0 -49 26.5 -91t86.5 -42t115 71t55 169zM170 1094q-33 0 -33 26q0 34 83 138t110 192h180q23 -88 107 -190t83 -140q0 -27 -32 -26 q-61 0 -250 190q-186 -190 -248 -190z" glyph-name="acircumflex" horiz-adv-x="886" unicode="â"/><glyph d="M707 -29q-143 0 -154 156h-6q-94 -156 -252 -156q-129 0 -181.5 64.5t-52.5 146.5q0 157 116 249.5t366 156.5v100q0 199 -156 199q-51 0 -98 -31t-47 -68q0 -18 23.5 -28t47 -29.5t23.5 -61.5t-30 -68t-75 -26t-79.5 32t-34.5 93q0 96 75.5 179.5t223.5 83.5 q301 0 301 -324v-473q0 -102 53 -103q20 0 29.5 9.5t20 25t16.5 23.5l51 -45q-49 -59 -86 -82t-94 -23zM543 322v190q-283 -68 -283 -297q0 -49 26.5 -91t86.5 -42t115 71t55 169zM269 1212q-38 0 -79 -73h-81q23 92 75 149.5t109 57.5t158 -37q8 -2 70 -33t85 -2t37 53h-2 l8 14h80q-55 -207 -174 -206q-63 1 -155 39t-131 38z" glyph-name="atilde" horiz-adv-x="886" unicode="ã"/><glyph d="M707 -29q-143 0 -154 156h-6q-94 -156 -252 -156q-129 0 -181.5 64.5t-52.5 146.5q0 157 116 249.5t366 156.5v100q0 199 -156 199q-51 0 -98 -31t-47 -68q0 -18 23.5 -28t47 -29.5t23.5 -61.5t-30 -68t-75 -26t-79.5 32t-34.5 93q0 96 75.5 179.5t223.5 83.5 q301 0 301 -324v-473q0 -102 53 -103q20 0 29.5 9.5t20 25t16.5 23.5l51 -45q-49 -59 -86 -82t-94 -23zM543 322v190q-283 -68 -283 -297q0 -49 26.5 -91t86.5 -42t115 71t55 169zM367 1250q0 -48 -33 -82.5t-79 -34.5t-81 34.5t-35 82.5t35 83t81 35t79 -35t33 -83z M684 1250q0 -48 -33 -82.5t-80 -34.5t-80.5 34.5t-33.5 82.5t33.5 83t80.5 35t80 -35t33 -83z" glyph-name="adieresis" horiz-adv-x="886" unicode="ä"/><glyph d="M707 -29q-143 0 -154 156h-6q-94 -156 -252 -156q-129 0 -181.5 64.5t-52.5 146.5q0 157 116 249.5t366 156.5v100q0 199 -156 199q-51 0 -98 -31t-47 -68q0 -18 23.5 -28t47 -29.5t23.5 -61.5t-30 -68t-75 -26t-79.5 32t-34.5 93q0 96 75.5 179.5t223.5 83.5 q301 0 301 -324v-473q0 -102 53 -103q20 0 29.5 9.5t20 25t16.5 23.5l51 -45q-49 -59 -86 -82t-94 -23zM543 322v190q-283 -68 -283 -297q0 -49 26.5 -91t86.5 -42t115 71t55 169zM612 1296q0 -90 -62.5 -154.5t-151.5 -64.5t-149.5 64.5t-60.5 154.5t60.5 153.5t149.5 63.5 t151.5 -63.5t62.5 -153.5zM502 1293q0 54 -29 90t-74 36t-73.5 -35.5t-28.5 -89.5t32.5 -88.5t70.5 -34.5t70 34t32 88z" glyph-name="aring" horiz-adv-x="886" unicode="å"/><glyph d="M885 -29q-92 0 -174 45t-119 123q-104 -168 -297 -168q-129 0 -181.5 64.5t-52.5 146.5q0 157 116 249.5t366 156.5v100q0 199 -156 199q-51 0 -98 -31t-47 -68q0 -18 23.5 -28t47 -29.5t23.5 -61.5t-30 -68t-75 -26t-79.5 32t-34.5 93q0 96 75.5 179.5t235.5 83.5 t221 -101q100 100 223 101q162 0 254.5 -127t92.5 -297v-88h-502q0 -385 192 -385q147 -1 217 196l78 -33q-92 -258 -319 -258zM543 322v190q-283 -68 -283 -297q0 -49 26.5 -91t86.5 -42t115 71t55 169zM717 530h272q31 0 31 41v47q0 133 -44 198t-104 65t-107.5 -90.5 t-47.5 -260.5z" glyph-name="ae" horiz-adv-x="1277" unicode="æ"/><glyph d="M480 -96q52 0 98.5 -38t46.5 -115t-58.5 -127t-154.5 -50t-160 18l20 58q51 -10 93 -10t78 22.5t43.5 42t7.5 39.5q0 88 -99 88q-14 0 -80 -10l45 160q-135 31 -218 168.5t-83 331.5t105.5 337.5t275.5 143.5q137 0 213 -78t76 -166q0 -51 -26.5 -89t-84.5 -38t-80 31.5 t-22 68.5t22.5 66.5t22.5 49.5t-31.5 48.5t-74.5 28.5q-189 0 -189 -410t191 -409q162 0 215 233l82 -25q-86 -299 -316 -303l-20 -69q10 2 62 2z" glyph-name="ccedilla" horiz-adv-x="794" unicode="ç"/><glyph d="M434 -29q-154 0 -264.5 137.5t-110.5 354.5t107.5 358.5t262.5 141.5t247 -127t92 -297v-88h-504q0 -385 195 -385q147 -1 217 196l78 -33q-92 -258 -320 -258zM264 530h275q31 0 30 41v47q0 135 -43.5 199t-103.5 64t-109 -90.5t-49 -260.5zM219 1417h234 q23 -76 73 -157q0 -8 10 -18t18 -25t28 -47t20 -46q0 -31 -31 -30q-55 0 -217 135q-152 131 -157 160v8q4 20 22 20z" glyph-name="egrave" horiz-adv-x="827" unicode="è"/><glyph d="M434 -29q-154 0 -264.5 137.5t-110.5 354.5t107.5 358.5t262.5 141.5t247 -127t92 -297v-88h-504q0 -385 195 -385q147 -1 217 196l78 -33q-92 -258 -320 -258zM264 530h275q31 0 30 41v47q0 135 -43.5 199t-103.5 64t-109 -90.5t-49 -260.5zM674 1417q16 0 20 -20v-8 q-6 -29 -160 -162t-215 -133q-31 0 -30 30q-1 18 21 49q94 135 132 244h232z" glyph-name="eacute" horiz-adv-x="827" unicode="é"/><glyph d="M434 -29q-154 0 -264.5 137.5t-110.5 354.5t107.5 358.5t262.5 141.5t247 -127t92 -297v-88h-504q0 -385 195 -385q147 -1 217 196l78 -33q-92 -258 -320 -258zM264 530h275q31 0 30 41v47q0 135 -43.5 199t-103.5 64t-109 -90.5t-49 -260.5zM711 1120q0 -27 -33 -26 q-61 0 -250 190q-186 -190 -248 -190q-33 0 -33 26q0 34 83 138t110 192h180q23 -88 107 -190t84 -140z" glyph-name="ecircumflex" horiz-adv-x="827" unicode="ê"/><glyph d="M434 -29q-154 0 -264.5 137.5t-110.5 354.5t107.5 358.5t262.5 141.5t247 -127t92 -297v-88h-504q0 -385 195 -385q147 -1 217 196l78 -33q-92 -258 -320 -258zM264 530h275q31 0 30 41v47q0 135 -43.5 199t-103.5 64t-109 -90.5t-49 -260.5zM381 1250q0 -48 -33 -82.5 t-79 -34.5t-80.5 34.5t-34.5 82.5t34.5 83t80.5 35t79 -35t33 -83zM698 1250q0 -48 -32.5 -82.5t-79.5 -34.5t-81 34.5t-34 82.5t34 83t81 35t79.5 -35t32.5 -83z" glyph-name="edieresis" horiz-adv-x="827" unicode="ë"/><glyph d="M59 854v80l310 29v-820q0 -56 19.5 -59.5t39.5 -3.5h84v-80h-461v80h82q23 0 42.5 4t19.5 59v668q0 43 -76 43h-60zM27 1417h233q23 -76 74 -157q0 -9 9 -19t18 -24.5t29 -46.5t20 -46q0 -31 -31 -30q-55 0 -217 135q-152 131 -158 160v8q5 20 23 20z" glyph-name="igrave" horiz-adv-x="563" unicode="ì"/><glyph d="M59 854v80l310 29v-820q0 -56 19.5 -59.5t39.5 -3.5h84v-80h-461v80h82q23 0 42.5 4t19.5 59v668q0 43 -76 43h-60zM471 1417q16 0 21 -20v-8q-6 -29 -161 -162t-214 -133q-31 0 -31 30q0 18 22 49q96 138 132 244h231z" glyph-name="iacute" horiz-adv-x="563" unicode="í"/><glyph d="M59 854v80l310 29v-820q0 -56 19.5 -59.5t39.5 -3.5h84v-80h-461v80h82q23 0 42.5 4t19.5 59v668q0 43 -76 43h-60zM547 1120q0 -27 -33 -26q-61 0 -250 190q-186 -190 -248 -190q-33 0 -32 26q0 34 82 138t110 192h180q23 -88 107 -190t84 -140z" glyph-name="icircumflex" horiz-adv-x="563" unicode="î"/><glyph d="M59 854v80l310 29v-820q0 -56 19.5 -59.5t39.5 -3.5h84v-80h-461v80h82q23 0 42.5 4t19.5 59v668q0 43 -76 43h-60zM201 1250q0 -48 -33 -82.5t-79 -34.5t-81 34.5t-35 82.5t35 83t81 35t79 -35t33 -83zM518 1250q0 -48 -32.5 -82.5t-80 -34.5t-81 34.5t-33.5 82.5 t33.5 83t81 35t80 -35t32.5 -83z" glyph-name="idieresis" horiz-adv-x="563" unicode="ï"/><glyph d="M324 1452q98 0 192 -41l111 127l53 -43l-107 -119q61 -45 107.5 -100t122.5 -195.5t76 -492.5q0 -272 -100.5 -444.5t-313.5 -172.5q-176 0 -291 138.5t-115 359.5t111 357.5t264 136.5t234 -109l10 2q0 160 -45 254t-135 182l-160 -170l-51 41l155 170q-59 37 -145 37 t-145 -29l-5 84q79 27 177 27zM461 53q114 0 153 130.5t39 312.5t-52 275t-137 93t-141.5 -109.5t-56.5 -259.5t36.5 -296t158.5 -146z" glyph-name="eth" horiz-adv-x="958" unicode="ð"/><glyph d="M70 854v80l295 29v-168h8q33 74 97.5 121t158.5 47t149.5 -50.5t70.5 -116t15 -161.5v-492q0 -55 19.5 -59t42.5 -4h63v-80h-405v80h45q20 0 30.5 2t20.5 16.5t10 44.5v488q0 231 -115 231q-63 0 -113 -61.5t-71.5 -134t-21.5 -129.5v-394q0 -55 20.5 -59t40.5 -4h43v-80 h-403v80h63q23 0 42.5 4t19.5 59v643q0 45 -14.5 56.5t-63.5 11.5h-47zM417 1212q-38 0 -79 -73h-82q23 92 74.5 149.5t109.5 57.5t158 -37q8 -2 60 -27t79.5 -10.5t53.5 55.5h-3l9 14h80q-55 -207 -175 -206q-63 1 -155 39t-130 38z" glyph-name="ntilde" horiz-adv-x="1042" unicode="ñ"/><glyph d="M858 467q0 -80 -22.5 -163t-66.5 -159.5t-125 -125t-185.5 -48.5t-185 48.5t-125 125t-67 159.5t-22.5 163t22.5 163t67 159.5t125 125t185 48.5t185.5 -48.5t125 -125t66.5 -159.5t22.5 -163zM266 467q0 -414 192.5 -414t192.5 414t-192.5 414t-192.5 -414zM254 1417 h233q23 -76 74 -157q0 -9 9 -19t17.5 -24.5t28.5 -46.5t21 -46q0 -31 -31 -30q-55 0 -217 135q-152 131 -158 160v8q5 20 23 20z" glyph-name="ograve" horiz-adv-x="917" unicode="ò"/><glyph d="M858 467q0 -80 -22.5 -163t-66.5 -159.5t-125 -125t-185.5 -48.5t-185 48.5t-125 125t-67 159.5t-22.5 163t22.5 163t67 159.5t125 125t185 48.5t185.5 -48.5t125 -125t66.5 -159.5t22.5 -163zM266 467q0 -414 192.5 -414t192.5 414t-192.5 414t-192.5 -414zM686 1417 q16 0 21 -20v-8q-6 -29 -161 -162t-214 -133q-31 0 -31 30q-1 18 21 49q96 138 133 244h231z" glyph-name="oacute" horiz-adv-x="917" unicode="ó"/><glyph d="M858 467q0 -80 -22.5 -163t-66.5 -159.5t-125 -125t-185.5 -48.5t-185 48.5t-125 125t-67 159.5t-22.5 163t22.5 163t67 159.5t125 125t185 48.5t185.5 -48.5t125 -125t66.5 -159.5t22.5 -163zM266 467q0 -414 192.5 -414t192.5 414t-192.5 414t-192.5 -414zM211 1094 q-33 0 -33 26q0 34 83 138t110 192h180q23 -88 107 -190t83 -140q0 -27 -32 -26q-61 0 -250 190q-186 -190 -248 -190z" glyph-name="ocircumflex" horiz-adv-x="917" unicode="ô"/><glyph d="M858 467q0 -80 -22.5 -163t-66.5 -159.5t-125 -125t-185.5 -48.5t-185 48.5t-125 125t-67 159.5t-22.5 163t22.5 163t67 159.5t125 125t185 48.5t185.5 -48.5t125 -125t66.5 -159.5t22.5 -163zM266 467q0 -414 192.5 -414t192.5 414t-192.5 414t-192.5 -414zM327 1212 q-38 0 -79 -73h-82q23 92 75 149.5t109 57.5t158 -37q8 -2 60 -27t80 -10.5t52 55.5h-2l9 14h79q-55 -207 -174 -206q-63 1 -155 39t-130 38z" glyph-name="otilde" horiz-adv-x="917" unicode="õ"/><glyph d="M858 467q0 -80 -22.5 -163t-66.5 -159.5t-125 -125t-185.5 -48.5t-185 48.5t-125 125t-67 159.5t-22.5 163t22.5 163t67 159.5t125 125t185 48.5t185.5 -48.5t125 -125t66.5 -159.5t22.5 -163zM266 467q0 -414 192.5 -414t192.5 414t-192.5 414t-192.5 -414zM414 1250 q0 -48 -33 -82.5t-79 -34.5t-81 34.5t-35 82.5t35 83t81 35t79 -35t33 -83zM731 1250q0 -48 -32.5 -82.5t-80 -34.5t-81 34.5t-33.5 82.5t33.5 83t81 35t80 -35t32.5 -83z" glyph-name="odieresis" horiz-adv-x="917" unicode="ö"/><glyph d="M123 610v92h1089v-92h-1089zM549 986q0 62 30.5 96t86 34t86 -33.5t30.5 -95.5t-34.5 -91.5t-82 -29.5t-82 29t-34.5 91zM549 322q0 55 28.5 89.5t88 34.5t88 -34.5t28.5 -89.5t-30.5 -89t-86 -34t-86 34t-30.5 89z" glyph-name="divide" horiz-adv-x="1335" unicode="÷"/><glyph d="M858 478q0 -91 -22.5 -174t-66.5 -159.5t-125 -125t-181 -48.5t-187 45l-53 -102l-69 39l59 113q-78 74 -116 183t-38 203t22.5 177.5t67 160t125 125t186.5 48.5t191 -54l54 103l67 -39l-59 -115q72 -74 108.5 -181.5t36.5 -198.5zM266 467q0 -158 25 -250l301 580 q-45 84 -133 84q-193 0 -193 -414zM651 467q0 137 -22 231l-297 -577q45 -68 127 -68q192 0 192 414z" glyph-name="oslash" horiz-adv-x="917" unicode="ø"/><glyph d="M53 854v80l299 29v-660q0 -231 115 -231q66 0 136.5 86.5t70.5 238.5v412q0 29 -16.5 37t-59.5 8h-49v80l299 29v-816q0 -45 14.5 -56t63.5 -11h47v-80h-291v150h-8q-72 -178 -252 -179q-143 0 -193.5 89.5t-50.5 238.5v510q0 29 -16.5 37t-59.5 8h-49zM246 1417h233 q23 -76 74 -157q0 -9 9 -19t17.5 -24.5t28.5 -46.5t21 -46q0 -31 -31 -30q-55 0 -217 135q-152 131 -158 160v8q5 20 23 20z" glyph-name="ugrave" horiz-adv-x="1038" unicode="ù"/><glyph d="M53 854v80l299 29v-660q0 -231 115 -231q66 0 136.5 86.5t70.5 238.5v412q0 29 -16.5 37t-59.5 8h-49v80l299 29v-816q0 -45 14.5 -56t63.5 -11h47v-80h-291v150h-8q-72 -178 -252 -179q-143 0 -193.5 89.5t-50.5 238.5v510q0 29 -16.5 37t-59.5 8h-49zM745 1417 q16 0 21 -20v-8q-6 -29 -161 -162t-214 -133q-31 0 -31 30q0 18 22 49q96 138 132 244h231z" glyph-name="uacute" horiz-adv-x="1038" unicode="ú"/><glyph d="M53 854v80l299 29v-660q0 -231 115 -231q66 0 136.5 86.5t70.5 238.5v412q0 29 -16.5 37t-59.5 8h-49v80l299 29v-816q0 -45 14.5 -56t63.5 -11h47v-80h-291v150h-8q-72 -178 -252 -179q-143 0 -193.5 89.5t-50.5 238.5v510q0 29 -16.5 37t-59.5 8h-49zM807 1120 q0 -27 -33 -26q-61 0 -250 190q-186 -190 -248 -190q-33 0 -32 26q0 34 82 138t110 192h180q23 -88 107 -190t84 -140z" glyph-name="ucircumflex" horiz-adv-x="1038" unicode="û"/><glyph d="M53 854v80l299 29v-660q0 -231 115 -231q66 0 136.5 86.5t70.5 238.5v412q0 29 -16.5 37t-59.5 8h-49v80l299 29v-816q0 -45 14.5 -56t63.5 -11h47v-80h-291v150h-8q-72 -178 -252 -179q-143 0 -193.5 89.5t-50.5 238.5v510q0 29 -16.5 37t-59.5 8h-49zM449 1250 q0 -48 -33 -82.5t-79 -34.5t-81 34.5t-35 82.5t35 83t81 35t79 -35t33 -83zM766 1250q0 -48 -33 -82.5t-80 -34.5t-80.5 34.5t-33.5 82.5t33.5 83t80.5 35t80 -35t33 -83z" glyph-name="udieresis" horiz-adv-x="1038" unicode="ü"/><glyph d="M-6 854v80h409v-80h-38q-57 0 -58 -47q0 -14 17 -59l174 -506h10l147 454q18 55 19 101q0 57 -90 57h-31v80h340v-80h-16q-61 0 -97 -96l-317 -914q-76 -217 -230 -217q-80 0 -119.5 47.5t-39.5 99.5t27.5 83.5t69.5 31.5t67.5 -23.5t25.5 -51.5t-9 -49t-9 -27 q0 -20 24 -20t54 49t43 92l39 125l-287 786q-18 51 -37 67.5t-57 16.5h-31zM692 1417q16 0 21 -20v-8q-6 -29 -161 -162t-214 -133q-31 0 -31 30q-1 18 21 49q96 138 133 244h231z" glyph-name="yacute" horiz-adv-x="888" unicode="ý"/><glyph d="M569 963q168 0 259.5 -147.5t91.5 -356.5t-95.5 -348.5t-249.5 -139.5q-72 0 -134 36t-91 97h-12l12 -86v-241q0 -31 9.5 -45.5t18.5 -16.5t32 -2h88v-80h-447v80h66q23 0 41 4t18 60v1507q0 54 -18.5 59t-40.5 5h-62v79l295 29v-627q31 66 94.5 100t124.5 34zM348 442 q0 -178 56.5 -278.5t138.5 -100.5q170 0 170 408t-176 408q-45 0 -84 -31t-72 -129.5t-33 -276.5z" glyph-name="thorn" horiz-adv-x="978" unicode="þ"/><glyph d="M-6 854v80h409v-80h-38q-57 0 -58 -47q0 -14 17 -59l174 -506h10l147 454q18 55 19 101q0 57 -90 57h-31v80h340v-80h-16q-61 0 -97 -96l-317 -914q-76 -217 -230 -217q-80 0 -119.5 47.5t-39.5 99.5t27.5 83.5t69.5 31.5t67.5 -23.5t25.5 -51.5t-9 -49t-9 -27 q0 -20 24 -20t54 49t43 92l39 125l-287 786q-18 51 -37 67.5t-57 16.5h-31zM420 1250q0 -48 -33 -82.5t-79 -34.5t-80.5 34.5t-34.5 82.5t34.5 83t80.5 35t79 -35t33 -83zM737 1250q0 -48 -32.5 -82.5t-79.5 -34.5t-81 34.5t-34 82.5t34 83t81 35t79.5 -35t32.5 -83z" glyph-name="ydieresis" horiz-adv-x="888" unicode="ÿ"/><glyph d="M831 84q103 0 103 56q0 27 -6 42l-92 256h-443l-53 -162q-25 -74 -25 -114q0 -78 121 -78h49v-84h-485v84h20q135 0 189 156l414 1181h96l418 -1175q33 -92 73.5 -127t132.5 -35v-84h-569v84h57zM422 526h383l-184 547h-9zM379 1556v103h577v-103h-577z" glyph-name="Amacron" horiz-adv-x="1343" unicode="Ā"/><glyph d="M707 -29q-143 0 -154 156h-6q-94 -156 -252 -156q-129 0 -181.5 64.5t-52.5 146.5q0 157 116 249.5t366 156.5v100q0 199 -156 199q-51 0 -98 -31t-47 -68q0 -18 23.5 -28t47 -29.5t23.5 -61.5t-30 -68t-75 -26t-79.5 32t-34.5 93q0 96 75.5 179.5t223.5 83.5 q301 0 301 -324v-473q0 -102 53 -103q20 0 29.5 9.5t20 25t16.5 23.5l51 -45q-49 -59 -86 -82t-94 -23zM543 322v190q-283 -68 -283 -297q0 -49 26.5 -91t86.5 -42t115 71t55 169zM129 1190v102h578v-102h-578z" glyph-name="amacron" horiz-adv-x="886" unicode="ā"/><glyph d="M831 84q103 0 103 56q0 27 -6 42l-92 256h-443l-53 -162q-25 -74 -25 -114q0 -78 121 -78h49v-84h-485v84h20q135 0 189 156l414 1181h96l418 -1175q33 -92 73.5 -127t132.5 -35v-84h-569v84h57zM422 526h383l-184 547h-9zM666 1632q82 0 133 50.5t55 148.5h92 q0 -137 -73.5 -229.5t-207.5 -92.5t-205 91.5t-73 230.5h90q12 -199 189 -199z" glyph-name="Abreve" horiz-adv-x="1343" unicode="Ă"/><glyph d="M707 -29q-143 0 -154 156h-6q-94 -156 -252 -156q-129 0 -181.5 64.5t-52.5 146.5q0 157 116 249.5t366 156.5v100q0 199 -156 199q-51 0 -98 -31t-47 -68q0 -18 23.5 -28t47 -29.5t23.5 -61.5t-30 -68t-75 -26t-79.5 32t-34.5 93q0 96 75.5 179.5t223.5 83.5 q301 0 301 -324v-473q0 -102 53 -103q20 0 29.5 9.5t20 25t16.5 23.5l51 -45q-49 -59 -86 -82t-94 -23zM543 322v190q-283 -68 -283 -297q0 -49 26.5 -91t86.5 -42t115 71t55 169zM154 1430h94q8 -197 171 -197t175 197h96q0 -135 -69.5 -225.5t-200.5 -90.5t-198.5 88.5 t-67.5 227.5z" glyph-name="abreve" horiz-adv-x="886" unicode="ă"/><glyph d="M831 84q103 0 103 56q0 27 -6 42l-92 256h-443l-53 -162q-25 -74 -25 -114q0 -78 121 -78h49v-84h-485v84h20q135 0 189 156l414 1181h96l418 -1175q33 -92 73.5 -127t132.5 -35v-84h-45q-76 -111 -75 -227q0 -57 22.5 -86t54.5 -29q51 0 80 68l58 -29 q-78 -143 -201 -143q-78 0 -117 47t-39 115t72 171q14 20 41 59.5t37 53.5h-457v84h57zM422 526h383l-184 547h-9z" glyph-name="Aogonek" horiz-adv-x="1343" unicode="Ą"/><glyph d="M748 -217q0 -53 23 -82t61 -29t69 66l53 -29q-70 -135 -192 -135q-74 0 -111 44t-37 104t72 169l53 82q-12 -2 -32 -2q-143 0 -154 156h-6q-94 -156 -252 -156q-129 0 -181.5 64.5t-52.5 146.5q0 157 116 249.5t366 156.5v100q0 199 -156 199q-51 0 -98 -31t-47 -68 q0 -18 23.5 -28t47 -29.5t23.5 -61.5t-30 -68t-75 -26t-79.5 32t-34.5 93q0 96 75.5 179.5t223.5 83.5q301 0 301 -324v-473q0 -102 53 -103q20 0 29.5 9.5t20 25t16.5 23.5l51 -45q-139 -135 -139 -293zM543 322v190q-283 -68 -283 -297q0 -49 26.5 -91t86.5 -42t115 71 t55 169z" glyph-name="aogonek" horiz-adv-x="886" unicode="ą"/><glyph d="M610 -29q-141 0 -249.5 64.5t-204 227.5t-95.5 462q0 182 60.5 338t185.5 257t291 101q72 0 135.5 -22.5t88 -40t59.5 -47.5l43 82h90l26 -500h-96q-39 219 -115.5 325.5t-216.5 106.5t-227.5 -142.5t-87.5 -451.5q0 -84 12.5 -194.5t36 -181t59 -139.5t97 -108.5 t139.5 -39.5q263 -1 322 405h100q-70 -502 -453 -502zM897 1767q8 0 21 -12v-6q-4 -18 -29 -36.5t-123 -67.5q-244 -137 -313 -138q-41 0 -41 29q0 20 30 47q72 61 158 184h297z" glyph-name="Cacute" horiz-adv-x="1124" unicode="Ć"/><glyph d="M434 -29q-164 0 -269.5 145.5t-105.5 352.5t105.5 350.5t275.5 143.5q137 0 213 -78t76 -166q0 -51 -26.5 -89t-84.5 -38t-80 31.5t-22 68.5t22.5 66.5t22.5 49.5t-31.5 48.5t-74.5 28.5q-189 0 -189 -410t191 -409q162 0 215 233l82 -25q-86 -303 -320 -303zM641 1417 q16 0 21 -20v-8q-6 -29 -161 -162t-214 -133q-31 0 -31 30q0 18 22 49q96 138 132 244h231z" glyph-name="cacute" horiz-adv-x="794" unicode="ć"/><glyph d="M610 -29q-141 0 -249.5 64.5t-204 227.5t-95.5 462q0 182 60.5 338t185.5 257t291 101q72 0 135.5 -22.5t88 -40t59.5 -47.5l43 82h90l26 -500h-96q-39 219 -115.5 325.5t-216.5 106.5t-227.5 -142.5t-87.5 -451.5q0 -84 12.5 -194.5t36 -181t59 -139.5t97 -108.5 t139.5 -39.5q263 -1 322 405h100q-70 -502 -453 -502zM684 1749q167 -197 201 -197l2 -2h-2q25 -14 24 -26q0 -23 -41 -23q-109 0 -286 121q-170 -121 -283 -121q-43 0 -43 23q0 12 25 26h-2q5 4 27 19t46 39q57 47 129 141h203z" glyph-name="Ccircumflex" horiz-adv-x="1124" unicode="Ĉ"/><glyph d="M434 -29q-164 0 -269.5 145.5t-105.5 352.5t105.5 350.5t275.5 143.5q137 0 213 -78t76 -166q0 -51 -26.5 -89t-84.5 -38t-80 31.5t-22 68.5t22.5 66.5t22.5 49.5t-31.5 48.5t-74.5 28.5q-189 0 -189 -410t191 -409q162 0 215 233l82 -25q-86 -303 -320 -303zM719 1120 q0 -27 -33 -26q-61 0 -250 190q-186 -190 -248 -190q-33 0 -32 26q0 34 82 138t110 192h180q23 -88 107 -190t84 -140z" glyph-name="ccircumflex" horiz-adv-x="794" unicode="ĉ"/><glyph d="M610 -29q-141 0 -249.5 64.5t-204 227.5t-95.5 462q0 182 60.5 338t185.5 257t291 101q72 0 135.5 -22.5t88 -40t59.5 -47.5l43 82h90l26 -500h-96q-39 219 -115.5 325.5t-216.5 106.5t-227.5 -142.5t-87.5 -451.5q0 -84 12.5 -194.5t36 -181t59 -139.5t97 -108.5 t139.5 -39.5q263 -1 322 405h100q-70 -502 -453 -502zM424 1615.5q0 59.5 41 101.5t98.5 42t98 -42t40.5 -101.5t-40.5 -101t-98 -41.5t-98.5 41.5t-41 101z" glyph-name="Cdotaccent" horiz-adv-x="1124" unicode="Ċ"/><glyph d="M434 -29q-164 0 -269.5 145.5t-105.5 352.5t105.5 350.5t275.5 143.5q137 0 213 -78t76 -166q0 -51 -26.5 -89t-84.5 -38t-80 31.5t-22 68.5t22.5 66.5t22.5 49.5t-31.5 48.5t-74.5 28.5q-189 0 -189 -410t191 -409q162 0 215 233l82 -25q-86 -303 -320 -303zM532 1255.5 q0 -51.5 -33.5 -87t-82.5 -35.5t-85 35.5t-36 87t36 87t85 35.5t82.5 -35.5t33.5 -87z" glyph-name="cdotaccent" horiz-adv-x="794" unicode="ċ"/><glyph d="M610 -29q-141 0 -249.5 64.5t-204 227.5t-95.5 462q0 182 60.5 338t185.5 257t291 101q72 0 135.5 -22.5t88 -40t59.5 -47.5l43 82h90l26 -500h-96q-39 219 -115.5 325.5t-216.5 106.5t-227.5 -142.5t-87.5 -451.5q0 -84 12.5 -194.5t36 -181t59 -139.5t97 -108.5 t139.5 -39.5q263 -1 322 405h100q-70 -502 -453 -502zM887 1706q-61 -31 -203 -199h-203q-72 94 -129 142q-25 25 -47 39t-26 18h2q-25 14 -25 27q0 23 43 22q117 0 283 -123q173 123 286 123q41 0 41 -22q0 -12 -24 -27h2z" glyph-name="Ccaron" horiz-adv-x="1124" unicode="Č"/><glyph d="M434 -29q-164 0 -269.5 145.5t-105.5 352.5t105.5 350.5t275.5 143.5q137 0 213 -78t76 -166q0 -51 -26.5 -89t-84.5 -38t-80 31.5t-22 68.5t22.5 66.5t22.5 49.5t-31.5 48.5t-74.5 28.5q-189 0 -189 -410t191 -409q162 0 215 233l82 -25q-86 -303 -320 -303zM182 1450 q61 0 248 -190q188 190 250 190q33 0 33 -27q0 -37 -84 -139t-107 -190h-180q-27 88 -110 191t-82 138q0 27 32 27z" glyph-name="ccaron" horiz-adv-x="794" unicode="č"/><glyph d="M72 0v84h98q82 0 82 61v1100q0 63 -82 64h-98v84h532q72 0 136.5 -8.5t164 -48.5t169 -108.5t121.5 -206.5t52 -301t-29.5 -276.5t-73.5 -184.5t-133 -142t-199 -94t-200 -23h-540zM465 1249v-1104q0 -61 84 -61h43q420 0 420 612t-420 613h-55q-45 0 -58.5 -14.5 t-13.5 -45.5zM887 1706q-61 -31 -203 -199h-203q-72 94 -129 142q-25 25 -47 39t-26 18h2q-25 14 -25 27q0 23 43 22q117 0 283 -123q173 123 286 123q41 0 41 -22q0 -12 -24 -27h2z" glyph-name="Dcaron" horiz-adv-x="1308" unicode="Ď"/><glyph d="M805 143q0 -56 19.5 -59.5t39.5 -3.5h76v-80h-301v125h-8q-82 -154 -238 -154t-245 147.5t-89 359.5t99.5 348.5t255.5 136.5q66 0 116 -24t101 -93h8l-8 63v394q0 29 -9.5 37t-37.5 8h-78v79l299 29v-1313zM635 473q0 211 -60.5 309.5t-136.5 98.5t-124 -104.5 t-48 -266.5q0 -294 54.5 -370.5t124.5 -76.5q71 0 130.5 99.5t59.5 310.5zM1053 1140q0 40 -16.5 50t-55.5 10q-92 0 -92 103q0 49 37.5 83.5t103.5 34.5t107 -53t41 -139t-62.5 -179.5t-175.5 -156.5l-33 51q43 29 94.5 92.5t51.5 103.5z" glyph-name="dcaron" horiz-adv-x="1146" unicode="ď"/><glyph d="M72 690v88h180v467q0 63 -82 64h-98v84h532q72 0 136.5 -8.5t164 -48.5t169 -108.5t121.5 -206.5t52 -301t-29.5 -276.5t-73.5 -184.5t-133 -142t-199 -94t-200 -23h-540v84h98q82 0 82 61v545h-180zM465 1249v-471h231v-88h-231v-545q0 -61 84 -61h43q420 0 420 612 t-420 613h-55q-45 0 -58.5 -14.5t-13.5 -45.5z" glyph-name="Dcroat" horiz-adv-x="1308" unicode="Đ"/><glyph d="M334 1118v80h297v105q0 29 -9.5 37t-37.5 8h-78v79l299 29v-258h135v-80h-135v-975q0 -56 19.5 -59.5t39.5 -3.5h76v-80h-301v125h-8q-82 -154 -238 -154t-245 147.5t-89 359.5t99.5 348.5t255.5 136.5q66 0 116 -24t101 -93h8l-8 63v209h-297zM635 473 q0 211 -60.5 309.5t-136.5 98.5t-124 -104.5t-48 -266.5q0 -294 54.5 -370.5t124.5 -76.5q71 0 130.5 99.5t59.5 310.5z" glyph-name="dcroat" horiz-adv-x="1044" unicode="đ"/><glyph d="M1098 905h-97q-25 225 -92 314.5t-215 89.5h-145q-84 0 -84 -64v-500h108q80 0 108 48.5t28 171.5v49h96v-627h-96v41q0 168 -43 201t-88 33h-113v-517q0 -61 84 -61h178q72 0 173 58t101 343v37h97v-522h-1026v84h98q82 0 82 61v1100q0 63 -82 64h-98v84h1026v-488z M340 1556v103h578v-103h-578z" glyph-name="Emacron" horiz-adv-x="1191" unicode="Ē"/><glyph d="M434 -29q-154 0 -264.5 137.5t-110.5 354.5t107.5 358.5t262.5 141.5t247 -127t92 -297v-88h-504q0 -385 195 -385q147 -1 217 196l78 -33q-92 -258 -320 -258zM264 530h275q31 0 30 41v47q0 135 -43.5 199t-103.5 64t-109 -90.5t-49 -260.5zM139 1190v102h578v-102h-578 z" glyph-name="emacron" horiz-adv-x="827" unicode="ē"/><glyph d="M1098 905h-97q-25 225 -92 314.5t-215 89.5h-145q-84 0 -84 -64v-500h108q80 0 108 48.5t28 171.5v49h96v-627h-96v41q0 168 -43 201t-88 33h-113v-517q0 -61 84 -61h178q72 0 173 58t101 343v37h97v-522h-1026v84h98q82 0 82 61v1100q0 63 -82 64h-98v84h1026v-488z M496 1615.5q0 59.5 41 101.5t98 42t98 -42t41 -101.5t-41 -101t-98 -41.5t-98 41.5t-41 101z" glyph-name="Edotaccent" horiz-adv-x="1191" unicode="Ė"/><glyph d="M434 -29q-154 0 -264.5 137.5t-110.5 354.5t107.5 358.5t262.5 141.5t247 -127t92 -297v-88h-504q0 -385 195 -385q147 -1 217 196l78 -33q-92 -258 -320 -258zM264 530h275q31 0 30 41v47q0 135 -43.5 199t-103.5 64t-109 -90.5t-49 -260.5zM549 1255.5q0 -51.5 -34 -87 t-83 -35.5t-85 35.5t-36 87t36 87t85 35.5t83 -35.5t34 -87z" glyph-name="edotaccent" horiz-adv-x="827" unicode="ė"/><glyph d="M72 0v84h98q82 0 82 61v1100q0 63 -82 64h-98v84h1026v-488h-97q-25 225 -92 314.5t-215 89.5h-145q-84 0 -84 -64v-500h108q80 0 108 48.5t28 171.5v49h96v-627h-96v41q0 168 -43 201t-88 33h-113v-517q0 -61 84 -61h178q72 0 173 58t101 343v37h97v-522h-92 q-76 -111 -76 -227q0 -57 22.5 -86t55.5 -29q51 0 79 68l58 -29q-76 -143 -201 -143q-78 0 -117 47t-39 115t72 171q14 20 41 59.5t37 53.5h-866z" glyph-name="Eogonek" horiz-adv-x="1191" unicode="Ę"/><glyph d="M614 -328q39 0 70 66l53 -29q-70 -135 -192 -135q-74 0 -111 44t-37 104t72 169l61 95q-43 -14 -96 -15q-154 0 -264.5 137.5t-110.5 354.5t107.5 358.5t262.5 141.5t247 -127t92 -297v-88h-502q0 -385 193 -385q147 -1 217 196l78 -33q-20 -53 -41 -84.5l-40 -60 t-36 -45.5q-106 -143 -107 -256q0 -53 22.5 -82t61.5 -29zM266 530h273q31 0 30 41v47q0 135 -43.5 199t-103.5 64t-108 -90.5t-48 -260.5z" glyph-name="eogonek" horiz-adv-x="827" unicode="ę"/><glyph d="M1098 905h-97q-25 225 -92 314.5t-215 89.5h-145q-84 0 -84 -64v-500h108q80 0 108 48.5t28 171.5v49h96v-627h-96v41q0 168 -43 201t-88 33h-113v-517q0 -61 84 -61h178q72 0 173 58t101 343v37h97v-522h-1026v84h98q82 0 82 61v1100q0 63 -82 64h-98v84h1026v-488z M938 1706q-61 -31 -203 -199h-203q-72 94 -129 142q-25 25 -47 39t-26 18h2q-25 14 -25 27q0 23 43 22q117 0 283 -123q174 123 287 123q41 0 41 -22q0 -12 -25 -27h2z" glyph-name="Ecaron" horiz-adv-x="1191" unicode="Ě"/><glyph d="M434 -29q-154 0 -264.5 137.5t-110.5 354.5t107.5 358.5t262.5 141.5t247 -127t92 -297v-88h-504q0 -385 195 -385q147 -1 217 196l78 -33q-92 -258 -320 -258zM264 530h275q31 0 30 41v47q0 135 -43.5 199t-103.5 64t-109 -90.5t-49 -260.5zM186 1450q61 0 248 -190 q188 190 250 190q33 0 33 -27q0 -37 -84 -139t-107 -190h-180q-27 88 -110 191t-82 138q0 27 32 27z" glyph-name="ecaron" horiz-adv-x="827" unicode="ě"/><glyph d="M618 1325q-322 0 -321 -635q0 -335 108.5 -478.5t221.5 -143.5t176 82.5t63 203.5v107q0 45 -9 65.5t-38 20.5h-141v84h573v-84h-125q-47 0 -47 -58v-489h-92l-57 141q-116 -170 -344 -170t-376.5 204t-148.5 522t149.5 521t395.5 203q186 0 291 -121l57 93h84l27 -504 h-100q-18 160 -109.5 298t-237.5 138zM684 1749q167 -197 201 -197l2 -2h-2q25 -14 24 -26q0 -23 -41 -23q-109 0 -286 121q-170 -121 -283 -121q-43 0 -43 23q0 12 25 26h-2q5 4 27 19t46 39q57 47 129 141h203z" glyph-name="Gcircumflex" horiz-adv-x="1271" unicode="Ĝ"/><glyph d="M469 295q-70 0 -158 33q-33 -10 -55.5 -39t-22.5 -60q0 -72 101 -71h158q236 0 300 -88t64 -191q0 -102 -102.5 -177t-307.5 -75t-290.5 58.5t-85.5 128.5q0 139 168 180v8q-156 31 -156 166q0 76 43 122t125 85q-113 86 -113 256q0 135 84 233.5t220 98.5t212 -62 q100 127 185 127q131 0 131 -133q0 -113 -90 -113q-35 0 -54.5 22.5t-19.5 49.5l10 59q0 14 -18 15q-35 0 -86 -74q75 -84 75 -225t-87 -237.5t-230 -96.5zM328 625q0 -129 41 -189.5t102 -60.5q125 0 125 268q0 131 -41 185.5t-97 54.5t-93 -64.5t-37 -193.5zM213 -145 q0 -145 252 -146q145 0 203.5 48t58.5 106q0 115 -254 114q-102 0 -181 -30.5t-79 -91.5zM215 1094q-33 0 -33 26q0 34 83 138t110 192h180q23 -88 107 -190t83 -140q0 -27 -32 -26q-61 0 -250 190q-186 -190 -248 -190z" glyph-name="gcircumflex" horiz-adv-x="968" unicode="ĝ"/><glyph d="M618 1325q-322 0 -321 -635q0 -335 108.5 -478.5t221.5 -143.5t176 82.5t63 203.5v107q0 45 -9 65.5t-38 20.5h-141v84h573v-84h-125q-47 0 -47 -58v-489h-92l-57 141q-116 -170 -344 -170t-376.5 204t-148.5 522t149.5 521t395.5 203q186 0 291 -121l57 93h84l27 -504 h-100q-18 160 -109.5 298t-237.5 138zM590 1632q82 0 133 50.5t55 148.5h92q0 -137 -73.5 -229.5t-207.5 -92.5t-205 91.5t-73 230.5h90q12 -199 189 -199z" glyph-name="Gbreve" horiz-adv-x="1271" unicode="Ğ"/><glyph d="M469 295q-70 0 -158 33q-33 -10 -55.5 -39t-22.5 -60q0 -72 101 -71h158q236 0 300 -88t64 -191q0 -102 -102.5 -177t-307.5 -75t-290.5 58.5t-85.5 128.5q0 139 168 180v8q-156 31 -156 166q0 76 43 122t125 85q-113 86 -113 256q0 135 84 233.5t220 98.5t212 -62 q100 127 185 127q131 0 131 -133q0 -113 -90 -113q-35 0 -54.5 22.5t-19.5 49.5l10 59q0 14 -18 15q-35 0 -86 -74q75 -84 75 -225t-87 -237.5t-230 -96.5zM328 625q0 -129 41 -189.5t102 -60.5q125 0 125 268q0 131 -41 185.5t-97 54.5t-93 -64.5t-37 -193.5zM213 -145 q0 -145 252 -146q145 0 203.5 48t58.5 106q0 115 -254 114q-102 0 -181 -30.5t-79 -91.5zM186 1430h95q8 -197 171 -197t175 197h96q0 -135 -69.5 -225.5t-200.5 -90.5t-199 88.5t-68 227.5z" glyph-name="gbreve" horiz-adv-x="968" unicode="ğ"/><glyph d="M618 1325q-322 0 -321 -635q0 -335 108.5 -478.5t221.5 -143.5t176 82.5t63 203.5v107q0 45 -9 65.5t-38 20.5h-141v84h573v-84h-125q-47 0 -47 -58v-489h-92l-57 141q-116 -170 -344 -170t-376.5 204t-148.5 522t149.5 521t395.5 203q186 0 291 -121l57 93h84l27 -504 h-100q-18 160 -109.5 298t-237.5 138zM449 1615.5q0 59.5 40.5 101.5t98 42t98.5 -42t41 -101.5t-41 -101t-98.5 -41.5t-98 41.5t-40.5 101z" glyph-name="Gdotaccent" horiz-adv-x="1271" unicode="Ġ"/><glyph d="M469 295q-70 0 -158 33q-33 -10 -55.5 -39t-22.5 -60q0 -72 101 -71h158q236 0 300 -88t64 -191q0 -102 -102.5 -177t-307.5 -75t-290.5 58.5t-85.5 128.5q0 139 168 180v8q-156 31 -156 166q0 76 43 122t125 85q-113 86 -113 256q0 135 84 233.5t220 98.5t212 -62 q100 127 185 127q131 0 131 -133q0 -113 -90 -113q-35 0 -54.5 22.5t-19.5 49.5l10 59q0 14 -18 15q-35 0 -86 -74q75 -84 75 -225t-87 -237.5t-230 -96.5zM328 625q0 -129 41 -189.5t102 -60.5q125 0 125 268q0 131 -41 185.5t-97 54.5t-93 -64.5t-37 -193.5zM213 -145 q0 -145 252 -146q145 0 203.5 48t58.5 106q0 115 -254 114q-102 0 -181 -30.5t-79 -91.5zM549 1255.5q0 -51.5 -34 -87t-83 -35.5t-85 35.5t-36 87t36 87t85 35.5t83 -35.5t34 -87z" glyph-name="gdotaccent" horiz-adv-x="968" unicode="ġ"/><glyph d="M618 1325q-322 0 -321 -635q0 -335 108.5 -478.5t221.5 -143.5t176 82.5t63 203.5v107q0 45 -9 65.5t-38 20.5h-141v84h573v-84h-125q-47 0 -47 -58v-489h-92l-57 141q-116 -170 -344 -170t-376.5 204t-148.5 522t149.5 521t395.5 203q186 0 291 -121l57 93h84l27 -504 h-100q-18 160 -109.5 298t-237.5 138zM631 -420q0 39 -10.5 54.5t-24.5 18.5t-43 3q-102 0 -102 113q0 53 41.5 92t113.5 39t119 -58.5t47 -154.5t-70.5 -198.5t-193.5 -174.5l-37 57q47 31 103.5 100.5t56.5 108.5z" glyph-name="Gcommaaccent" horiz-adv-x="1271" unicode="Ģ"/><glyph d="M469 295q-70 0 -158 33q-33 -10 -55.5 -39t-22.5 -60q0 -72 101 -71h158q236 0 300 -88t64 -191q0 -102 -102.5 -177t-307.5 -75t-290.5 58.5t-85.5 128.5q0 139 168 180v8q-156 31 -156 166q0 76 43 122t125 85q-113 86 -113 256q0 135 84 233.5t220 98.5t212 -62 q100 127 185 127q131 0 131 -133q0 -113 -90 -113q-35 0 -54.5 22.5t-19.5 49.5l10 59q0 14 -18 15q-35 0 -86 -74q75 -84 75 -225t-87 -237.5t-230 -96.5zM328 625q0 -129 41 -189.5t102 -60.5q125 0 125 268q0 131 -41 185.5t-97 54.5t-93 -64.5t-37 -193.5zM213 -145 q0 -145 252 -146q145 0 203.5 48t58.5 106q0 115 -254 114q-102 0 -181 -30.5t-79 -91.5zM412 1342q0 -40 16 -50t55 -10q92 0 92 -102q0 -49 -37.5 -84t-103.5 -35t-106.5 53t-40.5 139t62 179.5t175 156.5l33 -51q-43 -29 -94 -92.5t-51 -103.5z" glyph-name="gcommaaccent" horiz-adv-x="968" unicode="ģ"/><glyph d="M969 778v467q0 63 -84 64h-88v84h565v-84h-96q-84 0 -84 -64v-1100q0 -61 84 -61h96v-84h-565v84h88q84 0 84 61v545h-504v-545q0 -61 84 -61h88v-84h-565v84h98q82 0 82 61v1100q0 63 -82 64h-98v84h565v-84h-88q-84 0 -84 -64v-467h504zM819 1749q167 -197 201 -197 l2 -2h-2q25 -14 24 -26q1 -23 -40 -23q-109 0 -287 121q-170 -121 -283 -121q-43 0 -43 23q0 12 25 26h-2q4 4 26 19t47 39q57 47 129 141h203z" glyph-name="Hcircumflex" horiz-adv-x="1433" unicode="Ĥ"/><glyph d="M61 1350v77l299 29v-567l-8 -105h8q72 178 252 179q143 0 193.5 -89.5t50.5 -238.5v-492q0 -56 19.5 -59.5t42.5 -3.5h63v-80h-406v80h46q20 0 30.5 2t20.5 16.5t10 44.5v488q0 231 -115 231q-66 0 -136.5 -86.5t-70.5 -238.5v-394q0 -31 10.5 -45t20.5 -16t31 -2h43v-80 h-404v80h64q23 0 42 4t19 59v1139q0 45 -14 56.5t-63 11.5h-48zM535 1542q0 -27 -33 -26q-61 0 -250 190q-186 -190 -248 -190q-33 0 -33 26q0 34 83 138t110 192h180q23 -88 107 -190t84 -140z" glyph-name="hcircumflex" horiz-adv-x="1034" unicode="ĥ"/><glyph d="M1362 1163v-88h-180v-930q0 -61 84 -61h96v-84h-565v84h88q84 0 84 61v545h-504v-545q0 -61 84 -61h88v-84h-565v84h98q82 0 82 61v930h-180v88h180v82q0 63 -82 64h-98v84h565v-84h-88q-84 0 -84 -64v-82h504v82q0 63 -84 64h-88v84h565v-84h-96q-84 0 -84 -64v-82h180z M969 778v297h-504v-297h504z" glyph-name="Hbar" horiz-adv-x="1433" unicode="Ħ"/><glyph d="M0 1118v80h186v84q0 45 -14 56.5t-63 11.5h-48v77l299 29v-258h351v-80h-351v-229l-8 -105h8q72 178 252 179q143 0 193.5 -89.5t50.5 -238.5v-492q0 -56 19.5 -59.5t42.5 -3.5h63v-80h-406v80h46q20 0 30.5 2t20.5 16.5t10 44.5v488q0 231 -115 231q-66 0 -136.5 -86.5 t-70.5 -238.5v-394q0 -31 10.5 -45t20.5 -16t31 -2h43v-80h-404v80h64q23 0 42 4t19 59v975h-186z" glyph-name="hbar" horiz-adv-x="1034" unicode="ħ"/><glyph d="M72 0v84h98q82 0 82 61v1100q0 63 -82 64h-98v84h573v-84h-96q-84 0 -84 -64v-1100q0 -61 84 -61h96v-84h-573zM70 1556v103h577v-103h-577z" glyph-name="Imacron" horiz-adv-x="716" unicode="Ī"/><glyph d="M59 854v80l310 29v-820q0 -56 19.5 -59.5t39.5 -3.5h84v-80h-461v80h82q23 0 42.5 4t19.5 59v668q0 43 -76 43h-60zM-41 1190v102h578v-102h-578z" glyph-name="imacron" horiz-adv-x="563" unicode="ī"/><glyph d="M72 0v84h98q82 0 82 61v1100q0 63 -82 64h-98v84h573v-84h-96q-84 0 -84 -64v-1100q0 -61 84 -61h96v-84h-49q-76 -111 -76 -227q0 -57 22.5 -86t55.5 -29q51 0 80 68l57 -29q-76 -143 -200 -143q-78 0 -117 47t-39 115t72 171q14 20 40.5 59.5t36.5 53.5h-456z" glyph-name="Iogonek" horiz-adv-x="716" unicode="Į"/><glyph d="M51 0v80h82q23 0 42.5 4t19.5 59v668q0 43 -76 43h-60v80l310 29v-820q0 -56 19.5 -59.5t39.5 -3.5h84v-80h-2q-76 -104 -76 -217q0 -53 22.5 -82t61.5 -29t70 66l53 -29q-70 -135 -192 -135q-74 0 -111 44t-37 104t72 169l71 109h-393zM369 1270q0 -51 -34 -87t-83 -36 t-85 36t-36 87t36 87t85 36t83 -36t34 -87z" glyph-name="iogonek" horiz-adv-x="563" unicode="į"/><glyph d="M72 0v84h98q82 0 82 61v1100q0 63 -82 64h-98v84h573v-84h-96q-84 0 -84 -64v-1100q0 -61 84 -61h96v-84h-573zM215 1615.5q0 59.5 41 101.5t98.5 42t98.5 -42t41 -101.5t-41 -101t-98.5 -41.5t-98.5 41.5t-41 101z" glyph-name="Idotaccent" horiz-adv-x="716" unicode="İ"/><glyph d="M59 854v80l310 29v-820q0 -56 19.5 -59.5t39.5 -3.5h84v-80h-461v80h82q23 0 42.5 4t19.5 59v668q0 43 -76 43h-60z" glyph-name="dotlessi" horiz-adv-x="563" unicode="ı"/><glyph d="M375 1393h577v-84h-96q-84 0 -84 -64v-745q0 -150 -20.5 -244t-89.5 -170q-109 -115 -271 -115t-260 103.5t-98 217.5t49 181.5t137 67.5q57 0 96 -38.5t39 -100.5t-33.5 -98t-76.5 -36l-60 4q-25 0 -24 -32q0 -70 64 -127.5t132 -57.5t106 20.5t67.5 65t29.5 199.5v905 q0 63 -84 64h-100v84zM762 1749q167 -197 201 -197l2 -2h-2q25 -14 24 -26q0 -23 -41 -23q-109 0 -287 121q-170 -121 -282 -121q-43 0 -43 23q0 12 24 26h-2q4 4 27 19t47 39q57 47 129 141h203z" glyph-name="Jcircumflex" horiz-adv-x="993" unicode="Ĵ"/><glyph d="M43 854v82l328 27v-893q0 -211 -78 -327t-174 -116t-146.5 47.5t-50.5 105.5t33 90t72 32t66.5 -24.5t27.5 -56.5t-8.5 -52.5t-8.5 -30.5q0 -27 35 -27q59 0 60 166v932q0 20 -12.5 31.5t-24.5 12.5t-39 1h-80zM514 1120q0 -27 -33 -26q-61 0 -250 190 q-186 -190 -247 -190q-33 0 -33 26q1 34 83 138t109 192h181q23 -88 116 -205q74 -88 74 -125z" glyph-name="jcircumflex" horiz-adv-x="528" unicode="ĵ"/><glyph d="M72 1393h557v-84h-80q-84 0 -84 -64v-590h10l404 541q31 41 30 66q0 47 -67 47h-86v84h497v-84h-26q-135 0 -226 -119l-243 -318l377 -661q72 -127 186 -127h27v-84h-582v84h106q47 0 48 41q0 25 -17 49l-289 514l-149 -205v-338q0 -61 84 -61h80v-84h-557v84h98 q82 0 82 61v1100q0 63 -82 64h-98v84zM709 -420q0 39 -10.5 54.5t-25 18.5t-42.5 3q-102 0 -103 113q0 53 42 92t114 39t119 -58.5t47 -154.5t-70.5 -198.5t-193.5 -174.5l-37 57q47 31 103.5 100.5t56.5 108.5z" glyph-name="Kcommaaccent" horiz-adv-x="1347" unicode="Ķ"/><glyph d="M565 80q43 0 43 44q0 20 -35 81l-139 231l-74 -96v-195q0 -43 13.5 -54t46.5 -11h29v-80h-388v80h64q23 0 42 4t19 59v1160q0 29 -16 37t-61 8h-48v79l299 29v-981h11l186 256q43 51 43 76q0 47 -76 47h-28v80h395v-80q-72 -6 -128 -45t-118 -117l-94 -121l217 -354 q47 -74 83 -103.5t93 -33.5v-80h-393v80h14zM500 -384q0 40 -16.5 50t-55.5 10q-92 0 -92 103q0 49 38 84t104 35t106.5 -53.5t40.5 -139.5t-62.5 -179.5t-175.5 -156.5l-33 51q43 29 94.5 92.5t51.5 103.5z" glyph-name="kcommaaccent" horiz-adv-x="950" unicode="ķ"/><glyph d="M72 1393h573v-84h-96q-84 0 -84 -64v-1104q0 -57 76 -57h133q61 0 107 15.5t119 80t81 332.5h96v-512h-1005v84h98q82 0 82 61v1100q0 63 -82 64h-98v84zM741 1767q8 0 21 -12v-6q-4 -18 -29 -36.5t-123 -67.5q-244 -137 -313 -138q-41 0 -41 29q0 20 31 47 q71 61 157 184h297z" glyph-name="Lacute" horiz-adv-x="1159" unicode="Ĺ"/><glyph d="M70 1348v79l299 29v-1313q0 -56 19.5 -59.5t39.5 -3.5h84v-80h-461v80h82q23 0 42.5 4t19.5 59v1160q0 29 -16.5 37t-59.5 8h-49zM467 1864q16 0 20 -21v-8q-7 -29 -161 -162t-213 -133q-31 0 -31 31q0 18 22 49q96 138 132 244h231z" glyph-name="lacute" horiz-adv-x="563" unicode="ĺ"/><glyph d="M72 1393h573v-84h-96q-84 0 -84 -64v-1104q0 -57 76 -57h133q61 0 107 15.5t119 80t81 332.5h96v-512h-1005v84h98q82 0 82 61v1100q0 63 -82 64h-98v84zM641 -420q0 39 -10 54.5t-24.5 18.5t-43.5 3q-102 0 -102 113q0 53 41.5 92t113.5 39t119 -58.5t47 -154.5 t-70.5 -198.5t-193.5 -174.5l-37 57q47 31 103.5 100.5t56.5 108.5z" glyph-name="Lcommaaccent" horiz-adv-x="1159" unicode="Ļ"/><glyph d="M70 1348v79l299 29v-1313q0 -56 19.5 -59.5t39.5 -3.5h84v-80h-461v80h82q23 0 42.5 4t19.5 59v1160q0 29 -16.5 37t-59.5 8h-49zM319 -384q0 40 -16 50t-55 10q-92 0 -92 103q0 49 37.5 84t103.5 35t106.5 -53.5t40.5 -139.5t-62 -179.5t-175 -156.5l-33 51 q43 29 94 92.5t51 103.5z" glyph-name="lcommaaccent" horiz-adv-x="563" unicode="ļ"/><glyph d="M72 1393h573v-84h-96q-84 0 -84 -64v-1104q0 -57 76 -57h133q61 0 107 15.5t119 80t81 332.5h96v-512h-1005v84h98q82 0 82 61v1100q0 63 -82 64h-98v84zM930 1102q0 39 -10.5 54t-24.5 18.5t-43 3.5q-102 0 -102 112q0 53 42 92t114 39t118.5 -58.5t46.5 -154.5 t-70.5 -198t-193.5 -174l-37 57q47 31 103.5 100.5t56.5 108.5z" glyph-name="Lcaron" horiz-adv-x="1159" unicode="Ľ"/><glyph d="M70 1348v79l299 29v-1313q0 -56 19.5 -59.5t39.5 -3.5h84v-80h-461v80h82q23 0 42.5 4t19.5 59v1160q0 29 -16.5 37t-59.5 8h-49zM608 1140q0 40 -16.5 50t-54.5 10q-92 0 -93 103q0 49 38 83.5t104 34.5t106.5 -53t40.5 -139t-62 -179.5t-175 -156.5l-33 51 q43 29 94 92.5t51 103.5z" glyph-name="lcaron" horiz-adv-x="702" unicode="ľ"/><glyph d="M72 1393h573v-84h-96q-84 0 -84 -64v-1104q0 -57 76 -57h133q61 0 107 15.5t119 80t81 332.5h96v-512h-1005v84h98q82 0 82 61v1100q0 63 -82 64h-98v84zM975 807q0 -51 -34 -87t-83 -36t-85 36t-36 87t36 87t85 36t83 -36t34 -87z" glyph-name="Ldot" horiz-adv-x="1159" unicode="Ŀ"/><glyph d="M70 1348v79l299 29v-1313q0 -56 19.5 -59.5t39.5 -3.5h84v-80h-461v80h82q23 0 42.5 4t19.5 59v1160q0 29 -16.5 37t-59.5 8h-49zM666 682q0 -43 -29 -72.5t-72 -29.5t-73.5 29.5t-30.5 72.5t30.5 72.5t73.5 29.5t72 -29.5t29 -72.5z" glyph-name="ldot" horiz-adv-x="563" unicode="ŀ"/><glyph d="M72 1393h573v-84h-96q-84 0 -84 -64v-397l246 270l61 -61l-307 -336v-580q0 -57 76 -57h133q61 0 107 15.5t119 80t81 332.5h96v-512h-1005v84h98q82 0 82 61v342l-193 -208l-59 59l252 276v631q0 63 -82 64h-98v84z" glyph-name="Lslash" horiz-adv-x="1159" unicode="Ł"/><glyph d="M195 1303q0 29 -16.5 37t-59.5 8h-49v79l299 29v-594l188 156l47 -66l-235 -194v-615q0 -56 19.5 -59.5t39.5 -3.5h84v-80h-461v80h82q23 0 42.5 4t19.5 59v471l-177 -145l-47 66l224 184v584z" glyph-name="lslash" horiz-adv-x="583" unicode="ł"/><glyph d="M1049 381v864q0 63 -86 64h-82v84h462v-84h-100q-84 0 -84 -64v-1274h-106l-678 1069h-10v-895q0 -61 84 -61h81v-84h-458v84h98q82 0 82 61v1100q0 63 -82 64h-98v84h321l643 -1012h13zM1014 1767q8 0 20 -12v-6q-4 -18 -30 -37t-121 -67q-244 -137 -314 -138 q-41 0 -41 29q0 20 31 47q72 61 158 184h297z" glyph-name="Nacute" horiz-adv-x="1415" unicode="Ń"/><glyph d="M70 854v80l295 29v-168h8q33 74 97.5 121t158.5 47t149.5 -50.5t70.5 -116t15 -161.5v-492q0 -55 19.5 -59t42.5 -4h63v-80h-405v80h45q20 0 30.5 2t20.5 16.5t10 44.5v488q0 231 -115 231q-63 0 -113 -61.5t-71.5 -134t-21.5 -129.5v-394q0 -55 20.5 -59t40.5 -4h43v-80 h-403v80h63q23 0 42.5 4t19.5 59v643q0 45 -14.5 56.5t-63.5 11.5h-47zM752 1417q16 0 20 -20v-8q-6 -29 -161 -162t-214 -133q-31 0 -30 30q-1 18 21 49q94 135 132 244h232z" glyph-name="nacute" horiz-adv-x="1042" unicode="ń"/><glyph d="M1049 381v864q0 63 -86 64h-82v84h462v-84h-100q-84 0 -84 -64v-1274h-106l-678 1069h-10v-895q0 -61 84 -61h81v-84h-458v84h98q82 0 82 61v1100q0 63 -82 64h-98v84h321l643 -1012h13zM713 -420q0 39 -10.5 54.5t-24.5 18.5t-43 3q-102 0 -103 113q0 53 42 92t114 39 t119 -58.5t47 -154.5t-70.5 -198.5t-193.5 -174.5l-37 57q47 31 103.5 100.5t56.5 108.5z" glyph-name="Ncommaaccent" horiz-adv-x="1415" unicode="Ņ"/><glyph d="M70 854v80l295 29v-168h8q33 74 97.5 121t158.5 47t149.5 -50.5t70.5 -116t15 -161.5v-492q0 -55 19.5 -59t42.5 -4h63v-80h-405v80h45q20 0 30.5 2t20.5 16.5t10 44.5v488q0 231 -115 231q-63 0 -113 -61.5t-71.5 -134t-21.5 -129.5v-394q0 -55 20.5 -59t40.5 -4h43v-80 h-403v80h63q23 0 42.5 4t19.5 59v643q0 45 -14.5 56.5t-63.5 11.5h-47zM553 -384q0 40 -16.5 50t-55.5 10q-92 0 -92 103q0 49 37.5 84t103.5 35t107 -53.5t41 -139.5t-62.5 -179.5t-175.5 -156.5l-32 51q43 29 94 92.5t51 103.5z" glyph-name="ncommaaccent" horiz-adv-x="1042" unicode="ņ"/><glyph d="M1049 381v864q0 63 -86 64h-82v84h462v-84h-100q-84 0 -84 -64v-1274h-106l-678 1069h-10v-895q0 -61 84 -61h81v-84h-458v84h98q82 0 82 61v1100q0 63 -82 64h-98v84h321l643 -1012h13zM983 1755q41 0 41 -22q0 -12 -25 -27h2q-60 -30 -202 -199h-203q-72 94 -129 142 q-25 25 -47 39t-27 18h2q-25 14 -24 27q0 23 43 22q117 0 282 -123q174 123 287 123z" glyph-name="Ncaron" horiz-adv-x="1415" unicode="Ň"/><glyph d="M70 854v80l295 29v-168h8q33 74 97.5 121t158.5 47t149.5 -50.5t70.5 -116t15 -161.5v-492q0 -55 19.5 -59t42.5 -4h63v-80h-405v80h45q20 0 30.5 2t20.5 16.5t10 44.5v488q0 231 -115 231q-63 0 -113 -61.5t-71.5 -134t-21.5 -129.5v-394q0 -55 20.5 -59t40.5 -4h43v-80 h-403v80h63q23 0 42.5 4t19.5 59v643q0 45 -14.5 56.5t-63.5 11.5h-47zM272 1450q61 0 248 -190q188 190 250 190q33 0 33 -27q0 -37 -84 -139t-107 -190h-180q-27 88 -110 191t-82 138q0 27 32 27z" glyph-name="ncaron" horiz-adv-x="1042" unicode="ň"/><glyph d="M613 1421q251 0 400.5 -207.5t149.5 -517t-149.5 -517.5t-400.5 -208t-401.5 208t-150.5 517.5t150.5 517t401.5 207.5zM613 59q134 0 224.5 157t90.5 478t-90 480t-223.5 159t-225.5 -158.5t-92 -480.5t91 -478.5t225 -156.5zM330 1556v103h577v-103h-577z" glyph-name="Omacron" horiz-adv-x="1224" unicode="Ō"/><glyph d="M858 467q0 -80 -22.5 -163t-66.5 -159.5t-125 -125t-185.5 -48.5t-185 48.5t-125 125t-67 159.5t-22.5 163t22.5 163t67 159.5t125 125t185 48.5t185.5 -48.5t125 -125t66.5 -159.5t22.5 -163zM266 467q0 -414 192.5 -414t192.5 414t-192.5 414t-192.5 -414zM172 1190 v102h578v-102h-578z" glyph-name="omacron" horiz-adv-x="917" unicode="ō"/><glyph d="M613 1421q251 0 400.5 -207.5t149.5 -517t-149.5 -517.5t-400.5 -208t-401.5 208t-150.5 517.5t150.5 517t401.5 207.5zM613 59q134 0 224.5 157t90.5 478t-90 480t-223.5 159t-225.5 -158.5t-92 -480.5t91 -478.5t225 -156.5zM618 1632q82 0 133.5 50.5t55.5 148.5h92 q0 -137 -73.5 -229.5t-207.5 -92.5t-205 91.5t-73 230.5h90q12 -199 188 -199z" glyph-name="Obreve" horiz-adv-x="1224" unicode="Ŏ"/><glyph d="M858 467q0 -80 -22.5 -163t-66.5 -159.5t-125 -125t-185.5 -48.5t-185 48.5t-125 125t-67 159.5t-22.5 163t22.5 163t67 159.5t125 125t185 48.5t185.5 -48.5t125 -125t66.5 -159.5t22.5 -163zM266 467q0 -414 192.5 -414t192.5 414t-192.5 414t-192.5 -414zM195 1430h94 q8 -197 171 -197t175 197h96q0 -135 -69.5 -225.5t-200.5 -90.5t-198.5 88.5t-67.5 227.5z" glyph-name="obreve" horiz-adv-x="917" unicode="ŏ"/><glyph d="M613 1421q251 0 400.5 -207.5t149.5 -517t-149.5 -517.5t-400.5 -208t-401.5 208t-150.5 517.5t150.5 517t401.5 207.5zM613 59q134 0 224.5 157t90.5 478t-90 480t-223.5 159t-225.5 -158.5t-92 -480.5t91 -478.5t225 -156.5zM1167 1749q16 0 23 -16q-4 -24 -66.5 -57.5 t-74.5 -41.5q-227 -127 -279 -127t-53 27q0 10 8 14h-4q8 20 31 37q67 51 141 164h274zM705 1749q14 0 20 -16q-12 -34 -141 -99q-232 -127 -280 -127t-48 27q0 18 51 64t123 151h275z" glyph-name="Ohungarumlaut" horiz-adv-x="1224" unicode="Ő"/><glyph d="M858 467q0 -80 -22.5 -163t-66.5 -159.5t-125 -125t-185.5 -48.5t-185 48.5t-125 125t-67 159.5t-22.5 163t22.5 163t67 159.5t125 125t185 48.5t185.5 -48.5t125 -125t66.5 -159.5t22.5 -163zM266 467q0 -414 192.5 -414t192.5 414t-192.5 414t-192.5 -414zM958 1372 q18 0 19 -16q-5 -20 -40.5 -39t-43.5 -24t-21.5 -12t-21.5 -13q-199 -115 -249 -115t-50 25q-1 18 55 68t103 126h249zM569 1372q12 0 19 -16q-4 -16 -17.5 -27t-56.5 -33t-53 -28q-207 -115 -252 -115q-45 1 -45 23t54 72t104 124h247z" glyph-name="ohungarumlaut" horiz-adv-x="917" unicode="ő"/><glyph d="M1735 905h-97q-25 225 -92 314.5t-215 89.5h-145q-84 0 -84 -64v-500h108q80 0 108 48.5t28 171.5v49h96v-627h-96v41q0 168 -43 201t-89 33h-112v-517q0 -61 84 -61h178q72 0 125 30.5t101 105.5t48 265v37h97v-522h-963q-70 -29 -158 -29q-252 0 -402.5 208 t-150.5 517.5t150.5 517t402.5 207.5q86 0 156 -28h965v-488zM614 59q100 0 187.5 69t87.5 208v719q0 109 -73 193.5t-204 84.5t-223 -158.5t-92 -480.5t91 -478.5t226 -156.5z" glyph-name="OE" horiz-adv-x="1828" unicode="Œ"/><glyph d="M1022 -29q-166 0 -272 152q-106 -152 -291 -152q-104 0 -185 48.5t-125.5 125t-67 159.5t-22.5 163t22.5 163t67 159.5t125 125t185.5 48.5q184 0 291 -152q102 152 262 152t252 -127t92 -297v-88h-502q0 -385 193 -385q147 -1 217 196l77 -33q-92 -258 -319 -258z M266 467q0 -414 192.5 -414t192.5 414t-192.5 414t-192.5 -414zM854 530h272q31 0 31 41v47q0 135 -43.5 199t-103.5 64t-108 -90.5t-48 -260.5z" glyph-name="oe" horiz-adv-x="1415" unicode="œ"/><glyph d="M72 1393h575q268 0 392 -94.5t124 -251.5q0 -125 -95 -227.5t-277 -114.5v-17q182 -31 231 -278q6 -31 16 -98t24.5 -124t57.5 -57q68 0 68 168v37h96v-60q0 -100 -31.5 -171.5t-82 -102.5t-123.5 -31q-119 0 -166 97.5t-80 337.5q-8 61 -16.5 95t-44.5 106.5t-181 72.5 h-94v-512q0 -27 3 -41t22.5 -28.5t58.5 -14.5h80v-84h-557v84h98q37 0 56.5 14.5t22.5 28.5t3 41v1057q0 27 -3 41t-22.5 28.5t-56.5 14.5h-98v84zM465 768h139q147 0 207.5 45t88.5 101t28 128t-22.5 124.5t-73.5 97.5t-152 45h-139q-35 0 -52.5 -13.5t-20.5 -28t-3 -38.5 v-461zM901 1767q8 0 21 -12v-6q-4 -18 -29 -36.5t-123 -67.5q-244 -137 -313 -138q-41 0 -41 29q0 20 30 47q72 61 158 184h297z" glyph-name="Racute" horiz-adv-x="1331" unicode="Ŕ"/><glyph d="M545 836q-51 0 -112.5 -135.5t-61.5 -239.5v-316q0 -45 11 -55t46 -10h84v-80h-440v80h63q23 0 42.5 4t19.5 59v666q0 45 -52 45h-75v82l297 27v-211h10q33 84 97.5 147.5t148.5 63.5t119.5 -42.5t35.5 -102.5t-32 -102t-84 -42t-78.5 28.5t-26.5 73.5l6 35q0 25 -18 25z M662 1417q16 0 20 -20v-8q-6 -29 -161 -162t-214 -133q-31 0 -31 30q0 18 22 49q96 138 132 244h232z" glyph-name="racute" horiz-adv-x="802" unicode="ŕ"/><glyph d="M72 1393h575q268 0 392 -94.5t124 -251.5q0 -125 -95 -227.5t-277 -114.5v-17q182 -31 231 -278q6 -31 16 -98t24.5 -124t57.5 -57q68 0 68 168v37h96v-60q0 -100 -31.5 -171.5t-82 -102.5t-123.5 -31q-119 0 -166 97.5t-80 337.5q-8 61 -16.5 95t-44.5 106.5t-181 72.5 h-94v-512q0 -27 3 -41t22.5 -28.5t58.5 -14.5h80v-84h-557v84h98q37 0 56.5 14.5t22.5 28.5t3 41v1057q0 27 -3 41t-22.5 28.5t-56.5 14.5h-98v84zM465 768h139q147 0 207.5 45t88.5 101t28 128t-22.5 124.5t-73.5 97.5t-152 45h-139q-35 0 -52.5 -13.5t-20.5 -28t-3 -38.5 v-461zM711 -420q0 39 -10.5 54.5t-24.5 18.5t-43 3q-102 0 -103 113q0 53 42 92t114 39t119 -58.5t47 -154.5t-70.5 -198.5t-193.5 -174.5l-37 57q47 31 103.5 100.5t56.5 108.5z" glyph-name="Rcommaaccent" horiz-adv-x="1331" unicode="Ŗ"/><glyph d="M545 836q-51 0 -112.5 -135.5t-61.5 -239.5v-316q0 -45 11 -55t46 -10h84v-80h-440v80h63q23 0 42.5 4t19.5 59v666q0 45 -52 45h-75v82l297 27v-211h10q33 84 97.5 147.5t148.5 63.5t119.5 -42.5t35.5 -102.5t-32 -102t-84 -42t-78.5 28.5t-26.5 73.5l6 35q0 25 -18 25z M311 -384q0 40 -16 50t-55 10q-92 0 -93 103q0 49 38 84t104 35t106.5 -53.5t40.5 -139.5t-62 -179.5t-175 -156.5l-33 51q43 29 94 92.5t51 103.5z" glyph-name="rcommaaccent" horiz-adv-x="802" unicode="ŗ"/><glyph d="M72 1393h575q268 0 392 -94.5t124 -251.5q0 -125 -95 -227.5t-277 -114.5v-17q182 -31 231 -278q6 -31 16 -98t24.5 -124t57.5 -57q68 0 68 168v37h96v-60q0 -100 -31.5 -171.5t-82 -102.5t-123.5 -31q-119 0 -166 97.5t-80 337.5q-8 61 -16.5 95t-44.5 106.5t-181 72.5 h-94v-512q0 -27 3 -41t22.5 -28.5t58.5 -14.5h80v-84h-557v84h98q37 0 56.5 14.5t22.5 28.5t3 41v1057q0 27 -3 41t-22.5 28.5t-56.5 14.5h-98v84zM465 768h139q147 0 207.5 45t88.5 101t28 128t-22.5 124.5t-73.5 97.5t-152 45h-139q-35 0 -52.5 -13.5t-20.5 -28t-3 -38.5 v-461zM887 1706q-61 -31 -203 -199h-203q-72 94 -129 142q-25 25 -47 39t-26 18h2q-25 14 -25 27q0 23 43 22q117 0 283 -123q173 123 286 123q41 0 41 -22q0 -12 -24 -27h2z" glyph-name="Rcaron" horiz-adv-x="1331" unicode="Ř"/><glyph d="M545 836q-51 0 -112.5 -135.5t-61.5 -239.5v-316q0 -45 11 -55t46 -10h84v-80h-440v80h63q23 0 42.5 4t19.5 59v666q0 45 -52 45h-75v82l297 27v-211h10q33 84 97.5 147.5t148.5 63.5t119.5 -42.5t35.5 -102.5t-32 -102t-84 -42t-78.5 28.5t-26.5 73.5l6 35q0 25 -18 25z M135 1423q0 27 33 27q61 0 248 -190q188 190 250 190q33 0 32 -27q0 -37 -84 -139t-106 -190h-180q-27 88 -110 191t-83 138z" glyph-name="rcaron" horiz-adv-x="802" unicode="ř"/><glyph d="M915 891h-92q-55 438 -323 438q-246 0 -246 -231q0 -120 88 -175.5t192 -90.5q103 -35 131.5 -45.5t80 -33t109.5 -62t97 -113.5t39 -187t-35.5 -195.5t-84 -124.5t-128 -71t-161.5 -29q-205 0 -346 140l-58 -140h-96v592h96q24 -184 114.5 -340.5t285.5 -156.5 q160 0 210 78.5t50 149.5q0 72 -22.5 115.5t-72 75t-84 48t-106.5 40t-88 29.5q-207 78 -285 184.5t-78 251.5q0 182 113 282.5t283 100.5q74 0 155.5 -31.5t130.5 -105.5l45 109h86v-502zM815 1767q8 0 21 -12v-6q-4 -18 -29 -36.5t-123 -67.5q-244 -137 -313 -138 q-41 0 -41 29q0 20 30 47q72 61 158 184h297z" glyph-name="Sacute" horiz-adv-x="1058" unicode="Ś"/><glyph d="M676 934v-320h-84q-37 127 -89 195t-147 68q-61 0 -103 -37.5t-42 -97.5t35 -94t75.5 -48t107.5 -32t127 -40t113.5 -86.5t53.5 -171.5q0 -108 -42 -173.5t-104.5 -95.5t-148.5 -30q-143 0 -231 97l-35 -68h-90v338h96q66 -281 270 -281q162 0 162 150q0 70 -58 107.5 t-142 57.5t-124 36t-118 65t-78 211q0 117 74.5 198t198.5 81t214 -95l31 66h78zM641 1417q16 0 21 -20v-8q-6 -29 -161 -162t-214 -133q-31 0 -31 30q0 18 22 49q96 138 132 244h231z" glyph-name="sacute" horiz-adv-x="784" unicode="ś"/><glyph d="M915 891h-92q-55 438 -323 438q-246 0 -246 -231q0 -120 88 -175.5t192 -90.5q103 -35 131.5 -45.5t80 -33t109.5 -62t97 -113.5t39 -187t-35.5 -195.5t-84 -124.5t-128 -71t-161.5 -29q-205 0 -346 140l-58 -140h-96v592h96q24 -184 114.5 -340.5t285.5 -156.5 q160 0 210 78.5t50 149.5q0 72 -22.5 115.5t-72 75t-84 48t-106.5 40t-88 29.5q-207 78 -285 184.5t-78 251.5q0 182 113 282.5t283 100.5q74 0 155.5 -31.5t130.5 -105.5l45 109h86v-502zM627 1749q167 -197 200 -197l2 -2h-2q25 -14 25 -26q0 -23 -41 -23q-109 0 -287 121 q-170 -121 -282 -121q-43 0 -43 23q0 12 24 26h-2q5 4 27 19t47 39q57 47 129 141h203z" glyph-name="Scircumflex" horiz-adv-x="1058" unicode="Ŝ"/><glyph d="M676 934v-320h-84q-37 127 -89 195t-147 68q-61 0 -103 -37.5t-42 -97.5t35 -94t75.5 -48t107.5 -32t127 -40t113.5 -86.5t53.5 -171.5q0 -108 -42 -173.5t-104.5 -95.5t-148.5 -30q-143 0 -231 97l-35 -68h-90v338h96q66 -281 270 -281q162 0 162 150q0 70 -58 107.5 t-142 57.5t-124 36t-118 65t-78 211q0 117 74.5 198t198.5 81t214 -95l31 66h78zM649 1120q0 -27 -33 -26q-61 0 -249 190q-186 -190 -248 -190q-33 0 -33 26q0 34 83 138t110 192h180q23 -88 116 -205q74 -88 74 -125z" glyph-name="scircumflex" horiz-adv-x="784" unicode="ŝ"/><glyph d="M631 -268q0 92 -105 92q-6 0 -84 -10l47 163q-141 20 -253 134l-58 -140h-96v592h96q24 -184 114.5 -340.5t285.5 -156.5q160 0 210 78.5t50 149.5q0 72 -22.5 115.5t-72 75t-84 48t-106.5 40t-88 29.5q-207 78 -285 184.5t-78 251.5q0 182 113 282.5t283 100.5 q74 0 155.5 -31.5t130.5 -105.5l45 109h86v-502h-92q-55 438 -323 438q-246 0 -246 -231q0 -120 88 -175.5t192 -90.5q103 -35 131.5 -45.5t80 -33t109.5 -62t97 -113.5t39 -188t-36.5 -195.5t-85 -123.5t-129.5 -71t-169 -29l-18 -73q14 2 43 2q76 0 125 -40t49 -121 t-63 -133t-161 -52t-167 18l16 59l84 -8q63 0 100 22.5t44.5 43t7.5 43.5z" glyph-name="Scedilla" horiz-adv-x="1058" unicode="Ş"/><glyph d="M676 934v-320h-84q-37 127 -89 195t-147 68q-61 0 -103 -37.5t-42 -97.5t35 -94t75.5 -48t107.5 -32t127 -40t113.5 -86.5t53.5 -170.5t-42 -173t-103.5 -97t-147.5 -30l-20 -69q10 2 62 2t98 -38t46 -115t-58 -127t-154 -50t-160 18l20 58q51 -10 93 -10t78 22.5t43 42 t7 39.5q0 88 -98 88q-14 0 -80 -10l45 158q-100 25 -155 88l-35 -68h-90v338h96q66 -281 270 -281q162 0 162 150q0 70 -58 107.5t-142 57.5t-124 36t-118 65t-78 211q0 117 74.5 198t198.5 81t214 -95l31 66h78z" glyph-name="scedilla" horiz-adv-x="784" unicode="ş"/><glyph d="M915 891h-92q-55 438 -323 438q-246 0 -246 -231q0 -120 88 -175.5t192 -90.5q103 -35 131.5 -45.5t80 -33t109.5 -62t97 -113.5t39 -187t-35.5 -195.5t-84 -124.5t-128 -71t-161.5 -29q-205 0 -346 140l-58 -140h-96v592h96q24 -184 114.5 -340.5t285.5 -156.5 q160 0 210 78.5t50 149.5q0 72 -22.5 115.5t-72 75t-84 48t-106.5 40t-88 29.5q-207 78 -285 184.5t-78 251.5q0 182 113 282.5t283 100.5q74 0 155.5 -31.5t130.5 -105.5l45 109h86v-502zM805 1706q-61 -31 -203 -199h-203q-72 94 -129 142q-25 25 -47 39t-26 18h2 q-25 14 -25 27q0 23 43 22q117 0 283 -123q173 123 286 123q41 0 41 -22q0 -12 -24 -27h2z" glyph-name="Scaron" horiz-adv-x="1058" unicode="Š"/><glyph d="M676 934v-320h-84q-37 127 -89 195t-147 68q-61 0 -103 -37.5t-42 -97.5t35 -94t75.5 -48t107.5 -32t127 -40t113.5 -86.5t53.5 -171.5q0 -108 -42 -173.5t-104.5 -95.5t-148.5 -30q-143 0 -231 97l-35 -68h-90v338h96q66 -281 270 -281q162 0 162 150q0 70 -58 107.5 t-142 57.5t-124 36t-118 65t-78 211q0 117 74.5 198t198.5 81t214 -95l31 66h78zM84 1423q0 27 33 27q61 0 248 -190q188 190 249 190q33 0 33 -27q1 -37 -83 -139t-107 -190h-181q-28 88 -110 191t-82 138z" glyph-name="scaron" horiz-adv-x="784" unicode="š"/><glyph d="M641 -268q0 92 -104 92q-12 0 -84 -10l55 186h-223v84h88q39 0 58.5 14.5t22.5 28.5t3 41v1081q0 41 -13.5 54.5t-42.5 13.5q-92 0 -166.5 -107.5t-76.5 -341.5h-97v525h1006v-525h-98q-6 236 -78 342.5t-164 106.5q-33 0 -45 -14.5t-12 -53.5v-1081q0 -67 26.5 -75.5 t57.5 -8.5h88v-84h-252l-27 -102q14 2 43 2q76 0 125 -40t49 -121t-62.5 -133t-160.5 -52t-168 18l17 59l83 -8q63 0 100.5 22.5t44.5 43t7 43.5z" glyph-name="Tcommaaccent" horiz-adv-x="1128" unicode="Ţ"/><glyph d="M10 854v80q236 0 236 389v37h102v-426h232v-80h-232v-606q0 -78 17.5 -118t70.5 -40q96 0 96 264v49h91v-49q0 -377 -220 -383l-20 -69q11 2 63 2t98 -38t46 -115t-59 -127t-155 -50t-159 18l21 58q50 -10 92 -10t78 22.5t43.5 42t7.5 39.5q0 88 -99 88q-14 0 -79 -10 l45 160q-152 43 -152 288v584h-164z" glyph-name="tcommaaccent" horiz-adv-x="684" unicode="ţ"/><glyph d="M61 1393h1006v-525h-98q-6 236 -78 342.5t-164 106.5q-33 0 -45 -14.5t-12 -53.5v-1081q0 -67 26.5 -75.5t57.5 -8.5h88v-84h-557v84h88q39 0 58.5 14.5t22.5 28.5t3 41v1081q0 41 -13.5 54.5t-42.5 13.5q-92 0 -166.5 -107.5t-76.5 -341.5h-97v525zM848 1755 q41 0 41 -22q0 -12 -25 -27h2q-60 -30 -202 -199h-203q-72 94 -129 142q-26 25 -48 39t-26 18h2q-25 14 -24 27q0 23 43 22q117 0 282 -123q174 123 287 123z" glyph-name="Tcaron" horiz-adv-x="1128" unicode="Ť"/><glyph d="M10 854v80q236 0 236 389v37h102v-426h232v-80h-232v-606q0 -78 17.5 -118t70.5 -40q96 0 96 264v49h91v-49q0 -383 -228 -383q-221 0 -221 299v584h-164zM766 1140q0 40 -16.5 50t-55.5 10q-92 0 -92 103q0 49 38 83.5t104 34.5t106.5 -53t40.5 -139t-62.5 -179.5 t-175.5 -156.5l-32 51q43 29 94 92.5t51 103.5z" glyph-name="tcaron" horiz-adv-x="860" unicode="ť"/><glyph d="M37 1393h557v-84h-90q-39 0 -56.5 -19.5t-17.5 -66.5v-797q0 -213 72.5 -285.5t191.5 -72.5q293 0 293 389v657q0 127 -32.5 161t-120.5 34h-37v84h491v-84h-45q-78 0 -110.5 -35t-32.5 -160v-659q0 -178 -42 -253t-109 -153t-265 -78q-467 0 -467 490v760 q0 49 -16.5 68.5t-53.5 19.5h-110v84zM391 1556v103h578v-103h-578z" glyph-name="Umacron" horiz-adv-x="1320" unicode="Ū"/><glyph d="M53 854v80l299 29v-660q0 -231 115 -231q66 0 136.5 86.5t70.5 238.5v412q0 29 -16.5 37t-59.5 8h-49v80l299 29v-816q0 -45 14.5 -56t63.5 -11h47v-80h-291v150h-8q-72 -178 -252 -179q-143 0 -193.5 89.5t-50.5 238.5v510q0 29 -16.5 37t-59.5 8h-49zM201 1190v102h577 v-102h-577z" glyph-name="umacron" horiz-adv-x="1038" unicode="ū"/><glyph d="M37 1393h557v-84h-90q-39 0 -56.5 -19.5t-17.5 -66.5v-797q0 -213 72.5 -285.5t191.5 -72.5q293 0 293 389v657q0 127 -32.5 161t-120.5 34h-37v84h491v-84h-45q-78 0 -110.5 -35t-32.5 -160v-659q0 -178 -42 -253t-109 -153t-265 -78q-467 0 -467 490v760 q0 49 -16.5 68.5t-53.5 19.5h-110v84zM674 1632q82 0 133 50.5t55 148.5h92q0 -137 -73.5 -229.5t-207.5 -92.5t-205 91.5t-73 230.5h90q12 -199 189 -199z" glyph-name="Ubreve" horiz-adv-x="1320" unicode="Ŭ"/><glyph d="M53 854v80l299 29v-660q0 -231 115 -231q66 0 136.5 86.5t70.5 238.5v412q0 29 -16.5 37t-59.5 8h-49v80l299 29v-816q0 -45 14.5 -56t63.5 -11h47v-80h-291v150h-8q-72 -178 -252 -179q-143 0 -193.5 89.5t-50.5 238.5v510q0 29 -16.5 37t-59.5 8h-49zM223 1430h94 q8 -197 171 -197t176 197h96q0 -135 -69 -225.5t-201 -90.5t-199.5 88.5t-67.5 227.5z" glyph-name="ubreve" horiz-adv-x="1038" unicode="ŭ"/><glyph d="M37 1393h557v-84h-90q-39 0 -56.5 -19.5t-17.5 -66.5v-797q0 -213 72.5 -285.5t191.5 -72.5q293 0 293 389v657q0 127 -32.5 161t-120.5 34h-37v84h491v-84h-45q-78 0 -110.5 -35t-32.5 -160v-659q0 -178 -42 -253t-109 -153t-265 -78q-467 0 -467 490v760 q0 49 -16.5 68.5t-53.5 19.5h-110v84zM887 1691q0 -91 -62.5 -157t-149.5 -66t-147.5 64.5t-60.5 157t59.5 156t148.5 63.5t150.5 -63.5t61.5 -154.5zM778 1688q0 53 -29.5 86.5t-73.5 33.5t-73 -33.5t-29 -85.5t32 -86t71 -34t70.5 33t31.5 86z" glyph-name="Uring" horiz-adv-x="1320" unicode="Ů"/><glyph d="M53 854v80l299 29v-660q0 -231 115 -231q66 0 136.5 86.5t70.5 238.5v412q0 29 -16.5 37t-59.5 8h-49v80l299 29v-816q0 -45 14.5 -56t63.5 -11h47v-80h-291v150h-8q-72 -178 -252 -179q-143 0 -193.5 89.5t-50.5 238.5v510q0 29 -16.5 37t-59.5 8h-49zM702 1296 q0 -90 -62 -154.5t-152 -64.5t-149.5 64.5t-59.5 154.5t60 153.5t149 63.5t151.5 -63.5t62.5 -153.5zM592 1293q0 54 -28.5 90t-74 36t-74 -35.5t-28.5 -89.5t32.5 -88.5t70.5 -34.5t70 34t32 88z" glyph-name="uring" horiz-adv-x="1038" unicode="ů"/><glyph d="M37 1393h557v-84h-90q-39 0 -56.5 -19.5t-17.5 -66.5v-797q0 -213 72.5 -285.5t191.5 -72.5q293 0 293 389v657q0 127 -32.5 161t-120.5 34h-37v84h491v-84h-45q-78 0 -110.5 -35t-32.5 -160v-659q0 -178 -42 -253t-109 -153t-265 -78q-467 0 -467 490v760 q0 49 -16.5 68.5t-53.5 19.5h-110v84zM1219 1749q16 0 22 -16q-4 -24 -66.5 -57.5t-74.5 -41.5q-228 -127 -280 -127t-52 27q0 10 8 14h-4q8 20 31 37q67 51 141 164h275zM756 1749q14 0 20 -16q-12 -34 -141 -99q-231 -127 -279 -127t-49 27q0 18 51 64t123 151h275z" glyph-name="Uhungarumlaut" horiz-adv-x="1320" unicode="Ű"/><glyph d="M53 854v80l299 29v-660q0 -231 115 -231q66 0 136.5 86.5t70.5 238.5v412q0 29 -16.5 37t-59.5 8h-49v80l299 29v-816q0 -45 14.5 -56t63.5 -11h47v-80h-291v150h-8q-72 -178 -252 -179q-143 0 -193.5 89.5t-50.5 238.5v510q0 29 -16.5 37t-59.5 8h-49zM958 1372 q18 0 19 -16q-5 -20 -40.5 -39t-43.5 -24t-21.5 -12t-21.5 -13q-199 -115 -249 -115t-50 25q-1 18 55 68t103 126h249zM569 1372q12 0 19 -16q-4 -16 -17.5 -27t-56.5 -33t-53 -28q-207 -115 -252 -115q-45 1 -45 23t54 72t104 124h247z" glyph-name="uhungarumlaut" horiz-adv-x="1038" unicode="ű"/><glyph d="M37 1393h557v-84h-90q-39 0 -56.5 -19.5t-17.5 -66.5v-797q0 -213 72.5 -285.5t191.5 -72.5q293 0 293 389v657q0 127 -32.5 161t-120.5 34h-37v84h491v-84h-45q-78 0 -110.5 -35t-32.5 -160v-659q0 -191 -55.5 -282t-125 -137t-163.5 -59q-59 -94 -60 -204 q0 -57 22.5 -86t55.5 -29q51 0 80 68l57 -29q-76 -143 -200 -143q-78 0 -117 47t-39 115t72 171q25 37 57 84q-467 0 -467 490v760q0 49 -16.5 68.5t-53.5 19.5h-110v84z" glyph-name="Uogonek" horiz-adv-x="1320" unicode="Ų"/><glyph d="M682 0v150h-8q-72 -178 -252 -179q-143 0 -193.5 89.5t-50.5 238.5v510q0 29 -16.5 37t-59.5 8h-49v80l299 29v-660q0 -231 115 -231q66 0 136.5 86.5t70.5 238.5v412q0 29 -16.5 37t-59.5 8h-49v80l299 29v-816q0 -45 14.5 -56t63.5 -11h47v-80q-76 -104 -76 -217 q0 -53 22.5 -82t61.5 -29t70 66l53 -29q-70 -135 -193 -135q-74 0 -110.5 44t-36.5 104t72 169l71 109h-225z" glyph-name="uogonek" horiz-adv-x="1038" unicode="ų"/><glyph d="M905 1231q0 78 -78 78h-20v84h410v-84h-19q-72 0 -110.5 -29t-77.5 -111l-269 -561v-467q0 -25 13.5 -41t33.5 -16h132v-84h-566v84h129q20 0 33.5 16.5t13.5 40.5v465l-350 598q-35 59 -66.5 82t-84.5 23h-37v84h524v-84h-49q-63 0 -64 -54q0 -20 19 -53l264 -467 l203 426q16 37 16 70zM584 1621q0 -58 -38 -99t-93 -41t-95.5 41t-40.5 99t39.5 99t95.5 41t94 -41t38 -99zM965 1621q0 -58 -38 -99t-93.5 -41t-95.5 41t-40 98t40 99t95.5 42t93.5 -41t38 -99z" glyph-name="Ydieresis" horiz-adv-x="1210" unicode="Ÿ"/><glyph d="M129 874v519h875v-54l-685 -1243v-12h283q74 0 126 33t94 99.5t42 238.5v51h109v-506h-907v59l684 1237v13h-197q-162 0 -238 -93.5t-88 -341.5h-98zM836 1767q8 0 20 -12v-6q-4 -18 -30 -37t-121 -67q-244 -137 -314 -138q-41 0 -41 29q0 20 31 47q72 61 158 184h297z " glyph-name="Zacute" horiz-adv-x="1085" unicode="Ź"/><glyph d="M106 586v348h660v-16l-463 -838h129q125 0 175 61.5t52 204.5h91v-346h-678v18l458 836h-88q-141 0 -185 -53t-60 -215h-91zM698 1417q16 0 21 -20v-8q-6 -29 -161 -162t-214 -133q-31 0 -31 30q-1 18 21 49q96 138 133 244h231z" glyph-name="zacute" horiz-adv-x="862" unicode="ź"/><glyph d="M129 874v519h875v-54l-685 -1243v-12h283q74 0 126 33t94 99.5t42 238.5v51h109v-506h-907v59l684 1237v13h-197q-162 0 -238 -93.5t-88 -341.5h-98zM416 1615.5q0 59.5 41 101.5t98 42t98 -42t41 -101.5t-41 -101t-98 -41.5t-98 41.5t-41 101z" glyph-name="Zdotaccent" horiz-adv-x="1085" unicode="Ż"/><glyph d="M106 586v348h660v-16l-463 -838h129q125 0 175 61.5t52 204.5h91v-346h-678v18l458 836h-88q-141 0 -185 -53t-60 -215h-91zM530 1255.5q0 -51.5 -33.5 -87t-82.5 -35.5t-85 35.5t-36 87t36 87t85 35.5t82.5 -35.5t33.5 -87z" glyph-name="zdotaccent" horiz-adv-x="862" unicode="ż"/><glyph d="M129 874v519h875v-54l-685 -1243v-12h283q74 0 126 33t94 99.5t42 238.5v51h109v-506h-907v59l684 1237v13h-197q-162 0 -238 -93.5t-88 -341.5h-98zM864 1706q-62 -31 -202 -199h-203q-72 94 -129 142q-26 25 -48 39t-26 18h2q-25 14 -25 27q0 23 43 22q117 0 283 -123 q174 123 287 123q41 0 41 -22q0 -12 -25 -27h2z" glyph-name="Zcaron" horiz-adv-x="1085" unicode="Ž"/><glyph d="M106 586v348h660v-16l-463 -838h129q125 0 175 61.5t52 204.5h91v-346h-678v18l458 836h-88q-141 0 -185 -53t-60 -215h-91zM184 1450q61 0 248 -190q188 190 250 190q33 0 33 -27q0 -37 -84 -139t-107 -190h-180q-27 88 -110 191t-82 138q0 27 32 27z" glyph-name="zcaron" horiz-adv-x="862" unicode="ž"/><glyph d="M580 1421q256 -1 414 -201t157 -519q0 -319 -160 -524q-161 -206 -407 -206q-363 0 -443 272.5t-80 401.5v68h854q2 242 -73 407q-96 205 -268 205t-269 -162q-68 -113 -84 -272h-92v502h86l45 -109q124 137 320 137zM915 625h-573q-10 0 -20 -7q-27 -16 -27 -55v-57 q0 -182 78 -310q79 -128 221 -128t231 168q45 82 67 192t23 197z" glyph-name="uni018F" horiz-adv-x="1212" unicode="Ə"/><glyph d="M446 946q35 0 54.5 26.5t40.5 98.5q47 162 141 275.5t231 113.5q78 0 116 -38t38 -84t-27.5 -69.5t-69.5 -23.5t-60.5 23.5t-18.5 41.5t12 38t12 36.5t-22.5 16.5t-47 -16.5t-63.5 -88t-67 -190.5l-37 -160h141l-20 -76h-142l-147 -632q-145 -610 -406 -611q-57 0 -99 30 t-42 80t24.5 80.5t68.5 30.5t64.5 -22t20.5 -48t-15 -43.5t-15 -33.5t14 -16q78 0 176 413q2 10 4 17l180 755h-141l23 76h79z" glyph-name="florin" unicode="ƒ"/><glyph d="M72 0v84h98q82 0 82 61v1100q0 63 -82 64h-98v84h573v-84h-96q-84 0 -84 -64v-1100q0 -61 84 -61h96v-84h-573zM645 1755q41 0 41 -22q0 -12 -24 -27h2q-54 -21 -203 -199h-203q-72 94 -129 142q-25 25 -47 39t-27 18h2q-25 14 -24 27q0 23 43 22q117 0 282 -123 q174 123 287 123z" glyph-name="uni01CF" horiz-adv-x="716" unicode="Ǐ"/><glyph d="M59 854v80l310 29v-820q0 -56 19.5 -59.5t39.5 -3.5h84v-80h-461v80h82q23 0 42.5 4t19.5 59v668q0 43 -76 43h-60zM-33 1423q0 27 33 27q61 0 248 -190q188 190 250 190q33 0 32 -27q0 -37 -84 -139t-106 -190h-180q-27 88 -110 191t-83 138z" glyph-name="uni01D0" horiz-adv-x="563" unicode="ǐ"/><glyph d="M393 963q154 0 264.5 -137.5t110.5 -354.5t-108 -358.5t-262 -141.5t-246.5 127t-92.5 297v88h504q0 385 -194 385q-147 1 -217 -196l-78 33q92 258 319 258zM563 403h-274q-31 0 -31 -41v-47q0 -132 44 -197t104 -65t108.5 90t48.5 260z" glyph-name="uni01DD" horiz-adv-x="827" unicode="ǝ"/><glyph d="M618 1325q-322 0 -321 -635q0 -335 108.5 -478.5t221.5 -143.5t176 82.5t63 203.5v107q0 45 -9 65.5t-38 20.5h-141v84h573v-84h-125q-47 0 -47 -58v-489h-92l-57 141q-116 -170 -344 -170t-376.5 204t-148.5 522t149.5 521t395.5 203q186 0 291 -121l57 93h84l27 -504 h-100q-18 160 -109.5 298t-237.5 138zM887 1706q-61 -31 -203 -199h-203q-72 94 -129 142q-25 25 -47 39t-26 18h2q-25 14 -25 27q0 23 43 22q117 0 283 -123q173 123 286 123q41 0 41 -22q0 -12 -24 -27h2z" glyph-name="Gcaron" horiz-adv-x="1271" unicode="Ǧ"/><glyph d="M469 295q-70 0 -158 33q-33 -10 -55.5 -39t-22.5 -60q0 -72 101 -71h158q236 0 300 -88t64 -191q0 -102 -102.5 -177t-307.5 -75t-290.5 58.5t-85.5 128.5q0 139 168 180v8q-156 31 -156 166q0 76 43 122t125 85q-113 86 -113 256q0 135 84 233.5t220 98.5t212 -62 q100 127 185 127q131 0 131 -133q0 -113 -90 -113q-35 0 -54.5 22.5t-19.5 49.5l10 59q0 14 -18 15q-35 0 -86 -74q75 -84 75 -225t-87 -237.5t-230 -96.5zM328 625q0 -129 41 -189.5t102 -60.5q125 0 125 268q0 131 -41 185.5t-97 54.5t-93 -64.5t-37 -193.5zM213 -145 q0 -145 252 -146q145 0 203.5 48t58.5 106q0 115 -254 114q-102 0 -181 -30.5t-79 -91.5zM170 1423q0 27 33 27q61 0 248 -190q188 190 249 190q33 0 33 -27q1 -37 -83 -139t-107 -190h-181q-28 88 -110 191t-82 138z" glyph-name="gcaron" horiz-adv-x="968" unicode="ǧ"/><glyph d="M915 891h-92q-55 438 -323 438q-246 0 -246 -231q0 -120 88 -175.5t192 -90.5q103 -35 131.5 -45.5t80 -33t109.5 -62t97 -113.5t39 -187t-35.5 -195.5t-84 -124.5t-128 -71t-161.5 -29q-205 0 -346 140l-58 -140h-96v592h96q24 -184 114.5 -340.5t285.5 -156.5 q160 0 210 78.5t50 149.5q0 72 -22.5 115.5t-72 75t-84 48t-106.5 40t-88 29.5q-207 78 -285 184.5t-78 251.5q0 182 113 282.5t283 100.5q74 0 155.5 -31.5t130.5 -105.5l45 109h86v-502zM590 -420q0 39 -10.5 54.5t-24.5 18.5t-43 3q-102 0 -102 113q0 53 42 92t114 39 t118.5 -58.5t46.5 -154.5t-70.5 -198.5t-193.5 -174.5l-37 57q47 31 103.5 100.5t56.5 108.5z" glyph-name="Scommaaccent" horiz-adv-x="1058" unicode="Ș"/><glyph d="M676 934v-320h-84q-37 127 -89 195t-147 68q-61 0 -103 -37.5t-42 -97.5t35 -94t75.5 -48t107.5 -32t127 -40t113.5 -86.5t53.5 -171.5q0 -108 -42 -173.5t-104.5 -95.5t-148.5 -30q-143 0 -231 97l-35 -68h-90v338h96q66 -281 270 -281q162 0 162 150q0 70 -58 107.5 t-142 57.5t-124 36t-118 65t-78 211q0 117 74.5 198t198.5 81t214 -95l31 66h78zM440 -384q0 40 -16 50t-55 10q-92 0 -93 103q0 49 38 84t104 35t106.5 -53.5t40.5 -139.5t-62 -179.5t-175 -156.5l-33 51q43 29 94 92.5t51 103.5z" glyph-name="scommaaccent" horiz-adv-x="784" unicode="ș"/><glyph d="M61 1393h1006v-525h-98q-6 236 -78 342.5t-164 106.5q-33 0 -45 -14.5t-12 -53.5v-1081q0 -67 26.5 -75.5t57.5 -8.5h88v-84h-557v84h88q39 0 58.5 14.5t22.5 28.5t3 41v1081q0 41 -13.5 54.5t-42.5 13.5q-92 0 -166.5 -107.5t-76.5 -341.5h-97v525zM590 -420 q0 39 -10.5 54.5t-24.5 18.5t-43 3q-102 0 -102 113q0 53 42 92t114 39t118.5 -58.5t46.5 -154.5t-70.5 -198.5t-193.5 -174.5l-37 57q47 31 103.5 100.5t56.5 108.5z" glyph-name="uni021A" horiz-adv-x="1128" unicode="Ț"/><glyph d="M10 854v80q236 0 236 389v37h102v-426h232v-80h-232v-606q0 -78 17.5 -118t70.5 -40q96 0 96 264v49h91v-49q0 -383 -228 -383q-221 0 -221 299v584h-164zM410 -384q0 40 -16.5 50t-55.5 10q-92 0 -92 103q0 49 38 84t104 35t106.5 -53.5t40.5 -139.5t-62.5 -179.5 t-175.5 -156.5l-33 51q43 29 94.5 92.5t51.5 103.5z" glyph-name="uni021B" horiz-adv-x="684" unicode="ț"/><glyph d="M43 854v82l328 27v-893q0 -211 -78 -327t-174 -116t-146.5 47.5t-50.5 105.5t33 90t72 32t66.5 -24.5t27.5 -56.5t-8.5 -52.5t-8.5 -30.5q0 -27 35 -27q59 0 60 166v932q0 20 -12.5 31.5t-24.5 12.5t-39 1h-80z" glyph-name="uni0237" horiz-adv-x="528" unicode="ȷ"/><glyph d="M393 963q154 0 264.5 -137.5t110.5 -354.5t-108 -358.5t-262 -141.5t-246.5 127t-92.5 297v88h504q0 385 -194 385q-147 1 -217 -196l-78 33q92 258 319 258zM563 403h-274q-31 0 -31 -41v-47q0 -132 44 -197t104 -65t108.5 90t48.5 260z" glyph-name="uni0259" horiz-adv-x="827" unicode="ə"/><glyph d="M436 1102q0 39 -10 54t-24.5 18.5t-43.5 3.5q-102 0 -102 112q0 53 42 92t114 39t119 -58.5t47 -154.5t-71 -198t-194 -174l-37 57q47 31 103.5 100.5t56.5 108.5z" glyph-name="afii57929" horiz-adv-x="833" unicode="ʼ"/><glyph d="M819 1120q0 -27 -33 -26q-61 0 -249 190q-186 -190 -248 -190q-33 0 -33 26q0 34 83 138t110 192h180q23 -88 116 -205q74 -88 74 -125z" glyph-name="circumflex" horiz-adv-x="1075" unicode="ˆ"/><glyph d="M256 1423q0 27 33 27q61 0 248 -190q188 190 249 190q33 0 33 -27q1 -37 -83 -139t-107 -190h-180q-27 88 -110 191t-83 138z" glyph-name="caron" horiz-adv-x="1075" unicode="ˇ"/><glyph d="M256 1430h94q8 -197 171 -197t175 197h97q0 -135 -70 -225.5t-201 -90.5t-198.5 88.5t-67.5 227.5z" glyph-name="breve" horiz-adv-x="1048" unicode="˘"/><glyph d="M494 1255.5q0 -51.5 -34 -87t-83 -35.5t-85 35.5t-36 87t36 87t85 35.5t83 -35.5t34 -87z" glyph-name="dotaccent" horiz-adv-x="749" unicode="˙"/><glyph d="M680 1296q0 -90 -62.5 -154.5t-151.5 -64.5t-149.5 64.5t-60.5 154.5t60.5 153.5t149.5 63.5t151.5 -63.5t62.5 -153.5zM569 1293q0 54 -28.5 90t-73.5 36t-73.5 -35.5t-28.5 -89.5t32.5 -88.5t70.5 -34.5t69.5 34t31.5 88z" glyph-name="ring" horiz-adv-x="935" unicode="˚"/><glyph d="M320 -328q38 0 69 66l53 -29q-70 -135 -192 -135q-74 0 -111 44t-37 104t72 169l72 109h65q-76 -104 -75 -217q0 -53 23 -82t61 -29z" glyph-name="ogonek" horiz-adv-x="544" unicode="˛"/><glyph d="M417 1212q-38 0 -79 -73h-82q23 92 74.5 149.5t109.5 57.5t158 -37q8 -2 60 -27t79.5 -10.5t53.5 55.5h-3l9 14h80q-55 -207 -175 -206q-63 1 -155 39t-130 38z" glyph-name="tilde" horiz-adv-x="1132" unicode="˜"/><glyph d="M1051 1372q18 0 18 -16q-5 -20 -40.5 -39t-43.5 -24t-21.5 -12t-21.5 -13q-199 -115 -249 -115t-50 25q-1 18 55 68t103 126h250zM662 1372q12 0 18 -16q-4 -16 -18 -27t-56 -33t-53 -28q-209 -115 -253 -115q-44 1 -44 23t54 72t104 124h248z" glyph-name="hungarumlaut" horiz-adv-x="1325" unicode="˝"/><glyph d="M-176 1415q20 0 19 -28q-1 -27 -157 -161t-214 -134q-31 0 -31 30q0 16 39 76q75 100 110 217h234z" glyph-name="acutecomb" horiz-adv-x="4" unicode="́"/><glyph d="M569 1171l-342 -997h672zM1186 0h-1125l492 1421h147z" glyph-name="Delta" horiz-adv-x="1247" unicode="Δ"/><glyph d="M569 1171l-342 -997h672zM1186 0h-1125l492 1421h147z" glyph-name="Delta" horiz-adv-x="1247" unicode="∆"/><glyph d="M332 164h153v80q-152 43 -264 187t-112 366q0 166 62 305t194.5 229t312.5 90q266 0 417.5 -182.5t151.5 -422.5t-112.5 -384.5t-264.5 -187.5v-80h160q61 0 104.5 27.5t59.5 148.5h68l-31 -340h-459v287q240 135 240 508q0 279 -94 408.5t-242 129.5t-240 -130t-92 -408 q0 -371 240 -508v-287h-453l-33 340h72q16 -122 58.5 -149t103.5 -27z" glyph-name="Omega" horiz-adv-x="1359" unicode="Ω"/><glyph d="M332 164h153v80q-152 43 -264 187t-112 366q0 166 62 305t194.5 229t312.5 90q266 0 417.5 -182.5t151.5 -422.5t-112.5 -384.5t-264.5 -187.5v-80h160q61 0 104.5 27.5t59.5 148.5h68l-31 -340h-459v287q240 135 240 508q0 279 -94 408.5t-242 129.5t-240 -130t-92 -408 q0 -371 240 -508v-287h-453l-33 340h72q16 -122 58.5 -149t103.5 -27z" glyph-name="Omega" horiz-adv-x="1359" unicode="Ω"/><glyph d="M465 -29q-68 0 -105.5 21.5t-70.5 77.5l-10 -2q8 -51 35.5 -176t27.5 -164t-35 -70t-81 -31t-76.5 30t-30.5 70q-1 39 29 207t30 373v500q0 31 -14 39t-47 8h-64v80l297 29v-637q0 -135 32 -194.5t104 -59.5t129 99t57 226v410q0 31 -15.5 39t-54.5 8h-53v80l299 29v-818 q0 -39 12 -52t47 -13h66v-80h-295l4 123h-12q-70 -152 -205 -152z" glyph-name="mu" horiz-adv-x="1038" unicode="μ"/><glyph d="M758 823v-620q0 -143 57 -144q28 0 36.5 17.5t14.5 32t11 20.5l69 -23q-55 -135 -174 -135q-188 0 -188 234v618h-238v-630q0 -88 -26.5 -155t-88.5 -67q-96 0 -96 101q0 41 10.5 58t21.5 36.5t15 26.5q47 80 60.5 186t13.5 299v145h-27q-88 0 -127 -56t-39 -126h-69v21 q0 301 274 301h678l-41 -140h-147z" glyph-name="pi" horiz-adv-x="991" unicode="π"/><glyph d="M1098 905h-97q-25 225 -92 314.5t-215 89.5h-145q-84 0 -84 -64v-500h108q80 0 108 48.5t28 171.5v49h96v-627h-96v41q0 168 -43 201t-88 33h-113v-517q0 -61 84 -61h178q72 0 173 58t101 343v37h97v-522h-1026v84h98q82 0 82 61v1100q0 63 -82 64h-98v84h1026v-488z M563 1621q0 -58 -38 -99t-93 -41t-95 41t-40 99t40 99t95 41t93 -41t38 -99zM944 1621q0 -58 -38 -99t-93 -41t-95 41t-40 98t40 99t95 42t93 -41t38 -99z" glyph-name="afii10023" horiz-adv-x="1191" unicode="Ё"/><glyph d="M285 0v84h88q39 0 58.5 14.5t22.5 28.5t3 41v1081q0 41 -13.5 54.5t-49.5 13.5q-80 0 -156 -90t-80 -338h-97v504h1006v-484h-98q-10 408 -242 408q-33 0 -44 -14.5t-11 -53.5v-522q156 66 313 66q385 0 385 -387q0 -197 -98 -316t-224 -119t-202 55.5t-76 137.5 q0 145 109 145q115 0 114 -112q0 -23 -15 -50.5t-15 -35.5q0 -53 69 -54q33 0 55.5 22.5t40 102.5t17.5 220t-47 214t-175 74t-251 -72l-2 -618h-385z" glyph-name="afii10051" horiz-adv-x="1429" unicode="Ђ"/><glyph d="M1014 909h-78q-20 195 -88 297.5t-217 102.5h-111q-33 0 -44 -15.5t-11 -54.5v-1094q0 -61 84 -61h98v-84h-575v84h98q82 0 82 61v1100q0 63 -82 64h-98v84h942v-484zM895 1767q8 0 20 -12v-6q-4 -18 -27.5 -36t-123.5 -68q-244 -137 -313 -138q-41 0 -41 29q0 20 30 47 q72 61 158 184h297z" glyph-name="afii10052" horiz-adv-x="1038" unicode="Ѓ"/><glyph d="M610 -29q-141 0 -249.5 64.5t-204 227.5t-95.5 462q0 182 60.5 338t185.5 257t291 101q72 0 135.5 -22.5t88 -40t59.5 -47.5l43 82h90l26 -500h-96q-39 219 -115.5 325.5t-216.5 106.5t-226.5 -136t-88.5 -433h483v-90h-483q8 -182 54 -325.5t118 -208t172 -64.5 q263 -1 322 405h100q-70 -502 -453 -502z" glyph-name="afii10053" horiz-adv-x="1124" unicode="Є"/><glyph d="M915 891h-92q-55 438 -323 438q-246 0 -246 -231q0 -120 88 -175.5t192 -90.5q103 -35 131.5 -45.5t80 -33t109.5 -62t97 -113.5t39 -187t-35.5 -195.5t-84 -124.5t-128 -71t-161.5 -29q-205 0 -346 140l-58 -140h-96v592h96q24 -184 114.5 -340.5t285.5 -156.5 q160 0 210 78.5t50 149.5q0 72 -22.5 115.5t-72 75t-84 48t-106.5 40t-88 29.5q-207 78 -285 184.5t-78 251.5q0 182 113 282.5t283 100.5q74 0 155.5 -31.5t130.5 -105.5l45 109h86v-502z" glyph-name="afii10054" horiz-adv-x="1058" unicode="Ѕ"/><glyph d="M72 0v84h98q82 0 82 61v1100q0 63 -82 64h-98v84h573v-84h-96q-84 0 -84 -64v-1100q0 -61 84 -61h96v-84h-573z" glyph-name="afii10055" horiz-adv-x="716" unicode="І"/><glyph d="M72 0v84h98q82 0 82 61v1100q0 63 -82 64h-98v84h573v-84h-96q-84 0 -84 -64v-1100q0 -61 84 -61h96v-84h-573zM311 1621q0 -58 -37.5 -99t-93.5 -41t-95.5 41t-39.5 99t40 99t95 41t93 -41t38 -99zM674 1621q0 -58 -38 -99t-93.5 -41t-95 41t-39.5 98t39.5 99t95 42 t93.5 -41t38 -99z" glyph-name="afii10056" horiz-adv-x="716" unicode="Ї"/><glyph d="M375 1393h577v-84h-96q-84 0 -84 -64v-745q0 -150 -20.5 -244t-89.5 -170q-109 -115 -271 -115t-260 103.5t-98 217.5t49 181.5t137 67.5q57 0 96 -38.5t39 -100.5t-33.5 -98t-76.5 -36l-60 4q-25 0 -24 -32q0 -70 64 -127.5t132 -57.5t106 20.5t67.5 65t29.5 199.5v905 q0 63 -84 64h-100v84z" glyph-name="afii10057" horiz-adv-x="993" unicode="Ј"/><glyph d="M1100 784h133q156 0 266.5 -34.5t189 -118t78.5 -228.5q0 -43 -6 -81.5t-34.5 -102t-78 -107.5t-148.5 -78t-232 -34h-561v84h98q82 0 82 61v1100q0 63 -68 64h-102q-88 0 -111.5 -76t-23.5 -260v-86q0 -359 -14.5 -458t-29 -173t-39 -119t-71.5 -105.5t-165 -60.5 t-177 71t-59 163t43 136t102 44t93 -36t34 -79q0 -79 -46 -103t-46 -50q0 -14 19.5 -29.5t43.5 -15.5q44 0 119.5 64.5t75.5 732.5q0 308 -29.5 374t-156.5 66h-29v84h1034v-84h-115q-70 0 -69 -64v-461zM1100 698v-553q0 -61 69 -61h45q317 0 318 315q0 131 -79 215 t-255 84h-98z" glyph-name="afii10058" horiz-adv-x="1798" unicode="Љ"/><glyph d="M1180 784h133q156 0 266.5 -34.5t189 -118t78.5 -228.5q0 -43 -6 -81.5t-34.5 -102t-78 -107.5t-148.5 -78t-232 -34h-562v84h99q82 0 82 61v545h-502v-545q0 -61 84 -61h88v-84h-565v84h98q82 0 82 61v1100q0 63 -82 64h-98v84h565v-84h-88q-84 0 -84 -64v-467h502v467 q0 63 -82 64h-99v84h578v-84h-100q-84 0 -84 -64v-461zM1180 698v-553q0 -61 69 -61h45q317 0 318 315q0 131 -79 215t-255 84h-98z" glyph-name="afii10059" horiz-adv-x="1878" unicode="Њ"/><glyph d="M61 1393h1006v-484h-98q-10 408 -242 408q-33 0 -45 -14.5t-12 -53.5v-506q168 49 327 50q319 0 320 -301v-345q0 -63 82 -63h98v-84h-541v84h64q86 0 86 63v353q0 106 -55 151t-167 45t-214 -45v-483q0 -67 26.5 -75.5t57.5 -8.5h71v-84h-540v84h88q39 0 58.5 14.5 t22.5 28.5t3 41v1081q0 41 -13.5 54.5t-49.5 13.5q-80 0 -156 -90t-80 -338h-97v504z" glyph-name="afii10060" horiz-adv-x="1533" unicode="Ћ"/><glyph d="M465 680v-535q0 -61 84 -61h80v-84h-557v84h98q82 0 82 61v1100q0 63 -82 64h-98v84h561v-84h-84q-84 0 -84 -64v-477h67q100 0 148.5 66.5t72.5 259.5t86.5 260t164.5 67t164.5 -59.5t62.5 -145.5t-39 -126.5t-90 -40.5t-90 30.5t-39 100.5q0 33 24.5 69.5t24.5 54.5 t-11.5 24.5t-19.5 6.5q-100 0 -123 -223q-16 -168 -51 -250t-96 -123v-8q182 -26 220.5 -149.5t49.5 -240.5t25 -166.5t63 -49.5q74 0 78 242h92q0 -176 -53 -286t-168 -110q-164 0 -203.5 129.5t-58.5 288.5t-71 225t-163 66h-67zM950 1767q8 0 21 -12v-6q-4 -18 -29 -36.5 t-123 -67.5q-244 -137 -313 -138q-41 0 -41 29q0 20 31 47q71 61 157 184h297z" glyph-name="afii10061" horiz-adv-x="1294" unicode="Ќ"/><glyph d="M918 1228q0 48 -29 64.5t-90 16.5h-31v84h442v-84h-41q-88 0 -137 -150l-321 -942q-45 -135 -121 -190.5t-154 -55.5q-131 0 -197.5 81t-66.5 174t40 139.5t95 46.5t88 -34t33 -80q0 -82 -49 -112.5t-49 -44.5q0 -27 25.5 -51t76.5 -24q121 0 182 229l-409 893 q-55 121 -176 121h-29v84h575v-84h-65q-80 0 -80 -62q0 -20 21 -67l266 -605h8l170 537q23 68 23 116zM688 1468q-146 0 -223.5 53.5t-77.5 113.5t36 92t84 32t76.5 -23.5t28.5 -54.5t-32.5 -51t-32.5 -35q0 -55 132 -55t132 55q0 14 -33 35.5t-33 51.5t29 53.5t76 23.5 t83 -30.5t36 -88.5t-67.5 -115t-213.5 -57z" glyph-name="afii10062" horiz-adv-x="1189" unicode="Ў"/><glyph d="M1354 1393v-84h-99q-82 0 -81 -62v-1100q0 -63 81 -63h99v-84h-338q-119 0 -182.5 -81t-75.5 -320h-96q-12 253 -69.5 313.5t-98.5 74t-99 13.5h-323v84h96q84 0 84 63v1100q0 61 -84 62h-96v84h561v-84h-86q-82 0 -82 -62v-1100q0 -63 82 -63h330q84 0 84 63v1100 q0 61 -84 62h-84v84h561z" glyph-name="afii10145" horiz-adv-x="1425" unicode="Џ"/><glyph d="M831 84q103 0 103 56q0 27 -6 42l-92 256h-443l-53 -162q-25 -74 -25 -114q0 -78 121 -78h49v-84h-485v84h20q135 0 189 156l414 1181h96l418 -1175q33 -92 73.5 -127t132.5 -35v-84h-569v84h57zM422 526h383l-184 547h-9z" glyph-name="afii10017" horiz-adv-x="1343" unicode="А"/><glyph d="M1055 942h-101q-15 191 -60.5 256.5t-94.5 85t-86 22.5t-103 3h-61q-84 0 -84 -64v-424h176q152 0 259.5 -42t181 -137.5t73.5 -235.5q0 -406 -551 -406h-532v84h98q82 0 82 61v1100q0 63 -82 64h-98v84h983v-451zM465 733v-588q0 -61 84 -61h49q158 0 240 99.5t82 203.5 t-29 170t-91.5 121t-224.5 55h-110z" glyph-name="afii10018" horiz-adv-x="1212" unicode="Б"/><glyph d="M72 1393h569q229 0 337.5 -107.5t108.5 -226.5t-65.5 -207t-179.5 -123v-12q143 -16 230 -114.5t87 -232.5t-64.5 -216t-155.5 -118t-218 -36h-649v84h98q82 0 82 61v1100q0 63 -82 64h-98v84zM465 758h151q252 0 252 266q0 135 -73.5 210t-173.5 75h-72q-84 0 -84 -64 v-487zM465 670v-525q0 -61 84 -61h80q89 0 159 35t103 97.5t33 154.5q0 145 -81 222t-214 77h-164z" glyph-name="afii10019" horiz-adv-x="1212" unicode="В"/><glyph d="M1014 909h-78q-20 195 -88 297.5t-217 102.5h-111q-33 0 -44 -15.5t-11 -54.5v-1094q0 -61 84 -61h98v-84h-575v84h98q82 0 82 61v1100q0 63 -82 64h-98v84h942v-484z" glyph-name="afii10020" horiz-adv-x="1038" unicode="Г"/><glyph d="M168 1393h1032v-84h-92q-84 0 -84 -64v-1100q0 -61 84 -61h92v-483h-82q-23 399 -291 399h-450q-119 0 -202 -90t-89 -309h-82v483h53q68 0 140 43t116.5 485t44.5 542t-32.5 127.5t-128.5 27.5h-29v84zM631 1309q-89 0 -107 -30t-24 -39t-10.5 -41t-6.5 -46 t-12.5 -164.5t-33.5 -321.5t-42.5 -275.5t-29 -153t-9.5 -80.5t16.5 -51t33 -22t47.5 -3h274q84 0 84 61v1102q0 63 -84 64h-96z" glyph-name="afii10021" horiz-adv-x="1271" unicode="Д"/><glyph d="M1098 905h-97q-25 225 -92 314.5t-215 89.5h-145q-84 0 -84 -64v-500h108q80 0 108 48.5t28 171.5v49h96v-627h-96v41q0 168 -43 201t-88 33h-113v-517q0 -61 84 -61h178q72 0 173 58t101 343v37h97v-522h-1026v84h98q82 0 82 61v1100q0 63 -82 64h-98v84h1026v-488z" glyph-name="afii10022" horiz-adv-x="1191" unicode="Е"/><glyph d="M1028 680v-535q0 -61 84 -61h78v-84h-533v84h78q84 0 84 61v535h-67q-111 0 -161 -65.5t-73 -254.5q-32 -289 -107 -339t-147 -50q-115 0 -167 109.5t-52 286.5h90q4 -242 78 -242q65 0 72.5 75.5t12.5 128t9 85.5q18 129 74.5 213t183.5 104v8q-59 41 -94 123t-51 250 q-20 223 -121 223q-8 0 -19.5 -6.5t-11.5 -24.5t24.5 -55t24.5 -69q0 -72 -37.5 -101.5t-89 -29.5t-89.5 40.5t-38 126.5t61.5 145.5t135.5 59.5t121 -22.5t87.5 -66t70.5 -265.5q18 -166 66 -232.5t147 -66.5h67v477q0 63 -84 64h-82v84h541v-84h-82q-84 0 -84 -64v-477h68 q98 0 146 66.5t71 259.5t85.5 260t162.5 67t161.5 -59.5t61.5 -145.5t-38 -126.5t-89 -40.5t-89 29.5t-38 101.5q0 33 24.5 69.5t24.5 54.5t-11.5 24.5t-19.5 6.5q-100 0 -121 -223q-16 -168 -51 -250t-94 -123v-8q127 -20 183.5 -104t74.5 -213q4 -33 11.5 -110.5t20 -128 t62.5 -50.5q74 0 78 242h90q0 -176 -52 -286t-167 -110q-142 0 -189 115t-68 289q-20 173 -70 239t-160 66h-68z" glyph-name="afii10024" horiz-adv-x="1847" unicode="Ж"/><glyph d="M125 866v527h98l35 -93q129 121 302 121t282.5 -106.5t109.5 -235.5t-69.5 -218t-190.5 -122v-12q145 -27 226 -124t81 -247t-124.5 -267.5t-360.5 -117.5q-123 0 -216 39t-165 128.5t-72 185.5t38.5 153.5t104.5 57.5t108 -34.5t42 -94.5t-29.5 -96t-58.5 -36t-32 -11 t-3 -26t15.5 -43t46.5 -60t90 -53.5t135 -21.5t130 33t85 104.5t31 168.5q0 319 -369 319h-63v88h61q189 0 258.5 69t69.5 207t-58.5 208.5t-146.5 70.5q-117 0 -201 -116t-94 -345h-96z" glyph-name="afii10025" horiz-adv-x="1052" unicode="З"/><glyph d="M961 1251q0 57 -72 58h-92v84h559v-84h-99q-84 0 -83 -64v-1087q0 -74 83 -74h99v-84h-557v84h80q82 0 82 74v868l-496 -846v-43q0 -53 47 -53h117v-84h-557v84h98q82 0 82 74v1087q0 63 -82 64h-98v84h557v-84h-80q-84 0 -84 -64v-878l496 845v39z" glyph-name="afii10026" horiz-adv-x="1427" unicode="И"/><glyph d="M961 1251q0 57 -72 58h-92v84h559v-84h-99q-84 0 -83 -64v-1087q0 -74 83 -74h99v-84h-557v84h80q82 0 82 74v868l-496 -846v-43q0 -53 47 -53h117v-84h-557v84h98q82 0 82 74v1087q0 63 -82 64h-98v84h557v-84h-80q-84 0 -84 -64v-878l496 845v39zM720 1468 q-146 0 -223 53.5t-77 113.5t36 92t84 32t76.5 -23.5t28.5 -54.5t-32.5 -51t-32.5 -35q0 -55 132 -55t132 55q0 14 -33 35.5t-33 51.5t29 53.5t76 23.5t82.5 -30.5t35.5 -88.5t-67.5 -115t-213.5 -57z" glyph-name="afii10027" horiz-adv-x="1427" unicode="Й"/><glyph d="M465 680v-535q0 -61 84 -61h80v-84h-557v84h98q82 0 82 61v1100q0 63 -82 64h-98v84h561v-84h-84q-84 0 -84 -64v-477h67q100 0 148.5 66.5t72.5 259.5t86.5 260t164.5 67t164.5 -59.5t62.5 -145.5t-39 -126.5t-90 -40.5t-90 30.5t-39 100.5q0 33 24.5 69.5t24.5 54.5 t-11.5 24.5t-19.5 6.5q-100 0 -123 -223q-16 -168 -51 -250t-96 -123v-8q182 -26 220.5 -149.5t49.5 -240.5t25 -166.5t63 -49.5q74 0 78 242h92q0 -176 -53 -286t-168 -110q-164 0 -203.5 129.5t-58.5 288.5t-71 225t-163 66h-67z" glyph-name="afii10028" horiz-adv-x="1294" unicode="К"/><glyph d="M250 1309v84h1034v-84h-100q-82 0 -82 -64v-1100q0 -61 82 -61h100v-84h-575v84h96q84 0 84 61v1096q0 68 -84 68h-88q-88 0 -111.5 -76t-23.5 -260q0 -483 -39 -690q-55 -311 -285 -312q-113 0 -172 71t-59 163t43 136t102 44t93 -36t34 -79q0 -79 -46 -103t-46 -50 q0 -14 19.5 -29.5t43.5 -15.5q44 0 119.5 64.5t75.5 732.5q0 308 -29.5 374t-156.5 66h-29z" glyph-name="afii10029" horiz-adv-x="1355" unicode="Л"/><glyph d="M1528 1393v-84h-94q-84 0 -84 -64v-1100q0 -61 84 -61h94v-84h-559v84h84q84 0 84 61v1123h-11l-313 -1268h-84l-354 1268h-8v-1006q0 -106 26.5 -142t114.5 -36h22v-84h-458v84h24q84 0 121 31.5t37 146.5v983q0 63 -82 64h-100v84h487l248 -932h14l228 932h479z" glyph-name="afii10030" horiz-adv-x="1599" unicode="М"/><glyph d="M969 778v467q0 63 -84 64h-88v84h565v-84h-96q-84 0 -84 -64v-1100q0 -61 84 -61h96v-84h-565v84h88q84 0 84 61v545h-504v-545q0 -61 84 -61h88v-84h-565v84h98q82 0 82 61v1100q0 63 -82 64h-98v84h565v-84h-88q-84 0 -84 -64v-467h504z" glyph-name="afii10031" horiz-adv-x="1433" unicode="Н"/><glyph d="M613 1421q257 0 403.5 -206.5t146.5 -518t-146.5 -518.5t-403.5 -207t-404.5 207t-147.5 518.5t147.5 518t404.5 206.5zM613 55q134 0 224.5 159t90.5 480t-91.5 482t-223.5 161t-224 -160.5t-92 -482.5t91 -480.5t225 -158.5z" glyph-name="afii10032" horiz-adv-x="1224" unicode="О"/><glyph d="M72 0v84h98q82 0 82 61v1100q0 63 -82 64h-98v84h1282v-84h-97q-84 0 -83 -64v-1100q0 -61 83 -61h97v-84h-561v84h86q82 0 82 61v1100q0 63 -82 64h-330q-84 0 -84 -64v-1100q0 -61 84 -61h84v-84h-561z" glyph-name="afii10033" horiz-adv-x="1425" unicode="П"/><glyph d="M465 602v-457q0 -61 84 -61h80v-84h-557v84h98q82 0 82 61v1100q0 63 -82 64h-98v84h485q221 0 393 -75.5t172 -322.5q0 -100 -40 -173.5t-90 -116.5t-144 -73t-217 -30h-166zM465 690h123q63 0 120.5 21.5t92.5 52.5t60.5 91t25.5 140q0 129 -73 221.5t-247 92.5h-51 q-51 0 -51 -68v-551z" glyph-name="afii10034" horiz-adv-x="1163" unicode="Р"/><glyph d="M610 -29q-141 0 -249.5 64.5t-204 227.5t-95.5 462q0 182 60.5 338t185.5 257t291 101q72 0 135.5 -22.5t88 -40t59.5 -47.5l43 82h90l26 -500h-96q-39 219 -115.5 325.5t-216.5 106.5t-227.5 -142.5t-87.5 -451.5q0 -84 12.5 -194.5t36 -181t59 -139.5t97 -108.5 t139.5 -39.5q263 -1 322 405h100q-70 -502 -453 -502z" glyph-name="afii10035" horiz-adv-x="1124" unicode="С"/><glyph d="M61 1393h1006v-525h-98q-6 236 -78 342.5t-164 106.5q-33 0 -45 -14.5t-12 -53.5v-1081q0 -67 26.5 -75.5t57.5 -8.5h88v-84h-557v84h88q39 0 58.5 14.5t22.5 28.5t3 41v1081q0 41 -13.5 54.5t-42.5 13.5q-92 0 -166.5 -107.5t-76.5 -341.5h-97v525z" glyph-name="afii10036" horiz-adv-x="1128" unicode="Т"/><glyph d="M918 1228q0 48 -29 64.5t-90 16.5h-31v84h442v-84h-41q-88 0 -137 -150l-321 -942q-45 -135 -121 -190.5t-154 -55.5q-131 0 -197.5 81t-66.5 174t40 139.5t95 46.5t88 -34t33 -80q0 -82 -49 -112.5t-49 -44.5q0 -27 25.5 -51t76.5 -24q121 0 182 229l-409 893 q-55 121 -176 121h-29v84h575v-84h-65q-80 0 -80 -62q0 -20 21 -67l266 -605h8l170 537q23 68 23 116z" glyph-name="afii10037" horiz-adv-x="1189" unicode="У"/><glyph d="M475 0v84h135q43 0 43 57v129h-153q-131 0 -224.5 41t-139.5 111t-64.5 141.5t-18.5 155.5t18.5 155.5t64.5 142t139.5 111.5t224.5 41h153v82q0 29 -13 43.5t-54 14.5h-111v84h574v-84h-111q-74 0 -74 -58v-82h160q236 0 338 -128t102 -310t-63.5 -280.5t-154.5 -139.5 t-222 -41h-160v-129q0 -57 47 -57h138v-84h-574zM653 1087h-39q-80 0 -132 -11t-123.5 -64.5t-71.5 -292.5q0 -102 21.5 -175t50 -109t77.5 -56.5t83 -23.5t87 -3h47v735zM864 1087v-735h51q53 0 87 3t131.5 44t97.5 320q0 240 -70.5 293t-122 64t-131.5 11h-43z" glyph-name="afii10038" horiz-adv-x="1517" unicode="Ф"/><glyph d="M41 1393h541v-84h-60q-63 0 -63 -45q0 -20 16 -50l199 -362l186 311q23 41 23 80q0 66 -72 66h-74v84h473v-84q-63 -4 -108 -25.5t-63.5 -42t-39.5 -55.5l-260 -422l320 -549q76 -131 188 -131h35v-84h-582v84h37q35 0 51.5 2t34 16t17.5 38t-29 77l-203 373l-211 -348 q-29 -47 -28 -92q0 -66 65 -66h76v-84h-516v84h39q133 0 235 166l271 440l-293 510q-35 57 -80 81t-125 28v84z" glyph-name="afii10039" horiz-adv-x="1275" unicode="Х"/><glyph d="M72 1393h561v-84h-84q-84 0 -84 -64v-1100q0 -61 84 -61h328q82 0 81 61v1100q0 63 -81 64h-89v84h566v-84h-99q-84 0 -84 -64v-1100q0 -61 84 -61h134v-485h-97q-4 111 -29.5 190.5t-55 119.5t-76 61.5t-76 25.5t-72.5 4h-911v84h98q82 0 82 61v1100q0 63 -82 64h-98v84 z" glyph-name="afii10040" horiz-adv-x="1449" unicode="Ц"/><glyph d="M852 1245q0 63 -84 64h-63v84h540v-84h-98q-82 0 -82 -64v-1100q0 -61 82 -61h98v-84h-577v84h100q84 0 84 61v484q-172 -49 -332 -49q-319 0 -319 301v364q0 63 -82 64h-99v84h558v-84h-80q-86 0 -86 -64v-373q0 -106 55 -151t168 -45t217 47v522z" glyph-name="afii10041" horiz-adv-x="1316" unicode="Ч"/><glyph d="M72 1393h555v-84h-80q-84 0 -84 -64v-1100q0 -61 84 -61h246q82 0 81 61v1100q0 63 -81 64h-60v84h494v-84h-58q-84 0 -84 -64v-1100q0 -61 84 -61h246q82 0 82 61v1100q0 63 -82 64h-82v84h555v-84h-96q-84 0 -84 -64v-1100q0 -61 84 -61h96v-84h-1816v84h98q82 0 82 61 v1100q0 63 -82 64h-98v84z" glyph-name="afii10042" horiz-adv-x="1959" unicode="Ш"/><glyph d="M72 1393h555v-84h-80q-84 0 -84 -64v-1100q0 -61 84 -61h246q82 0 81 61v1100q0 63 -81 64h-60v84h494v-84h-58q-84 0 -84 -64v-1100q0 -61 84 -61h246q82 0 82 61v1100q0 63 -82 64h-82v84h555v-84h-96q-84 0 -84 -64v-1100q0 -61 84 -61h133v-485h-96 q-16 188 -77.5 294.5t-203.5 106.5h-1476v84h98q82 0 82 61v1100q0 63 -82 64h-98v84z" glyph-name="afii10043" horiz-adv-x="1986" unicode="Щ"/><glyph d="M51 1393h850v-84h-94q-84 0 -84 -64v-461h131q305 0 421 -115t116 -266q0 -152 -74 -240.5t-175.5 -125.5t-242.5 -37h-565v84h92q84 0 84 61v1129q0 45 -55 45q-131 0 -212 -90t-96 -342h-96v506zM723 698v-538q0 -76 72 -76h43q317 0 317 313q0 78 -25.5 137.5 t-87 111.5t-204.5 52h-115z" glyph-name="afii10044" horiz-adv-x="1421" unicode="Ъ"/><glyph d="M465 784h123q156 0 266.5 -34.5t189 -118t78.5 -228.5q0 -43 -5 -81.5t-33.5 -102t-78 -107.5t-148.5 -78t-234 -34h-551v84h98q82 0 82 61v1100q0 63 -82 64h-98v84h577v-84h-100q-84 0 -84 -64v-461zM465 698v-555q0 -35 21.5 -47t62.5 -12h33q307 0 307 315 q0 299 -314 299h-110zM1133 1393h573v-84h-98q-82 0 -82 -64v-1100q0 -61 82 -61h98v-84h-573v84h96q84 0 84 61v1100q0 63 -84 64h-96v84z" glyph-name="afii10045" horiz-adv-x="1777" unicode="Ы"/><glyph d="M465 784h133q156 0 266.5 -34.5t189.5 -118.5t79 -228q0 -91 -35 -169t-84 -122t-148.5 -78t-232.5 -34h-561v84h98q82 0 82 61v1100q0 63 -82 64h-98v84h577v-84h-100q-84 0 -84 -64v-461zM465 698v-553q0 -61 70 -61h45q317 0 317 315q0 131 -79 215t-255 84h-98z" glyph-name="afii10046" horiz-adv-x="1163" unicode="Ь"/><glyph d="M326 772h475q0 164 -32 281.5t-101 194.5t-152 77q-123 0 -212 -125t-107 -344h-97v537h90l60 -107q113 135 287 135q229 0 364 -190.5t135 -518.5t-156.5 -534.5t-406.5 -206.5q-162 0 -284.5 99.5t-122.5 246.5q0 92 45 138.5t103 46.5t94 -39t36 -84t-16.5 -76 t-51 -55t-34.5 -37q0 -51 69.5 -97t159.5 -46t150.5 50t95.5 113.5t59.5 181t24.5 271.5h-475v88z" glyph-name="afii10047" horiz-adv-x="1097" unicode="Э"/><glyph d="M72 0v84h98q82 0 82 61v1100q0 63 -82 64h-98v84h573v-84h-96q-84 0 -84 -64v-467h223q20 281 163.5 461t387.5 180t389.5 -206.5t145.5 -518t-145.5 -518.5t-397.5 -207t-398.5 206t-146.5 515h-221v-545q0 -61 84 -61h96v-84h-573zM1231 53q131 0 220 159t89 480 t-89 482t-220 161t-221 -160.5t-90 -482.5t90 -480.5t221 -158.5z" glyph-name="afii10048" horiz-adv-x="1835" unicode="Ю"/><glyph d="M684 1393h576v-84h-99q-37 0 -56.5 -14.5t-22.5 -29t-3 -40.5v-1057q0 -27 3 -41t22.5 -28.5t56.5 -14.5h99v-84h-558v84h80q39 0 58.5 14.5t22.5 28.5t3 41v506h-94q-145 0 -181 -73t-44 -106.5t-17 -95.5q-33 -238 -80 -333t-165 -95q-74 0 -124 31t-82 103.5 t-32 170.5v60h96v-37q0 -168 68 -168q43 0 56.5 49t24.5 122t17 101q49 248 232 279v16q-182 12 -277.5 114.5t-95.5 227.5q0 160 125 256.5t391 96.5zM727 762h139v467q0 25 -3 39t-20.5 27.5t-51.5 13.5h-140q-46 0 -94.5 -20.5t-101 -68t-52.5 -182.5q0 -76 28 -131 t88.5 -100t207.5 -45z" glyph-name="afii10049" horiz-adv-x="1331" unicode="Я"/><glyph d="M707 -29q-143 0 -154 156h-6q-94 -156 -252 -156q-129 0 -181.5 64.5t-52.5 146.5q0 157 116 249.5t366 156.5v100q0 199 -156 199q-51 0 -98 -31t-47 -68q0 -18 23.5 -28t47 -29.5t23.5 -61.5t-30 -68t-75 -26t-79.5 32t-34.5 93q0 96 75.5 179.5t223.5 83.5 q301 0 301 -324v-473q0 -102 53 -103q20 0 29.5 9.5t20 25t16.5 23.5l51 -45q-49 -59 -86 -82t-94 -23zM543 322v190q-283 -68 -283 -297q0 -49 26.5 -91t86.5 -42t115 71t55 169z" glyph-name="afii10065" horiz-adv-x="886" unicode="а"/><glyph d="M494 963q158 0 269 -130.5t111 -361.5t-115.5 -365.5t-288.5 -134.5t-284.5 144.5t-111.5 437.5q0 207 31.5 357.5t75.5 230.5t109.5 126t116 57t109.5 11h80q74 0 116 17.5t62 74.5h70q-28 -185 -117 -232.5t-171 -47.5q-81 0 -109.5 -2t-73.5 -13.5t-69.5 -37t-67 -88 t-54.5 -267.5l19 -4q37 117 115.5 172.5t177.5 55.5zM473 881q-188 0 -188 -420q0 -261 66 -335.5t126 -74.5q191 0 191 415t-195 415z" glyph-name="afii10066" horiz-adv-x="933" unicode="б"/><glyph d="M70 934h454q154 0 223.5 -67t69.5 -161t-58.5 -146t-140.5 -64v-13q123 -14 174.5 -80.5t51.5 -146.5q0 -119 -97.5 -187.5t-275.5 -68.5h-401v80h63q23 0 42.5 4t19.5 59v648q0 55 -19.5 59t-42.5 4h-63v80zM367 526h108q145 0 146 162q0 94 -51.5 132t-110.5 38h-51 q-25 0 -33 -9t-8 -38v-285zM367 449v-318q0 -39 13 -47t52 -8h35q45 0 107.5 38t62.5 148q0 186 -162 187h-108z" glyph-name="afii10067" horiz-adv-x="913" unicode="в"/><glyph d="M760 541h-82q-19 181 -36 210t-43.5 66t-113.5 37h-63q-35 0 -44 -20.5t-9 -61.5v-629q0 -55 20.5 -59t40.5 -4h66v-80h-426v80h63q23 0 42.5 4t19.5 59v648q0 55 -19.5 59t-42.5 4h-63v80h690v-393z" glyph-name="afii10068" horiz-adv-x="808" unicode="г"/><glyph d="M621 0h-332q-59 0 -100.5 -31.5t-64 -106.5t-22.5 -161h-79v379h57q55 0 87 61.5t62 171.5q70 250 70 439q0 66 -28.5 84t-71.5 18h-25v80h707v-80h-68q-35 0 -46 -15.5t-11 -60.5v-622q0 -76 41 -76h84v-379h-80q-12 299 -180 299zM582 125v680q0 51 -56 51h-53 q-34 0 -48.5 -31t-23 -99.5t-13.5 -104t-14 -99.5t-39 -185q-30 -122 -43 -163t-13 -65q0 -31 34 -31h201q68 0 68 47z" glyph-name="afii10069" horiz-adv-x="950" unicode="д"/><glyph d="M434 -29q-154 0 -264.5 137.5t-110.5 354.5t107.5 358.5t262.5 141.5t247 -127t92 -297v-88h-502q0 -385 193 -385q147 -1 217 196l78 -33q-92 -258 -320 -258zM266 530h273q31 0 30 41v47q0 135 -43.5 199t-103.5 64t-108 -90.5t-48 -260.5z" glyph-name="afii10070" horiz-adv-x="827" unicode="е"/><glyph d="M1178 850q-31 0 -54 -119t-42 -170t-62 -67v-7q86 -10 136.5 -66t74.5 -184t37.5 -141.5t25.5 -13.5q27 0 35 37t8 125h76q0 -197 -56.5 -235t-105.5 -38t-81.5 20.5t-59.5 77.5t-53.5 186.5t-69.5 160t-123 30.5h-51v-303q0 -31 10.5 -45t20.5 -16t30 -2h62v-80h-418v80 h62q20 0 30.5 2t20.5 16.5t10 44.5v303h-51q-80 0 -121.5 -29t-79.5 -206t-87.5 -208.5t-98.5 -31.5q-101 0 -131.5 81t-30.5 192h76q0 -88 8 -125t35 -37t37 35.5t19 83t13 67.5q25 104 72 156.5t133 62.5v7q-43 16 -62.5 67t-41.5 170t-54 119q-16 0 -16 -23l6 -49 q0 -25 -21.5 -48t-65.5 -23t-67.5 34.5t-23.5 88.5t37 93.5t113 39.5q141 0 182 -209q31 -160 54.5 -194t115.5 -34h51v265q0 55 -20.5 59t-40.5 4h-60v80h414v-80h-60q-20 0 -30 -2t-20.5 -16.5t-10.5 -44.5v-265h51q92 0 116 34t54 194q41 209 183 209q76 0 112.5 -39.5 t36.5 -93.5t-23.5 -88.5t-67.5 -34.5t-65.5 23.5t-21.5 47.5l6 49q0 23 -16 23z" glyph-name="afii10072" horiz-adv-x="1454" unicode="ж"/><glyph d="M119 600v334h74l32 -62q86 90 213 90t199 -69.5t72 -153.5t-44 -149.5t-147 -85.5l-2 -12q57 -6 115 -38.5t79 -91t21 -100.5q0 -150 -110.5 -220.5t-226.5 -70.5q-213 0 -274 92.5t-61 154.5t21.5 94t42 39t50.5 7t61.5 -25.5t31.5 -70.5t-24.5 -75.5t-24.5 -43.5 q0 -39 38 -66.5t97 -27.5q94 0 133 64.5t39 156.5q0 190 -170 191h-30v67h30q106 0 132 56t26 132q0 75 -35 115.5t-99 40.5t-118.5 -62.5t-62.5 -209.5h-78z" glyph-name="afii10073" horiz-adv-x="800" unicode="з"/><glyph d="M664 854h-76v80h420v-80h-66q-20 0 -39.5 -3.5t-19.5 -59.5v-648q0 -56 19.5 -59.5t39.5 -3.5h66v-80h-420v80h61q23 0 32 2t18.5 16.5t9.5 44.5v512l-320 -501q-20 -29 -20 -45q0 -29 57 -29h66v-80h-422v80h63q23 0 42.5 4t19.5 59v648q0 55 -19.5 59t-42.5 4h-63v80 h422v-80h-62q-20 0 -30.5 -2t-20.5 -16.5t-10 -44.5v-512l319 501q20 37 21 45q0 29 -45 29z" glyph-name="afii10074" horiz-adv-x="1077" unicode="и"/><glyph d="M664 854h-76v80h420v-80h-66q-20 0 -39.5 -3.5t-19.5 -59.5v-648q0 -56 19.5 -59.5t39.5 -3.5h66v-80h-420v80h61q23 0 32 2t18.5 16.5t9.5 44.5v512l-320 -501q-20 -29 -20 -45q0 -29 57 -29h66v-80h-422v80h63q23 0 42.5 4t19.5 59v648q0 55 -19.5 59t-42.5 4h-63v80 h422v-80h-62q-20 0 -30.5 -2t-20.5 -16.5t-10 -44.5v-512l319 501q20 37 21 45q0 29 -45 29zM538.5 1073q-141.5 0 -212 59.5t-70.5 127.5t31 96t75 28t73.5 -25.5t29.5 -60.5t-26.5 -58t-26.5 -38q0 -53 127 -53t127 53q0 14 -27 38t-27 58t30 60t73 26t74.5 -28t31.5 -96 t-70.5 -127.5t-212 -59.5z" glyph-name="afii10075" horiz-adv-x="1077" unicode="й"/><glyph d="M741 850q-31 0 -53 -119t-41.5 -170t-64.5 -67v-7q88 -10 139.5 -66t75.5 -185t37.5 -141.5t25.5 -12.5q27 0 36 38t9 124h76q0 -272 -172 -273q-55 0 -93 38t-51.5 75t-32 114.5t-24.5 98.5q-31 100 -68.5 124.5t-119.5 24.5h-51v-303q0 -55 20.5 -59t40.5 -4h64v-80 h-424v80h63q23 0 42.5 4t19.5 59v648q0 55 -19.5 59t-42.5 4h-63v80h422v-80h-62q-20 0 -30.5 -2t-20.5 -16.5t-10 -44.5v-265h51q94 0 119.5 35t56.5 193q41 209 186 209q76 0 114 -39.5t38 -93.5t-25.5 -91t-68.5 -37t-64.5 25t-21.5 51l6 49q0 23 -19 23z" glyph-name="afii10076" horiz-adv-x="1021" unicode="к"/><glyph d="M340 686v49q0 68 -23.5 93.5t-83.5 25.5h-32v80h721v-80h-68q-20 0 -38.5 -3.5t-18.5 -59.5v-648q0 -56 18.5 -59.5t38.5 -3.5h68v-80h-428v80h69q23 0 32 2t18.5 16.5t9.5 44.5v672q0 39 -66 39h-39q-49 0 -64.5 -48t-17.5 -136q-4 -289 -51 -477q-57 -221 -225 -222 q-31 0 -60.5 8.5t-60.5 44.5t-31 90t27.5 84.5t68.5 30.5t67 -22.5t26 -56.5l-13 -54q0 -27 19 -26q61 0 99 177t38 439z" glyph-name="afii10077" horiz-adv-x="991" unicode="л"/><glyph d="M1161 934v-80h-65q-20 0 -40 -4t-20 -59v-648q0 -55 19.5 -59t40.5 -4h65v-80h-407v80h55q46 0 50.5 20.5t4.5 42.5v711h-14l-219 -854h-70l-252 854h-14v-684q0 -57 16.5 -73.5t61.5 -16.5h43v-80h-346v80h51q43 0 58.5 23.5t15.5 68.5v619q0 55 -19.5 59t-42.5 4h-63 v80h391l166 -602h4l149 602h381z" glyph-name="afii10078" horiz-adv-x="1230" unicode="м"/><glyph d="M369 530h321v261q0 56 -18.5 59.5t-42.5 3.5h-49v80h409v-80h-63q-23 0 -42.5 -4t-19.5 -59v-648q0 -55 19.5 -59t42.5 -4h63v-80h-411v80h51q20 0 30.5 2t20.5 16.5t10 44.5v308h-321v-308q0 -55 20.5 -59t40.5 -4h51v-80h-411v80h63q23 0 42.5 4t19.5 59v648 q0 55 -19.5 59t-42.5 4h-63v80h411v-80h-51q-20 0 -30.5 -2t-20.5 -16.5t-10 -44.5v-261z" glyph-name="afii10079" horiz-adv-x="1058" unicode="н"/><glyph d="M858 467q0 -80 -22.5 -163t-66.5 -159.5t-125 -125t-185.5 -48.5t-185 48.5t-125 125t-67 159.5t-22.5 163t22.5 163t67 159.5t125 125t185 48.5t185.5 -48.5t125 -125t66.5 -159.5t22.5 -163zM266 467q0 -414 192.5 -414t192.5 414t-192.5 414t-192.5 -414z" glyph-name="afii10080" horiz-adv-x="917" unicode="о"/><glyph d="M625 854h-195q-20 0 -30.5 -2t-20.5 -16.5t-10 -44.5v-648q0 -55 20.5 -59t40.5 -4h49v-80h-409v80h63q23 0 42.5 4t19.5 59v648q0 55 -19.5 59t-42.5 4h-63v80h915v-80h-63q-23 0 -42.5 -4t-19.5 -59v-648q0 -55 19.5 -59t42.5 -4h63v-80h-410v80h50q20 0 30.5 2 t20.5 16.5t10 44.5v648q0 55 -20.5 59t-40.5 4z" glyph-name="afii10081" horiz-adv-x="1054" unicode="п"/><glyph d="M569 963q168 0 259.5 -147.5t91.5 -356.5t-95.5 -348.5t-249.5 -139.5q-72 0 -134 36t-91 97h-12l12 -86v-241q0 -31 9.5 -45.5t18.5 -16.5t32 -2h88v-80h-447v80h66q23 0 41 4t18 60v1014q0 55 -18.5 59t-40.5 4h-62v80l295 29v-134q31 66 94.5 100t124.5 34zM348 442 q0 -178 56.5 -278.5t138.5 -100.5q170 0 170 408t-176 408q-45 0 -84 -31t-72 -129.5t-33 -276.5z" glyph-name="afii10082" horiz-adv-x="978" unicode="р"/><glyph d="M434 -29q-164 0 -269.5 145.5t-105.5 352.5t105.5 350.5t275.5 143.5q137 0 213 -78t76 -166q0 -51 -26.5 -89t-84.5 -38t-80 31.5t-22 68.5t22.5 66.5t22.5 49.5t-31.5 48.5t-74.5 28.5q-189 0 -189 -410t191 -409q162 0 215 233l82 -25q-86 -303 -320 -303z" glyph-name="afii10083" horiz-adv-x="794" unicode="с"/><glyph d="M276 80q20 0 40 4t20 59v664q0 59 -53 59q-29 0 -58.5 -23.5t-59.5 -100t-32 -193.5h-78v385h738v-385h-82q-6 164 -50.5 240.5t-97.5 76.5t-53 -59v-664q0 -55 18.5 -59t40.5 -4h64v-80h-418l-2 80h63z" glyph-name="afii10084" horiz-adv-x="847" unicode="т"/><glyph d="M-6 854v80h409v-80h-38q-57 0 -58 -47q0 -14 17 -59l174 -506h10l147 454q18 55 19 101q0 57 -90 57h-31v80h340v-80h-16q-61 0 -97 -96l-317 -914q-76 -217 -230 -217q-80 0 -119.5 47.5t-39.5 99.5t27.5 83.5t69.5 31.5t67.5 -23.5t25.5 -51.5t-9 -49t-9 -27 q0 -20 24 -20t54 49t43 92l39 125l-287 786q-18 51 -37 67.5t-57 16.5h-31z" glyph-name="afii10085" horiz-adv-x="888" unicode="у"/><glyph d="M410 -367v80h65q23 0 32 2t18.5 16.5t9.5 45.5v229l8 88h-11q-25 -49 -70.5 -86t-109.5 -37q-123 0 -208 125.5t-85 365.5t80 370.5t205 130.5t184 -127h11l-4 75v238q0 63 -41 63h-86v80l299 29v-410l-5 -75h11q59 127 184 127t205 -130.5t80 -370.5t-85 -365.5 t-208 -125.5q-63 0 -109.5 37t-70.5 86h-11l9 -88v-229q0 -57 18 -60.5t39 -3.5h65v-80h-419zM262 481q0 -408 121 -407q154 0 154 390t-140 390q-47 0 -91 -76.5t-44 -296.5zM979 481q0 292 -56.5 332.5t-78.5 40.5q-139 0 -139 -390t153 -390q121 -1 121 407z" glyph-name="afii10086" horiz-adv-x="1241" unicode="ф"/><glyph d="M20 854v80h398v-80h-19q-55 0 -55 -39q0 -16 21 -51l114 -189l96 148q41 57 41 88q0 43 -55 43h-22v80h309v-80q-78 -2 -133 -86l-176 -258l204 -313q25 -37 57.5 -77t92.5 -40h18v-80h-430v80h27q68 0 67 43q0 27 -16 43l-133 211l-131 -187q-25 -33 -25 -65 q0 -45 72 -45h25v-80h-347v80q47 0 82 26.5t88 98.5l177 248l-215 327q-23 37 -46.5 55.5t-68.5 18.5h-17z" glyph-name="afii10087" horiz-adv-x="923" unicode="х"/><glyph d="M575 934h408v-80h-63q-23 0 -42.5 -4t-19.5 -59v-648q0 -63 45 -63h123v-381h-78q-11 235 -86.5 266t-98 33t-61.5 2h-632v80h63q23 0 42.5 4t19.5 59v648q0 55 -19.5 59t-42.5 4h-63v80h407v-80h-47q-20 0 -30.5 -2t-20.5 -16.5t-10 -44.5v-648q0 -63 65 -63h205 q45 0 45 67v644q0 55 -20.5 59t-40.5 4h-48v80z" glyph-name="afii10088" horiz-adv-x="1079" unicode="ц"/><glyph d="M414 934v-80h-43q-23 0 -42.5 -4t-19.5 -59v-236q0 -127 115 -127q104 0 180 49v314q0 56 -18.5 59.5t-38.5 3.5h-35v80h391v-80h-65q-20 0 -40 -4t-20 -59v-648q0 -55 19.5 -59t40.5 -4h65v-80h-422v80h68q33 0 44 11t11 50v252q-102 -55 -229 -55t-182.5 64.5 t-55.5 144.5v244q0 55 -20.5 59t-40.5 4h-64v80h402z" glyph-name="afii10089" horiz-adv-x="972" unicode="ч"/><glyph d="M70 0v80h63q23 0 42.5 4t19.5 59v648q0 55 -19.5 59t-42.5 4h-63v80h407v-80h-49q-20 0 -30.5 -2t-20.5 -16.5t-10 -44.5v-648q0 -55 20.5 -59t40.5 -4h197q23 0 42 4t19 59v648q0 56 -19.5 59.5t-41.5 3.5h-50v80h394v-80h-49q-23 0 -42.5 -4t-19.5 -59v-648 q0 -55 19.5 -59t42.5 -4h198q23 0 32 2t18.5 16.5t9.5 44.5v648q0 55 -18.5 59t-41.5 4h-51v80h403v-80h-63q-20 0 -38.5 -3.5t-18.5 -59.5v-648q0 -56 18 -59.5t39 -3.5h63v-80h-1400z" glyph-name="afii10090" horiz-adv-x="1540" unicode="ш"/><glyph d="M70 0v80h63q23 0 42.5 4t19.5 59v648q0 55 -19.5 59t-42.5 4h-63v80h407v-80h-49q-20 0 -30.5 -2t-20.5 -16.5t-10 -44.5v-648q0 -55 20.5 -59t40.5 -4h197q23 0 42 4t19 59v648q0 56 -19.5 59.5t-41.5 3.5h-50v80h394v-80h-49q-23 0 -42.5 -4t-19.5 -59v-648 q0 -55 19.5 -59t42.5 -4h198q23 0 32 2t18.5 16.5t9.5 44.5v648q0 55 -18.5 59t-41.5 4h-51v80h408v-80h-68q-20 0 -38.5 -3.5t-18.5 -59.5v-652q0 -59 45 -59h123v-381h-78q-11 235 -86.5 266t-98 33t-61.5 2h-1124z" glyph-name="afii10091" horiz-adv-x="1570" unicode="щ"/><glyph d="M301 864q-90 0 -133 -93t-43 -234h-80v397h627v-80h-64q-23 0 -42 -4t-19 -59v-261h151q204 0 267 -88.5t63 -171.5t-42 -147t-114.5 -93.5t-177.5 -29.5h-446v80h63q23 0 42.5 4t19.5 59v648q-2 41 -16.5 57t-55.5 16zM547 451v-306q0 -68 63 -67h45q172 0 172 186 q0 103 -44.5 145t-149.5 42h-86z" glyph-name="afii10092" horiz-adv-x="1077" unicode="ъ"/><glyph d="M856 934h418v-80h-66q-20 0 -39.5 -3.5t-19.5 -59.5v-648q0 -56 19.5 -59.5t39.5 -3.5h66v-80h-418v80h59q23 0 32 2t18.5 16.5t9.5 44.5v648q0 55 -18.5 59t-41.5 4h-59v80zM487 934v-80h-59q-20 0 -39.5 -3.5t-19.5 -59.5v-261h141q322 0 321 -270q0 -119 -56 -168 t-119.5 -70.5t-149.5 -21.5h-436v80h63q23 0 42.5 4t19.5 59v648q0 55 -19.5 59t-42.5 4h-63v80h417zM369 451v-306q0 -68 63 -67h35q172 0 172 186q0 142 -67.5 164.5t-127.5 22.5h-75z" glyph-name="afii10093" horiz-adv-x="1343" unicode="ы"/><glyph d="M487 934v-80h-59q-20 0 -39.5 -3.5t-19.5 -59.5v-261h151q100 0 171 -26.5t115 -89.5t44 -143q0 -81 -42 -146.5t-114.5 -95t-177.5 -29.5h-446v80h63q23 0 42.5 4t19.5 59v648q0 55 -19.5 59t-42.5 4h-63v80h417zM369 451v-306q0 -68 63 -67h45q172 0 172 186 q0 103 -44.5 145t-149.5 42h-86z" glyph-name="afii10094" horiz-adv-x="899" unicode="ь"/><glyph d="M98 598v336h70l31 -76q67 104 203 104t241 -127t105 -355t-116 -368.5t-284 -140.5q-129 0 -209 72t-80 180q0 63 35 95t79 32t71.5 -27.5t27.5 -68.5t-27.5 -71.5t-27.5 -53.5t31 -51.5t96 -28.5q195 0 195 402h-289v79h289q0 158 -48.5 250t-122.5 92t-125 -69.5 t-67 -204.5h-78z" glyph-name="afii10095" horiz-adv-x="806" unicode="э"/><glyph d="M1305 467q0 -80 -21.5 -163t-65.5 -159.5t-124 -125t-182 -48.5t-179.5 46t-144 155t-70.5 279h-149v-308q0 -55 20.5 -59t40.5 -4h51v-80h-411v80h63q23 0 42.5 4t19.5 59v648q0 55 -19.5 59t-42.5 4h-63v80h411v-80h-51q-20 0 -30.5 -2t-20.5 -16.5t-10 -44.5v-261h151 q16 158 83 255.5t141.5 137.5t171.5 40t177.5 -48.5t124.5 -125t65.5 -159.5t21.5 -163zM723 467q0 -414 188.5 -414t188.5 414t-188.5 414t-188.5 -414z" glyph-name="afii10096" horiz-adv-x="1363" unicode="ю"/><glyph d="M139 266q0 -90 7.5 -114.5t13 -41t21.5 -16.5q15 0 22.5 6t12.5 17.5t18.5 53.5t13.5 83q37 190 182 201v14q-109 4 -186.5 61.5t-77.5 157.5t82 173t252 73h452v-80h-65q-23 0 -32 -2t-18.5 -16.5t-9.5 -44.5v-648q0 -55 18.5 -59t41.5 -4h65v-80h-417v80h59 q20 0 39.5 3.5t19.5 59.5v293h-67q-74 0 -103 -33t-45 -93t-30.5 -140.5t-45 -139.5t-133.5 -59q-164 0 -170 295h80zM653 516v287q0 33 -13 43t-42 10h-61q-59 0 -114.5 -42t-55.5 -118t43 -128t143 -52h100z" glyph-name="afii10097" horiz-adv-x="1021" unicode="я"/><glyph d="M377 1263q0 -50 -33 -86t-81 -36t-83 35.5t-35 85.5t35 86t83 36t81 -35.5t33 -85.5zM434 -29q-154 0 -264.5 137.5t-110.5 354.5t107.5 358.5t262.5 141.5t247 -127t92 -297v-88h-502q0 -385 193 -385q147 -1 217 196l78 -33q-92 -258 -320 -258zM266 530h273 q31 0 30 41v47q0 135 -43.5 199t-103.5 64t-108 -90.5t-48 -260.5zM705 1263q0 -50 -33 -86t-81 -36t-83 35.5t-35 85.5t35 86t83 36t81 -35.5t33 -85.5z" glyph-name="afii10071" horiz-adv-x="827" unicode="ё"/><glyph d="M696 498q0 365 -129 364q-66 0 -136.5 -86.5t-70.5 -238.5v-394q0 -31 10.5 -45t20.5 -16t31 -2h39v-80h-400v80h64q23 0 42 4t19 59v975h-186v80h186v84q0 45 -14 56.5t-63 11.5h-48v77l299 29v-258h351v-80h-351v-229l-8 -105h8q72 178 252 178t223.5 -174t43.5 -328 t-12.5 -291.5t-36 -217.5t-58.5 -158t-95.5 -122t-138.5 -44t-125.5 44.5t-47.5 108.5t29.5 92t68.5 28q84 0 84 -86q0 -27 -21.5 -48.5t-21.5 -33.5q0 -27 51 -27q76 0 108.5 163t32.5 382v248z" glyph-name="afii10099" horiz-adv-x="997" unicode="ђ"/><glyph d="M760 541h-82q-19 181 -36 210t-43.5 66t-113.5 37h-63q-35 0 -44 -20.5t-9 -61.5v-629q0 -55 20.5 -59t40.5 -4h66v-80h-426v80h63q23 0 42.5 4t19.5 59v648q0 55 -19.5 59t-42.5 4h-63v80h690v-393zM678 1417q16 0 20 -20v-8q-6 -29 -160 -162t-214 -133q-31 0 -31 30 q-1 18 21 49q94 135 132 244h232z" glyph-name="afii10100" horiz-adv-x="808" unicode="ѓ"/><glyph d="M686 608h-78q-10 113 -61 193t-115 80q-74 0 -119 -118t-45 -257h250v-80h-250q0 -362 189 -363q152 0 213 226l80 -25q-53 -166 -130 -229.5t-194 -63.5q-158 0 -262.5 147.5t-104.5 342.5q0 274 120 388t235 114t178 -97l29 68h65v-326z" glyph-name="afii10101" horiz-adv-x="780" unicode="є"/><glyph d="M676 934v-320h-84q-37 127 -89 195t-147 68q-61 0 -103 -37.5t-42 -97.5t35 -94t75.5 -48t107.5 -32t127 -40t113.5 -86.5t53.5 -171.5q0 -108 -42 -173.5t-104.5 -95.5t-148.5 -30q-143 0 -231 97l-35 -68h-90v338h96q66 -281 270 -281q162 0 162 150q0 70 -58 107.5 t-142 57.5t-124 36t-118 65t-78 211q0 117 74.5 198t198.5 81t214 -95l31 66h78z" glyph-name="afii10102" horiz-adv-x="784" unicode="ѕ"/><glyph d="M59 854v80l310 29v-820q0 -56 19.5 -59.5t39.5 -3.5h84v-80h-461v80h82q23 0 42.5 4t19.5 59v668q0 43 -76 43h-60zM369 1270q0 -51 -34 -87t-83 -36t-85 36t-36 87t36 87t85 36t83 -36t34 -87z" glyph-name="afii10103" horiz-adv-x="563" unicode="і"/><glyph d="M59 854v80l310 29v-820q0 -56 19.5 -59.5t39.5 -3.5h84v-80h-461v80h82q23 0 42.5 4t19.5 59v668q0 43 -76 43h-60zM215 1250q0 -48 -32.5 -82.5t-78.5 -34.5t-81 34.5t-35 82.5t34.5 83t80.5 35t79 -35t33 -83zM532 1250q0 -48 -32.5 -82.5t-79.5 -34.5t-81 34.5 t-34 82.5t34 83t81 35t79.5 -35t32.5 -83z" glyph-name="afii10104" horiz-adv-x="563" unicode="ї"/><glyph d="M43 854v82l328 27v-893q0 -211 -78 -327t-174 -116t-146.5 47.5t-50.5 105.5t33 90t72 32t66.5 -24.5t27.5 -56.5t-8.5 -52.5t-8.5 -30.5q0 -27 35 -27q59 0 60 166v932q0 20 -12.5 31.5t-24.5 12.5t-39 1h-80zM375 1270q0 -51 -34 -87t-83 -36t-85 36t-36 87t36 87 t85 36t83 -36t34 -87z" glyph-name="afii10105" horiz-adv-x="528" unicode="ј"/><glyph d="M340 686v49q0 68 -23.5 93.5t-83.5 25.5h-32v80h721v-80h-60q-20 0 -39.5 -3.5t-19.5 -59.5v-261h151q204 0 267 -88.5t63 -171.5t-42 -147t-114.5 -93.5t-177.5 -29.5h-446v80h63q23 0 42.5 4t19.5 59v648q0 59 -43 63h-68q-49 0 -64.5 -48t-17.5 -136q-4 -289 -51 -477 q-57 -221 -225 -222q-31 0 -60.5 8.5t-60.5 44.5t-31 90t27.5 84.5t68.5 30.5t67 -22.5t26 -56.5l-13 -54q0 -27 19 -26q61 0 99 177t38 439zM803 451v-306q0 -68 63 -67h45q172 0 172 186q0 103 -44.5 145t-149.5 42h-86z" glyph-name="afii10106" horiz-adv-x="1333" unicode="љ"/><glyph d="M983 934v-80h-59q-20 0 -40 -4t-20 -59v-261h152q203 0 266.5 -89t63.5 -170t-42 -146.5t-115 -95t-177 -29.5h-447v80h64q23 0 42 4t19 59v308h-321v-308q0 -55 20.5 -59t40.5 -4h51v-80h-411v80h63q23 0 42.5 4t19.5 59v648q0 55 -19.5 59t-42.5 4h-63v80h411v-80h-51 q-20 0 -30.5 -2t-20.5 -16.5t-10 -44.5v-261h321v261q0 56 -19.5 59.5t-41.5 3.5h-64v80h418zM864 451v-306q0 -68 64 -67h45q172 0 172 186q0 142 -67.5 164.5t-127.5 22.5h-86z" glyph-name="afii10107" horiz-adv-x="1394" unicode="њ"/><glyph d="M0 1118v80h186v84q0 45 -14 56.5t-63 11.5h-48v77l299 29v-258h351v-80h-351v-229l-8 -105h8q72 178 252 179q143 0 193.5 -89.5t50.5 -238.5v-492q0 -56 19.5 -59.5t42.5 -3.5h63v-80h-406v80h46q20 0 30.5 2t20.5 16.5t10 44.5v488q0 231 -115 231q-66 0 -136.5 -86.5 t-70.5 -238.5v-394q0 -31 10.5 -45t20.5 -16t31 -2h43v-80h-404v80h64q23 0 42 4t19 59v975h-186z" glyph-name="afii10108" horiz-adv-x="1034" unicode="ћ"/><glyph d="M741 850q-31 0 -53 -119t-41.5 -170t-64.5 -67v-7q88 -10 139.5 -66t75.5 -185t37.5 -141.5t25.5 -12.5q27 0 36 38t9 124h76q0 -272 -172 -273q-55 0 -93 38t-51.5 75t-32 114.5t-24.5 98.5q-31 100 -68.5 124.5t-119.5 24.5h-51v-303q0 -55 20.5 -59t40.5 -4h64v-80 h-424v80h63q23 0 42.5 4t19.5 59v648q0 55 -19.5 59t-42.5 4h-63v80h422v-80h-62q-20 0 -30.5 -2t-20.5 -16.5t-10 -44.5v-265h51q94 0 119.5 35t56.5 193q41 209 186 209q76 0 114 -39.5t38 -93.5t-25.5 -91t-68.5 -37t-64.5 25t-21.5 51l6 49q0 23 -19 23zM752 1417 q16 0 20 -20v-8q-6 -29 -161 -162t-214 -133q-31 0 -30 30q-1 18 21 49q94 135 132 244h232z" glyph-name="afii10109" horiz-adv-x="1021" unicode="ќ"/><glyph d="M-6 854v80h409v-80h-38q-57 0 -58 -47q0 -14 17 -59l174 -506h10l147 454q18 55 19 101q0 57 -90 57h-31v80h340v-80h-16q-61 0 -97 -96l-317 -914q-76 -217 -230 -217q-80 0 -119.5 47.5t-39.5 99.5t27.5 83.5t69.5 31.5t67.5 -23.5t25.5 -51.5t-9 -49t-9 -27 q0 -20 24 -20t54 49t43 92l39 125l-287 786q-18 51 -37 67.5t-57 16.5h-31zM479.5 1073q-141.5 0 -212 59.5t-70.5 127.5t31.5 96t74.5 28t73 -25.5t30 -60.5t-27 -58t-27 -38q0 -53 127 -53t127 53q0 14 -26.5 38t-26.5 58t29.5 60t72.5 26t75 -28t32 -96t-70.5 -127.5 t-212 -59.5z" glyph-name="afii10110" horiz-adv-x="888" unicode="ў"/><glyph d="M430 80h195q20 0 30.5 2t20.5 16.5t10 44.5v648q0 55 -20.5 59t-40.5 4h-50v80h410v-80h-63q-23 0 -42.5 -4t-19.5 -59v-648q0 -55 19.5 -59t42.5 -4h63v-80h-203q-49 0 -79.5 -8t-78 -50t-59.5 -245h-78q-8 203 -56 245t-78.5 50t-80.5 8h-202v80h63q23 0 42.5 4 t19.5 59v648q0 55 -19.5 59t-42.5 4h-63v80h409v-80h-49q-20 0 -30.5 -2t-20.5 -16.5t-10 -44.5v-648q0 -55 20.5 -59t40.5 -4z" glyph-name="afii10193" horiz-adv-x="1054" unicode="џ"/><glyph d="M0 1198h395v76q0 63 -82 63h-98v84h578v-84h-101q-84 0 -84 -63v-76h398v-393h-99q-6 317 -241 317q-55 0 -58 -53v-340h133q314 0 425.5 -107.5t111.5 -248.5q0 -41 -6 -79t-35 -95.5t-79 -97.5t-148.5 -70.5t-233.5 -30.5h-561v84h98q82 0 82 61v922q-2 33 -15 44 t-40 11q-240 0 -244 -368h-96v444zM608 643v-498q0 -61 70 -61h45q170 0 221 46t74.5 102.5t23.5 136.5q0 274 -335 274h-99z" glyph-name="afii10146" horiz-adv-x="1308" unicode="Ѣ"/><glyph d="M176 1214v80l299 29v-389h283v-316h-82q-4 172 -43 205t-57.5 38t-47.5 5q-51 0 -53 -49v-307h152q203 0 266 -84.5t63 -165.5t-42 -142t-114.5 -89.5t-176.5 -28.5h-447v80h64q23 0 42 4t19 59v664q0 59 -53 59q-45 0 -95.5 -52.5t-54.5 -233.5h-78v354h281v235 q0 29 -16.5 37t-59.5 8h-49zM475 430v-285q0 -68 64 -67h45q172 0 172 176q0 137 -68 156.5t-127 19.5h-86z" glyph-name="afii10194" horiz-adv-x="1005" unicode="ѣ"/><glyph d="M613 1421q257 0 403.5 -206.5t146.5 -518t-146.5 -518.5t-403.5 -207t-404.5 207t-147.5 518.5t147.5 518t404.5 206.5zM613 1337q-128 0 -219 -150.5t-97 -449.5h631q-6 299 -96.5 449.5t-218.5 150.5zM613 55q128 0 217.5 145.5t97.5 446.5h-631q8 -301 98 -446.5 t218 -145.5z" glyph-name="afii10147" horiz-adv-x="1224" unicode="Ѳ"/><glyph d="M858 467q0 -80 -22.5 -163t-66.5 -159.5t-125 -125t-185.5 -48.5t-185 48.5t-125 125t-67 159.5t-22.5 163t22.5 163t67 159.5t125 125t185 48.5t185.5 -48.5t125 -125t66.5 -159.5t22.5 -163zM457 53q188 0 194 398h-385q3 -398 191 -398zM458 881q-177 0 -190 -351h381 q-14 351 -191 351z" glyph-name="afii10195" horiz-adv-x="917" unicode="ѳ"/><glyph d="M879 1229q0 80 -95 80h-32v84h440v-84h-27q-88 0 -130 -55.5t-70 -157.5l-328 -1125h-96l-363 1180q-29 96 -64.5 127t-90.5 31h-43v84h526v-84h-66q-61 0 -61 -47q0 -18 16 -74l248 -821l205 702q31 109 31 160z" glyph-name="afii10148" horiz-adv-x="1171" unicode="Ѵ"/><glyph d="M569 854h-18v80h352v-80q-61 -4 -97 -42t-65 -124l-245 -717h-105l-278 777q-20 61 -44 83.5t-77 22.5h-25v80h414v-80h-31q-59 0 -59 -41q0 -23 10 -49l174 -522h10l148 444q23 68 22 105q0 63 -86 63z" glyph-name="afii10196" horiz-adv-x="899" unicode="ѵ"/><glyph d="M1014 1784v-475h-494q-33 0 -44 -15.5t-11 -54.5v-1094q0 -61 84 -61h98v-84h-575v84h98q82 0 82 61v1100q0 63 -82 64h-98v84h573q141 0 206 101.5t85 289.5h78z" glyph-name="afii10050" horiz-adv-x="1030" unicode="Ґ"/><glyph d="M752 1243v-389h-330q-35 0 -44 -20.5t-9 -61.5v-629q0 -55 20.5 -59t40.5 -4h66v-80h-426v80h63q23 0 42.5 4t19.5 59v648q0 55 -19.5 59t-42.5 4h-63v80h419q79 0 115.5 42.5t47 117.5t18.5 149h82z" glyph-name="afii10098" horiz-adv-x="763" unicode="ґ"/><glyph d="M831 84q103 0 103 56q0 27 -6 42l-92 256h-443l-53 -162q-25 -74 -25 -114q0 -78 121 -78h49v-84h-485v84h20q135 0 189 156l414 1181h96l418 -1175q33 -92 73.5 -127t132.5 -35v-84h-569v84h57zM422 526h383l-184 547h-9zM674 1468q-146 0 -223.5 53.5t-77.5 113.5 t35.5 92t83.5 32t77 -23.5t29 -54.5t-33 -51t-33 -35q0 -55 132 -55t133 55q0 14 -33 35.5t-33 51.5t28.5 53.5t76.5 23.5t83 -30.5t35 -88.5t-67 -115t-213 -57z" glyph-name="uni04D0" horiz-adv-x="1343" unicode="Ӑ"/><glyph d="M707 -29q-143 0 -154 156h-6q-94 -156 -252 -156q-129 0 -181.5 64.5t-52.5 146.5q0 157 116 249.5t366 156.5v100q0 199 -156 199q-51 0 -98 -31t-47 -68q0 -18 23.5 -28t47 -29.5t23.5 -61.5t-30 -68t-75 -26t-79.5 32t-34.5 93q0 96 75.5 179.5t223.5 83.5 q301 0 301 -324v-473q0 -102 53 -103q20 0 29.5 9.5t20 25t16.5 23.5l51 -45q-49 -59 -86 -82t-94 -23zM543 322v190q-283 -68 -283 -297q0 -49 26.5 -91t86.5 -42t115 71t55 169zM417.5 1073q-141.5 0 -212 59.5t-70.5 127.5t32 96t75 28t72.5 -25.5t29.5 -60.5t-26.5 -58 t-26.5 -38q0 -53 127 -53t127 53q0 14 -26.5 38t-26.5 58t29.5 60t72.5 26t74.5 -28t31.5 -96t-70.5 -127.5t-212 -59.5z" glyph-name="uni04D1" horiz-adv-x="886" unicode="ӑ"/><glyph d="M831 84q103 0 103 56q0 27 -6 42l-92 256h-443l-53 -162q-25 -74 -25 -114q0 -78 121 -78h49v-84h-485v84h20q135 0 189 156l414 1181h96l418 -1175q33 -92 73.5 -127t132.5 -35v-84h-569v84h57zM422 526h383l-184 547h-9zM614 1621q0 -58 -37 -99t-93 -41t-96 41t-40 99 t40 99t95 41t93 -41t38 -99zM995 1621q0 -58 -37.5 -99t-93 -41t-95.5 41t-40 98t40 99t95.5 42t93 -41t37.5 -99z" glyph-name="uni04D2" horiz-adv-x="1343" unicode="Ӓ"/><glyph d="M707 -29q-143 0 -154 156h-6q-94 -156 -252 -156q-129 0 -181.5 64.5t-52.5 146.5q0 157 116 249.5t366 156.5v100q0 199 -156 199q-51 0 -98 -31t-47 -68q0 -18 23.5 -28t47 -29.5t23.5 -61.5t-30 -68t-75 -26t-79.5 32t-34.5 93q0 96 75.5 179.5t223.5 83.5 q301 0 301 -324v-473q0 -102 53 -103q20 0 29.5 9.5t20 25t16.5 23.5l51 -45q-49 -59 -86 -82t-94 -23zM543 322v190q-283 -68 -283 -297q0 -49 26.5 -91t86.5 -42t115 71t55 169zM371 1250q0 -48 -33 -82.5t-79 -34.5t-81 34.5t-35 82.5t35 83t81 35t79 -35t33 -83z M688 1250q0 -48 -32.5 -82.5t-80 -34.5t-81 34.5t-33.5 82.5t33.5 83t81 35t80 -35t32.5 -83z" glyph-name="uni04D3" horiz-adv-x="886" unicode="ӓ"/><glyph d="M1098 905h-97q-25 225 -92 314.5t-215 89.5h-145q-84 0 -84 -64v-500h108q80 0 108 48.5t28 171.5v49h96v-627h-96v41q0 168 -43 201t-88 33h-113v-517q0 -61 84 -61h178q72 0 173 58t101 343v37h97v-522h-1026v84h98q82 0 82 61v1100q0 63 -82 64h-98v84h1026v-488z M652 1468q-146 0 -223 53.5t-77 113.5t36 92t84 32t77 -23.5t29 -54.5t-33 -51t-33 -35q0 -55 132 -55t132 55q0 14 -32.5 35.5t-32.5 51.5t28.5 53.5t75.5 23.5t83 -30.5t36 -88.5t-68 -115t-214 -57z" glyph-name="uni04D6" horiz-adv-x="1191" unicode="Ӗ"/><glyph d="M434 -29q-154 0 -264.5 137.5t-110.5 354.5t107.5 358.5t262.5 141.5t247 -127t92 -297v-88h-502q0 -385 193 -385q147 -1 217 196l78 -33q-92 -258 -320 -258zM266 530h273q31 0 30 41v47q0 135 -43.5 199t-103.5 64t-108 -90.5t-48 -260.5zM422 1073q-141 0 -212 59.5 t-71 127.5t32 96t75 28t72.5 -25.5t29.5 -60.5t-26.5 -58t-26.5 -38q0 -53 127 -53t127 53q0 14 -26.5 38t-26.5 58t29.5 60t72.5 26t75 -28t32 -96t-71 -127.5t-212 -59.5z" glyph-name="uni04D7" horiz-adv-x="827" unicode="ӗ"/><glyph d="M1028 680v-535q0 -61 84 -61h78v-84h-533v84h78q84 0 84 61v535h-67q-111 0 -161 -65.5t-73 -254.5q-32 -289 -107 -339t-147 -50q-115 0 -167 109.5t-52 286.5h90q4 -242 78 -242q65 0 72.5 75.5t12.5 128t9 85.5q18 129 74.5 213t183.5 104v8q-59 41 -94 123t-51 250 q-20 223 -121 223q-8 0 -19.5 -6.5t-11.5 -24.5t24.5 -55t24.5 -69q0 -72 -37.5 -101.5t-89 -29.5t-89.5 40.5t-38 126.5t61.5 145.5t135.5 59.5t121 -22.5t87.5 -66t70.5 -265.5q18 -166 66 -232.5t147 -66.5h67v477q0 63 -84 64h-82v84h541v-84h-82q-84 0 -84 -64v-477h68 q98 0 146 66.5t71 259.5t85.5 260t162.5 67t161.5 -59.5t61.5 -145.5t-38 -126.5t-89 -40.5t-89 29.5t-38 101.5q0 33 24.5 69.5t24.5 54.5t-11.5 24.5t-19.5 6.5q-100 0 -121 -223q-16 -168 -51 -250t-94 -123v-8q127 -20 183.5 -104t74.5 -213q4 -33 11.5 -110.5t20 -128 t62.5 -50.5q74 0 78 242h90q0 -176 -52 -286t-167 -110q-142 0 -189 115t-68 289q-20 173 -70 239t-160 66h-68zM864 1621q0 -58 -38 -99t-93 -41t-95 41t-40 99t40 99t95 41t93 -41t38 -99zM1245 1621q0 -58 -38 -99t-93 -41t-95 41t-40 98t40 99t95 42t93 -41t38 -99z" glyph-name="uni04DC" horiz-adv-x="1847" unicode="Ӝ"/><glyph d="M1178 850q-31 0 -54 -119t-42 -170t-62 -67v-7q86 -10 136.5 -66t74.5 -184t37.5 -141.5t25.5 -13.5q27 0 35 37t8 125h76q0 -197 -56.5 -235t-105.5 -38t-81.5 20.5t-59.5 77.5t-53.5 186.5t-69.5 160t-123 30.5h-51v-303q0 -31 10.5 -45t20.5 -16t30 -2h62v-80h-418v80 h62q20 0 30.5 2t20.5 16.5t10 44.5v303h-51q-80 0 -121.5 -29t-79.5 -206t-87.5 -208.5t-98.5 -31.5q-101 0 -131.5 81t-30.5 192h76q0 -88 8 -125t35 -37t37 35.5t19 83t13 67.5q25 104 72 156.5t133 62.5v7q-43 16 -62.5 67t-41.5 170t-54 119q-16 0 -16 -23l6 -49 q0 -25 -21.5 -48t-65.5 -23t-67.5 34.5t-23.5 88.5t37 93.5t113 39.5q141 0 182 -209q31 -160 54.5 -194t115.5 -34h51v265q0 55 -20.5 59t-40.5 4h-60v80h414v-80h-60q-20 0 -30 -2t-20.5 -16.5t-10.5 -44.5v-265h51q92 0 116 34t54 194q41 209 183 209q76 0 112.5 -39.5 t36.5 -93.5t-23.5 -88.5t-67.5 -34.5t-65.5 23.5t-21.5 47.5l6 49q0 23 -16 23zM682 1250q0 -48 -33 -82.5t-79 -34.5t-80.5 34.5t-34.5 82.5t34.5 83t80.5 35t79 -35t33 -83zM999 1250q0 -48 -32.5 -82.5t-79.5 -34.5t-81 34.5t-34 82.5t34 83t81 35t79.5 -35t32.5 -83z " glyph-name="uni04DD" horiz-adv-x="1454" unicode="ӝ"/><glyph d="M125 866v527h98l35 -93q129 121 302 121t282.5 -106.5t109.5 -235.5t-69.5 -218t-190.5 -122v-12q145 -27 226 -124t81 -247t-124.5 -267.5t-360.5 -117.5q-123 0 -216 39t-165 128.5t-72 185.5t38.5 153.5t104.5 57.5t108 -34.5t42 -94.5t-29.5 -96t-58.5 -36t-32 -11 t-3 -26t15.5 -43t46.5 -60t90 -53.5t135 -21.5t130 33t85 104.5t31 168.5q0 319 -369 319h-63v88h61q189 0 258.5 69t69.5 207t-58.5 208.5t-146.5 70.5q-117 0 -201 -116t-94 -345h-96zM469 1621q0 -58 -38 -99t-93 -41t-95 41t-40 99t40 99t95 41t93 -41t38 -99zM850 1621 q0 -58 -38 -99t-93 -41t-95 41t-40 98t40 99t95 42t93 -41t38 -99z" glyph-name="uni04DE" horiz-adv-x="1052" unicode="Ӟ"/><glyph d="M119 600v334h74l32 -62q86 90 213 90t199 -69.5t72 -153.5t-44 -149.5t-147 -85.5l-2 -12q57 -6 115 -38.5t79 -91t21 -100.5q0 -150 -110.5 -220.5t-226.5 -70.5q-213 0 -274 92.5t-61 154.5t21.5 94t42 39t50.5 7t61.5 -25.5t31.5 -70.5t-24.5 -75.5t-24.5 -43.5 q0 -39 38 -66.5t97 -27.5q94 0 133 64.5t39 156.5q0 190 -170 191h-30v67h30q106 0 132 56t26 132q0 75 -35 115.5t-99 40.5t-118.5 -62.5t-62.5 -209.5h-78zM360 1250q0 -48 -32.5 -82.5t-78.5 -34.5t-81 34.5t-35 82.5t35 83t81 35t78.5 -35t32.5 -83zM678 1250 q0 -48 -33 -82.5t-80 -34.5t-80.5 34.5t-33.5 82.5t33.5 83t80.5 35t80 -35t33 -83z" glyph-name="uni04DF" horiz-adv-x="800" unicode="ӟ"/><glyph d="M961 1251q0 57 -72 58h-92v84h559v-84h-99q-84 0 -83 -64v-1087q0 -74 83 -74h99v-84h-557v84h80q82 0 82 74v868l-496 -846v-43q0 -53 47 -53h117v-84h-557v84h98q82 0 82 74v1087q0 63 -82 64h-98v84h557v-84h-80q-84 0 -84 -64v-878l496 845v39zM426 1556v103h578 v-103h-578z" glyph-name="uni04E2" horiz-adv-x="1427" unicode="Ӣ"/><glyph d="M664 854h-76v80h420v-80h-66q-20 0 -39.5 -3.5t-19.5 -59.5v-648q0 -56 19.5 -59.5t39.5 -3.5h66v-80h-420v80h61q23 0 32 2t18.5 16.5t9.5 44.5v512l-320 -501q-20 -29 -20 -45q0 -29 57 -29h66v-80h-422v80h63q23 0 42.5 4t19.5 59v648q0 55 -19.5 59t-42.5 4h-63v80 h422v-80h-62q-20 0 -30.5 -2t-20.5 -16.5t-10 -44.5v-512l319 501q20 37 21 45q0 29 -45 29zM254 1190v102h577v-102h-577z" glyph-name="uni04E3" horiz-adv-x="1077" unicode="ӣ"/><glyph d="M961 1251q0 57 -72 58h-92v84h559v-84h-99q-84 0 -83 -64v-1087q0 -74 83 -74h99v-84h-557v84h80q82 0 82 74v868l-496 -846v-43q0 -53 47 -53h117v-84h-557v84h98q82 0 82 74v1087q0 63 -82 64h-98v84h557v-84h-80q-84 0 -84 -64v-878l496 845v39zM662 1621 q0 -58 -38 -99t-94 -41t-95.5 41t-39.5 99t40 99t95 41t93.5 -41t38.5 -99zM1042 1621q0 -58 -37.5 -99t-93 -41t-95.5 41t-40 98t40 99t95.5 42t93 -41t37.5 -99z" glyph-name="uni04E4" horiz-adv-x="1427" unicode="Ӥ"/><glyph d="M664 854h-76v80h420v-80h-66q-20 0 -39.5 -3.5t-19.5 -59.5v-648q0 -56 19.5 -59.5t39.5 -3.5h66v-80h-420v80h61q23 0 32 2t18.5 16.5t9.5 44.5v512l-320 -501q-20 -29 -20 -45q0 -29 57 -29h66v-80h-422v80h63q23 0 42.5 4t19.5 59v648q0 55 -19.5 59t-42.5 4h-63v80 h422v-80h-62q-20 0 -30.5 -2t-20.5 -16.5t-10 -44.5v-512l319 501q20 37 21 45q0 29 -45 29zM496 1250q0 -48 -33 -82.5t-79 -34.5t-81 34.5t-35 82.5t35 83t81 35t79 -35t33 -83zM813 1250q0 -48 -32.5 -82.5t-80 -34.5t-81 34.5t-33.5 82.5t33.5 83t81 35t80 -35t32.5 -83 z" glyph-name="uni04E5" horiz-adv-x="1077" unicode="ӥ"/><glyph d="M613 1421q257 0 403.5 -206.5t146.5 -518t-146.5 -518.5t-403.5 -207t-404.5 207t-147.5 518.5t147.5 518t404.5 206.5zM613 55q134 0 224.5 159t90.5 480t-91.5 482t-223.5 161t-224 -160.5t-92 -482.5t91 -480.5t225 -158.5zM557 1621q0 -58 -38 -99t-93 -41t-95 41 t-40 99t40 99t95 41t93 -41t38 -99zM938 1621q0 -58 -38 -99t-93 -41t-95 41t-40 98t40 99t95 42t93 -41t38 -99z" glyph-name="uni04E6" horiz-adv-x="1224" unicode="Ӧ"/><glyph d="M858 467q0 -80 -22.5 -163t-66.5 -159.5t-125 -125t-185.5 -48.5t-185 48.5t-125 125t-67 159.5t-22.5 163t22.5 163t67 159.5t125 125t185 48.5t185.5 -48.5t125 -125t66.5 -159.5t22.5 -163zM266 467q0 -414 192.5 -414t192.5 414t-192.5 414t-192.5 -414zM416 1250 q0 -48 -33 -82.5t-79 -34.5t-81 34.5t-35 82.5t35 83t81 35t79 -35t33 -83zM733 1250q0 -48 -32.5 -82.5t-80 -34.5t-81 34.5t-33.5 82.5t33.5 83t81 35t80 -35t32.5 -83z" glyph-name="uni04E7" horiz-adv-x="917" unicode="ӧ"/><glyph d="M918 1228q0 48 -29 64.5t-90 16.5h-31v84h442v-84h-41q-88 0 -137 -150l-321 -942q-45 -135 -121 -190.5t-154 -55.5q-131 0 -197.5 81t-66.5 174t40 139.5t95 46.5t88 -34t33 -80q0 -82 -49 -112.5t-49 -44.5q0 -27 25.5 -51t76.5 -24q121 0 182 229l-409 893 q-55 121 -176 121h-29v84h575v-84h-65q-80 0 -80 -62q0 -20 21 -67l266 -605h8l170 537q23 68 23 116zM377 1556v103h577v-103h-577z" glyph-name="uni04EE" horiz-adv-x="1189" unicode="Ӯ"/><glyph d="M-6 854v80h409v-80h-38q-57 0 -58 -47q0 -14 17 -59l174 -506h10l147 454q18 55 19 101q0 57 -90 57h-31v80h340v-80h-16q-61 0 -97 -96l-317 -914q-76 -217 -230 -217q-80 0 -119.5 47.5t-39.5 99.5t27.5 83.5t69.5 31.5t67.5 -23.5t25.5 -51.5t-9 -49t-9 -27 q0 -20 24 -20t54 49t43 92l39 125l-287 786q-18 51 -37 67.5t-57 16.5h-31zM176 1190v102h578v-102h-578z" glyph-name="uni04EF" horiz-adv-x="888" unicode="ӯ"/><glyph d="M918 1228q0 48 -29 64.5t-90 16.5h-31v84h442v-84h-41q-88 0 -137 -150l-321 -942q-45 -135 -121 -190.5t-154 -55.5q-131 0 -197.5 81t-66.5 174t40 139.5t95 46.5t88 -34t33 -80q0 -82 -49 -112.5t-49 -44.5q0 -27 25.5 -51t76.5 -24q121 0 182 229l-409 893 q-55 121 -176 121h-29v84h575v-84h-65q-80 0 -80 -62q0 -20 21 -67l266 -605h8l170 537q23 68 23 116zM596 1621q0 -58 -38 -99t-93 -41t-95 41t-40 99t40 99t95 41t93 -41t38 -99zM977 1621q0 -58 -38 -99t-93 -41t-95 41t-40 98t40 99t95 42t93 -41t38 -99z" glyph-name="uni04F0" horiz-adv-x="1189" unicode="Ӱ"/><glyph d="M-6 854v80h409v-80h-38q-57 0 -58 -47q0 -14 17 -59l174 -506h10l147 454q18 55 19 101q0 57 -90 57h-31v80h340v-80h-16q-61 0 -97 -96l-317 -914q-76 -217 -230 -217q-80 0 -119.5 47.5t-39.5 99.5t27.5 83.5t69.5 31.5t67.5 -23.5t25.5 -51.5t-9 -49t-9 -27 q0 -20 24 -20t54 49t43 92l39 125l-287 786q-18 51 -37 67.5t-57 16.5h-31zM408 1250q0 -48 -33 -82.5t-79 -34.5t-81 34.5t-35 82.5t35 83t81 35t79 -35t33 -83zM725 1250q0 -48 -33 -82.5t-80 -34.5t-80.5 34.5t-33.5 82.5t33.5 83t80.5 35t80 -35t33 -83z" glyph-name="uni04F1" horiz-adv-x="888" unicode="ӱ"/><glyph d="M918 1228q0 48 -29 64.5t-90 16.5h-31v84h442v-84h-41q-88 0 -137 -150l-321 -942q-45 -135 -121 -190.5t-154 -55.5q-131 0 -197.5 81t-66.5 174t40 139.5t95 46.5t88 -34t33 -80q0 -82 -49 -112.5t-49 -44.5q0 -27 25.5 -51t76.5 -24q121 0 182 229l-409 893 q-55 121 -176 121h-29v84h575v-84h-65q-80 0 -80 -62q0 -20 21 -67l266 -605h8l170 537q23 68 23 116zM1169 1749q16 0 23 -16q-4 -24 -66.5 -57.5t-74.5 -41.5q-227 -127 -279 -127t-53 27q0 10 8 14h-4q8 20 31 37q67 51 141 164h274zM707 1749q14 0 20 -16 q-12 -34 -141 -99q-232 -127 -280 -127t-48 27q0 18 51 64t123 151h275z" glyph-name="uni04F2" horiz-adv-x="1189" unicode="Ӳ"/><glyph d="M-6 854v80h409v-80h-38q-57 0 -58 -47q0 -14 17 -59l174 -506h10l147 454q18 55 19 101q0 57 -90 57h-31v80h340v-80h-16q-61 0 -97 -96l-317 -914q-76 -217 -230 -217q-80 0 -119.5 47.5t-39.5 99.5t27.5 83.5t69.5 31.5t67.5 -23.5t25.5 -51.5t-9 -49t-9 -27 q0 -20 24 -20t54 49t43 92l39 125l-287 786q-18 51 -37 67.5t-57 16.5h-31zM924 1372q18 0 18 -16q-5 -20 -40.5 -39t-43.5 -24t-21.5 -12t-21.5 -13q-199 -115 -249 -115t-50 25q0 18 56 68t102 126h250zM535 1372q12 0 18 -16q-4 -16 -17.5 -27t-55.5 -33t-54 -28 q-209 -115 -253 -115q-44 1 -44 23q1 22 55 72t103 124h248z" glyph-name="uni04F3" horiz-adv-x="888" unicode="ӳ"/><glyph d="M852 1245q0 63 -84 64h-63v84h540v-84h-98q-82 0 -82 -64v-1100q0 -61 82 -61h98v-84h-577v84h100q84 0 84 61v484q-172 -49 -332 -49q-319 0 -319 301v364q0 63 -82 64h-99v84h558v-84h-80q-86 0 -86 -64v-373q0 -106 55 -151t168 -45t217 47v522zM575 1621 q0 -58 -37.5 -99t-93.5 -41t-95.5 41t-39.5 99t40 99t95 41t93 -41t38 -99zM956 1621q0 -58 -37.5 -99t-93 -41t-95.5 41t-40 98t40 99t95.5 42t93 -41t37.5 -99z" glyph-name="uni04F4" horiz-adv-x="1316" unicode="Ӵ"/><glyph d="M414 934v-80h-43q-23 0 -42.5 -4t-19.5 -59v-236q0 -127 115 -127q104 0 180 49v314q0 56 -18.5 59.5t-38.5 3.5h-35v80h391v-80h-65q-20 0 -40 -4t-20 -59v-648q0 -55 19.5 -59t40.5 -4h65v-80h-422v80h68q33 0 44 11t11 50v252q-102 -55 -229 -55t-182.5 64.5 t-55.5 144.5v244q0 55 -20.5 59t-40.5 4h-64v80h402zM416 1250q0 -48 -33 -82.5t-79 -34.5t-81 34.5t-35 82.5t35 83t81 35t79 -35t33 -83zM733 1250q0 -48 -32.5 -82.5t-80 -34.5t-81 34.5t-33.5 82.5t33.5 83t81 35t80 -35t32.5 -83z" glyph-name="uni04F5" horiz-adv-x="972" unicode="ӵ"/><glyph d="M465 784h123q156 0 266.5 -34.5t189 -118t78.5 -228.5q0 -43 -5 -81.5t-33.5 -102t-78 -107.5t-148.5 -78t-234 -34h-551v84h98q82 0 82 61v1100q0 63 -82 64h-98v84h577v-84h-100q-84 0 -84 -64v-461zM465 698v-555q0 -35 21.5 -47t62.5 -12h33q307 0 307 315 q0 299 -314 299h-110zM1133 1393h573v-84h-98q-82 0 -82 -64v-1100q0 -61 82 -61h98v-84h-573v84h96q84 0 84 61v1100q0 63 -84 64h-96v84zM883 1621q0 -58 -38 -99t-93 -41t-95.5 41t-40.5 99t40 99t96 41t93.5 -41t37.5 -99zM1264 1621q0 -58 -38 -99t-93.5 -41t-95.5 41 t-40 98t40 99t95.5 42t93.5 -41t38 -99z" glyph-name="uni04F8" horiz-adv-x="1777" unicode="Ӹ"/><glyph d="M856 934h418v-80h-66q-20 0 -39.5 -3.5t-19.5 -59.5v-648q0 -56 19.5 -59.5t39.5 -3.5h66v-80h-418v80h59q23 0 32 2t18.5 16.5t9.5 44.5v648q0 55 -18.5 59t-41.5 4h-59v80zM487 934v-80h-59q-20 0 -39.5 -3.5t-19.5 -59.5v-261h141q322 0 321 -270q0 -119 -56 -168 t-119.5 -70.5t-149.5 -21.5h-436v80h63q23 0 42.5 4t19.5 59v648q0 55 -19.5 59t-42.5 4h-63v80h417zM369 451v-306q0 -68 63 -67h35q172 0 172 186q0 142 -67.5 164.5t-127.5 22.5h-75zM637 1250q0 -48 -33 -82.5t-79 -34.5t-80.5 34.5t-34.5 82.5t34.5 83t80.5 35t79 -35 t33 -83zM954 1250q0 -48 -32.5 -82.5t-79.5 -34.5t-81 34.5t-34 82.5t34 83t81 35t79.5 -35t32.5 -83z" glyph-name="uni04F9" horiz-adv-x="1343" unicode="ӹ"/><glyph d="M915 891h-92q-55 438 -323 438q-246 0 -246 -231q0 -120 88 -175.5t192 -90.5q103 -35 131.5 -45.5t80 -33t109.5 -62t97 -113.5t39 -187t-35.5 -195.5t-84 -124.5t-128 -71t-161.5 -29q-205 0 -346 140l-58 -140h-96v592h96q24 -184 114.5 -340.5t285.5 -156.5 q160 0 210 78.5t50 149.5q0 72 -22.5 115.5t-72 75t-84 48t-106.5 40t-88 29.5q-207 78 -285 184.5t-78 251.5q0 182 113 282.5t283 100.5q74 0 155.5 -31.5t130.5 -105.5l45 109h86v-502zM1942 891h-93q-55 438 -323 438q-246 0 -246 -231q0 -120 88 -175.5t192 -90.5 q103 -35 131.5 -45.5t80 -33t109.5 -62t97 -113.5t39 -187t-35.5 -195.5t-84 -124.5t-128 -71t-161.5 -29q-205 0 -346 140l-58 -140h-96v592h96q24 -184 114.5 -340.5t285.5 -156.5q160 0 210 78.5t50 149.5q0 72 -22.5 115.5t-72 75t-84 48t-106.5 40t-88 29.5 q-207 78 -285 184.5t-78 251.5q0 182 113 282.5t283 100.5q74 0 155.5 -31.5t130.5 -105.5l45 109h87v-502z" glyph-name="uni1E9E" horiz-adv-x="2084" unicode="ẞ"/><glyph d="M92 467v139h539v-139h-539z" glyph-name="uni2010" horiz-adv-x="722" unicode="‐"/><glyph d="M92 467v139h539v-139h-539z" glyph-name="uni2011" horiz-adv-x="722" unicode="‑"/><glyph d="M102 762h1033v-103h-1033v103z" glyph-name="figuredash" horiz-adv-x="1236" unicode="‒"/><glyph d="M102 594h1033v-102h-1033v102z" glyph-name="endash" horiz-adv-x="1236" unicode="–"/><glyph d="M102 492v102h1708v-102h-1708z" glyph-name="emdash" horiz-adv-x="1912" unicode="—"/><glyph d="M102 492v102h1708v-102h-1708z" glyph-name="afii00208" horiz-adv-x="1912" unicode="―"/><glyph d="M285 1156q0 -38 10 -53.5t24.5 -18.5t42.5 -3q102 0 103 -114q0 -53 -42 -92t-114 -39t-119 58t-47 154t70 197.5t195 175.5l36 -59q-47 -31 -103 -99.5t-56 -106.5z" glyph-name="quoteleft" horiz-adv-x="608" unicode="‘"/><glyph d="M324 1102q0 39 -10.5 54t-25 18.5t-42.5 3.5q-102 0 -103 112q0 53 42 92t114 39t119 -58.5t47 -154.5t-70.5 -198t-193.5 -174l-37 57q47 31 103.5 100.5t56.5 108.5z" glyph-name="quoteright" horiz-adv-x="608" unicode="’"/><glyph d="M313 -28q0 44 -17 55.5t-58 11.5q-104 0 -105 115q0 55 42 94t116 39t121 -59.5t47 -156.5t-72 -199.5t-197 -174.5l-38 63q45 29 103 98.5t58 113.5z" glyph-name="quotesinglbase" horiz-adv-x="602" unicode="‚"/><glyph d="M287 1156q0 -38 10 -53.5t24.5 -18.5t43.5 -3q102 0 102 -114q0 -53 -42 -92t-115 -39t-120 59t-47 154t71 196.5t196 175.5l36 -59q-47 -31 -103 -99.5t-56 -106.5zM692 1156q0 -38 10.5 -53.5t24.5 -18.5t43 -3q104 0 104 -114q0 -53 -43 -92t-115 -39t-118.5 58 t-46.5 154t69.5 197.5t194.5 175.5l37 -57q-45 -31 -102.5 -100.5t-57.5 -107.5z" glyph-name="quotedblleft" horiz-adv-x="1017" unicode="“"/><glyph d="M326 1102q0 39 -10.5 54t-25 18.5t-42.5 3.5q-104 0 -105 112q0 53 43 92t115 39t119 -58.5t47 -154.5t-70.5 -198t-193.5 -174l-37 57q47 31 103.5 100.5t56.5 108.5zM731 1102q0 39 -10 54t-24.5 18.5t-43.5 3.5q-102 0 -102 112q0 53 42 92t115 39t119.5 -58.5 t46.5 -154.5t-70.5 -198t-195.5 -174l-37 57q47 31 103.5 100.5t56.5 108.5z" glyph-name="quotedblright" horiz-adv-x="1017" unicode="”"/><glyph d="M326 -36q0 38 -10.5 53.5t-25 18.5t-42.5 3q-104 0 -105 113q0 53 43 92t115 39t119 -58.5t47 -154.5t-69.5 -197.5t-194.5 -173.5l-37 57q45 31 102.5 100.5t57.5 107.5zM731 -36q0 38 -10 53.5t-24.5 18.5t-43.5 3q-102 0 -102 113q0 53 42 92t115 39t119.5 -59.5 t46.5 -154.5t-70.5 -195.5t-195.5 -174.5l-37 57q45 31 102.5 100.5t57.5 107.5z" glyph-name="quotedblbase" horiz-adv-x="1017" unicode="„"/><glyph d="M442.5 1421q112.5 0 112.5 -116q0 -45 -39 -168t-39 -159t33 -36q54 0 122 34t98 34t61.5 -27t31.5 -79t-29.5 -80.5t-73.5 -28.5t-108 39t-106 38q-18 0 -19 -22q0 -143 105 -318q-49 -129 -78 -318t-45 -593h-51q-18 408 -48 598.5t-81 312.5q109 176 108 318 q0 23 -20 22q-41 0 -105 -38t-108 -39q-44 0 -73.5 29.5t-29.5 80.5t31 78t62 27q30 0 98 -34t123 -34q31 0 31 35t-38 159t-38 169q0 116 112.5 116z" glyph-name="dagger" horiz-adv-x="884" unicode="†"/><glyph d="M442.5 1421q112.5 0 112.5 -116q0 -45 -39 -168t-39 -159t33 -36q54 0 122 34t98 34t61.5 -27t31.5 -79t-29.5 -80.5t-73.5 -28.5t-108 39t-106 38q-18 0 -19 -22q0 -174 86 -318q-86 -143 -86 -317q0 -23 19 -22q42 1 106 39t108 38t73.5 -28.5t29.5 -80.5t-31.5 -79 t-61.5 -27t-98 34t-122 34q-33 0 -33 -29q0 -47 39 -168t39 -166q0 -117 -112.5 -116.5t-112.5 116.5q0 43 37 174t38 160t-30 29q-55 0 -123 -34t-98 -34q-31 0 -62 27t-31 78t30 80.5t74 29.5t107 -39t105 -38q20 0 20 22q0 174 -88 317q88 143 88 318q0 23 -20 22 q-41 0 -105 -38t-108 -39q-44 0 -73.5 29.5t-29.5 80.5t31 78t62 27q30 0 98 -34t123 -34q31 0 31 29q0 36 -38 163t-38 171q0 116 112.5 116z" glyph-name="daggerdbl" horiz-adv-x="884" unicode="‡"/><glyph d="M473 647q0 84 57.5 141.5t141.5 57.5t141 -57.5t57 -141.5t-57 -141t-141 -57t-141.5 57t-57.5 141z" glyph-name="bullet" horiz-adv-x="1343" unicode="•"/><glyph d="M1106 124q0 64 40 108t100 44t103.5 -45t43.5 -107t-43.5 -107.5t-103.5 -45.5t-100 44.5t-40 108.5zM625 124q0 64 40 108t100 44t103 -45t43 -107t-43 -107.5t-103 -45.5t-100 44.5t-40 108.5zM143 124q0 64 40.5 108t100.5 44t103 -45t43 -107t-43 -107.5t-103 -45.5 t-100.5 44.5t-40.5 108.5z" glyph-name="ellipsis" horiz-adv-x="1536" unicode="…"/><glyph d="M1575 343q0 146 81.5 257t197.5 111t196 -111t80 -257t-81 -258t-197 -112t-196.5 112t-80.5 258zM1739 328q0 -125 30.5 -208t80.5 -83t82 80.5t32 230.5t-33 224.5t-80 74.5q-62 0 -87 -97t-25 -222zM903 341q0 146 81 257t198 111t196.5 -111t79.5 -257t-81 -258 t-197 -112t-196.5 112t-80.5 258zM102 1054q0 148 81 257.5t197 109.5t196.5 -109.5t80.5 -257t-80.5 -258t-196.5 -110.5t-197 110t-81 258zM1069 1485l98 -53l-723 -1545l-96 58zM266 1091q0 -118 12.5 -197.5t44 -112.5t49.5 -33q19 0 39.5 7t50.5 73t30 219t-31 233 t-81 80t-82 -75.5t-32 -193.5zM1067 326q0 -125 30.5 -208t80.5 -83t82 80.5t32 230.5t-32.5 224.5t-79.5 74.5q-63 0 -88 -97t-25 -222z" glyph-name="perthousand" horiz-adv-x="2232" unicode="‰"/><glyph d="M457 457l227 -391l-68 -48l-401 441l408 448l67 -53z" glyph-name="guilsinglleft" horiz-adv-x="905" unicode="‹"/><glyph d="M449 467l-226 391l68 47l399 -440l-407 -449l-68 54z" glyph-name="guilsinglright" horiz-adv-x="905" unicode="›"/><glyph d="M-211 -403l-86 36l684 1762l90 -39z" glyph-name="fraction" horiz-adv-x="145" unicode="⁄"/><glyph d="M59 731h-104l16 70h90q20 266 146.5 443t347.5 177q70 0 130 -22.5t83 -40t57 -47.5l43 82h86l13 -426h-86q-39 166 -112 262t-206 96q-258 0 -276 -524h571l-18 -70h-553q0 -66 4 -117h522l-18 -69h-498q37 -341 128 -409t171 -68q207 0 293 297h94q-29 -113 -80 -195 t-137.5 -140.5t-198.5 -58.5q-221 0 -339.5 159t-155.5 415h-117l18 69h90q-4 74 -4 117z" glyph-name="Euro" unicode="€"/><glyph d="M57 821h445q166 88 241.5 158t75.5 155t-54 140t-168 55t-206 -91t-131 -232h-88v387h84l45 -109q115 137 317 137q164 0 256.5 -83.5t92.5 -241.5t-95 -275h86v-69h-155q-66 -55 -170 -115h325v-70h-464q-266 -125 -267 -280q0 -90 52.5 -155.5t184.5 -65.5 q201 0 272.5 125.5t115.5 246.5h94v-467h-94l-59 140q-135 -139 -344 -140q-94 0 -187.5 43t-138.5 122t-45 204t63 227h-84v70h142q53 51 170 115h-312v69z" glyph-name="uni20B4" unicode="₴"/><glyph d="M434 602v-115h246v-88h-246v-254q0 -61 84 -61h80v-84h-557v84h98q82 0 82 61v254h-180v88h180v115h-180v88h180v555q0 63 -82 64h-98v84h485q178 0 317.5 -75t139.5 -323q0 -102 -37 -174.5t-83 -115.5t-132 -73t-199 -30h-98zM434 690h82q56 0 144 53t88 269 q0 114 -48.5 205.5t-162.5 91.5h-52q-51 0 -51 -68v-551z" glyph-name="uni20B6" unicode="₶"/><glyph d="M434 602v-115h246v-88h-246v-254q0 -61 84 -61h80v-84h-557v84h98q82 0 82 61v254h-180v88h180v115h-180v88h180v555q0 63 -82 64h-98v84h485q178 0 317.5 -75t139.5 -323q0 -102 -37 -174.5t-83 -115.5t-132 -73t-199 -30h-98zM434 690h82q56 0 144 53t88 269 q0 114 -48.5 205.5t-162.5 91.5h-52q-51 0 -51 -68v-551z" glyph-name="uni20B6" unicode="⃏"/><glyph d="M434 602v-115h246v-88h-246v-254q0 -61 84 -61h80v-84h-557v84h98q82 0 82 61v254h-180v88h180v115h-180v88h180v555q0 63 -82 64h-98v84h485q178 0 317.5 -75t139.5 -323q0 -102 -37 -174.5t-83 -115.5t-132 -73t-199 -30h-98zM434 690h82q56 0 144 53t88 269 q0 114 -48.5 205.5t-162.5 91.5h-52q-51 0 -51 -68v-551z" glyph-name="uni20B6" unicode="⃎"/><glyph d="M434 602v-115h246v-88h-246v-254q0 -61 84 -61h80v-84h-557v84h98q82 0 82 61v254h-180v88h180v115h-180v88h180v555q0 63 -82 64h-98v84h485q178 0 317.5 -75t139.5 -323q0 -102 -37 -174.5t-83 -115.5t-132 -73t-199 -30h-98zM434 690h82q56 0 144 53t88 269 q0 114 -48.5 205.5t-162.5 91.5h-52q-51 0 -51 -68v-551z" glyph-name="uni20B6" unicode="⃍"/><glyph d="M434 602v-115h246v-88h-246v-254q0 -61 84 -61h80v-84h-557v84h98q82 0 82 61v254h-180v88h180v115h-180v88h180v555q0 63 -82 64h-98v84h485q178 0 317.5 -75t139.5 -323q0 -102 -37 -174.5t-83 -115.5t-132 -73t-199 -30h-98zM434 690h82q56 0 144 53t88 269 q0 114 -48.5 205.5t-162.5 91.5h-52q-51 0 -51 -68v-551z" glyph-name="uni20B6" unicode="⃌"/><glyph d="M434 602v-115h246v-88h-246v-254q0 -61 84 -61h80v-84h-557v84h98q82 0 82 61v254h-180v88h180v115h-180v88h180v555q0 63 -82 64h-98v84h485q178 0 317.5 -75t139.5 -323q0 -102 -37 -174.5t-83 -115.5t-132 -73t-199 -30h-98zM434 690h82q56 0 144 53t88 269 q0 114 -48.5 205.5t-162.5 91.5h-52q-51 0 -51 -68v-551z" glyph-name="uni20B6" unicode="⃋"/><glyph d="M434 602v-115h246v-88h-246v-254q0 -61 84 -61h80v-84h-557v84h98q82 0 82 61v254h-180v88h180v115h-180v88h180v555q0 63 -82 64h-98v84h485q178 0 317.5 -75t139.5 -323q0 -102 -37 -174.5t-83 -115.5t-132 -73t-199 -30h-98zM434 690h82q56 0 144 53t88 269 q0 114 -48.5 205.5t-162.5 91.5h-52q-51 0 -51 -68v-551z" glyph-name="uni20B6" unicode="⃊"/><glyph d="M434 602v-115h246v-88h-246v-254q0 -61 84 -61h80v-84h-557v84h98q82 0 82 61v254h-180v88h180v115h-180v88h180v555q0 63 -82 64h-98v84h485q178 0 317.5 -75t139.5 -323q0 -102 -37 -174.5t-83 -115.5t-132 -73t-199 -30h-98zM434 690h82q56 0 144 53t88 269 q0 114 -48.5 205.5t-162.5 91.5h-52q-51 0 -51 -68v-551z" glyph-name="uni20B6" unicode="⃉"/><glyph d="M434 602v-115h246v-88h-246v-254q0 -61 84 -61h80v-84h-557v84h98q82 0 82 61v254h-180v88h180v115h-180v88h180v555q0 63 -82 64h-98v84h485q178 0 317.5 -75t139.5 -323q0 -102 -37 -174.5t-83 -115.5t-132 -73t-199 -30h-98zM434 690h82q56 0 144 53t88 269 q0 114 -48.5 205.5t-162.5 91.5h-52q-51 0 -51 -68v-551z" glyph-name="uni20B6" unicode="⃈"/><glyph d="M434 602v-115h246v-88h-246v-254q0 -61 84 -61h80v-84h-557v84h98q82 0 82 61v254h-180v88h180v115h-180v88h180v555q0 63 -82 64h-98v84h485q178 0 317.5 -75t139.5 -323q0 -102 -37 -174.5t-83 -115.5t-132 -73t-199 -30h-98zM434 690h82q56 0 144 53t88 269 q0 114 -48.5 205.5t-162.5 91.5h-52q-51 0 -51 -68v-551z" glyph-name="uni20B6" unicode="⃇"/><glyph d="M434 602v-115h246v-88h-246v-254q0 -61 84 -61h80v-84h-557v84h98q82 0 82 61v254h-180v88h180v115h-180v88h180v555q0 63 -82 64h-98v84h485q178 0 317.5 -75t139.5 -323q0 -102 -37 -174.5t-83 -115.5t-132 -73t-199 -30h-98zM434 690h82q56 0 144 53t88 269 q0 114 -48.5 205.5t-162.5 91.5h-52q-51 0 -51 -68v-551z" glyph-name="uni20B6" unicode="⃆"/></font>
</defs>
</svg>
